/* XPM */
static char *_cfd405dd06c465cd003e349760e18celWdAgNDhP4YwiRRU[] = {
/* columns rows colors chars-per-pixel */
"24 24 2 1 ",
"  c None",
". c black",
/* pixels */
"  ....................  ",
" ...................... ",
"...                  ...",
"..                    ..",
"..                    ..",
"..                    ..",
"..         ..         ..",
"..        .....       ..",
"..       ... ...      ..",
"..      ...  ...      ..",
"..      ...   ..      ..",
"..      ...   ..      ..",
"..      ...   ..      ..",
"..      ...   ..      ..",
"..      ...   ..      ..",
"..       ..  ...      ..",
"..       ......       ..",
"..        ....        ..",
"..                    ..",
"..                    ..",
"..                    ..",
"...                  ...",
" ...................... ",
"  ....................  "
};
