/* XPM */
static char *_76e722554804269e7b3219f874f074fONXKXWdjlchdwh32[] = {
/* columns rows colors chars-per-pixel */
"24 24 2 1 ",
"  c None",
". c black",
/* pixels */
"  ....................  ",
" ...................... ",
"...                  ...",
"..                    ..",
"..                    ..",
"..                    ..",
"..          .         ..",
"..       .....        ..",
"..       .....        ..",
"..       . ...        ..",
"..         ...        ..",
"..         ...        ..",
"..         ...        ..",
"..         ...        ..",
"..         ...        ..",
"..         ...        ..",
"..         ...        ..",
"..         ..         ..",
"..                    ..",
"..                    ..",
"..                    ..",
"...                  ...",
" ...................... ",
"  ....................  "
};
