/* XPM */
static char *ac4f119a28574cfad1fad7c306b600c1mVy3HpIRFn1TQtI8[] = {
/* columns rows colors chars-per-pixel */
"24 24 2 1 ",
"  c None",
". c black",
/* pixels */
"  ....................  ",
" ...................... ",
"...                  ...",
"..                    ..",
"..                    ..",
"..                    ..",
"..         ..         ..",
"..       ......       ..",
"..       .. ....      ..",
"..           ...      ..",
"..           ...      ..",
"..           ..       ..",
"..          ...       ..",
"..         ...        ..",
"..        ...         ..",
"..       ....         ..",
"..      ........      ..",
"..      ........      ..",
"..                    ..",
"..                    ..",
"..                    ..",
"...                  ...",
" ...................... ",
"  ....................  "
};
