/* XPM */
static char *bc8e785ba2eb43e8a1702f2da506717e5Vo9gmIZiKzs561E[] = {
/* columns rows colors chars-per-pixel */
"24 24 2 1 ",
"  c None",
". c black",
/* pixels */
"  ....................  ",
" ...................... ",
"...                  ...",
"..                    ..",
"..                    ..",
"..                    ..",
"..         ...        ..",
"..       ......       ..",
"..       .. ....      ..",
"..           ...      ..",
"..           ...      ..",
"..        .....       ..",
"..        .....       ..",
"..           ...      ..",
"..            ..      ..",
"..       .   ...      ..",
"..       .......      ..",
"..       .....        ..",
"..                    ..",
"..                    ..",
"..                    ..",
"...                  ...",
" ...................... ",
"  ....................  "
};
