/* XPM */
static char *_a7709e82d98414eedcdbd9e5f6e97b5nzJrK4ZMmn7NvBnw[] = {
/* columns rows colors chars-per-pixel */
"24 24 2 1 ",
"  c None",
". c black",
/* pixels */
"  ....................  ",
" ...................... ",
"...                  ...",
"..                    ..",
"..                    ..",
"..                    ..",
"..          ..        ..",
"..         ....       ..",
"..        .....       ..",
"..        .....       ..",
"..       ......       ..",
"..      ... ...       ..",
"..      ..  ...       ..",
"..     .........      ..",
"..     .........      ..",
"..          ...       ..",
"..          ...       ..",
"..          ..        ..",
"..                    ..",
"..                    ..",
"..                    ..",
"...                  ...",
" ...................... ",
"  ....................  "
};
