/* XPM */
static char *eaa5fb3ea6d44d2eba8e1fd98d8391b6yOujw33CEGMbsuJh[] = {
/* columns rows colors chars-per-pixel */
"24 24 2 1 ",
"  c None",
". c black",
/* pixels */
"  ....................  ",
" ...................... ",
"...                  ...",
"..                    ..",
"..                    ..",
"..                    ..",
"..        .....       ..",
"..        ......      ..",
"..       ......       ..",
"..       ..           ..",
"..       ....         ..",
"..       ......       ..",
"..          ....      ..",
"..           ...      ..",
"..           ...      ..",
"..       .   ...      ..",
"..      .......       ..",
"..       .....        ..",
"..                    ..",
"..                    ..",
"..                    ..",
"...                  ...",
" ...................... ",
"  ....................  "
};
