/* XPM */
static char *_768d80408c84e5cc4d39693a85b639ec5frEDQcGY6PbmGc[] = {
/* columns rows colors chars-per-pixel */
"24 24 2 1 ",
"  c None",
". c black",
/* pixels */
"  ....................  ",
" ...................... ",
"...                  ...",
"..                    ..",
"..                    ..",
"..                    ..",
"..           ..       ..",
"..        .....       ..",
"..       .....        ..",
"..      ...           ..",
"..      ......        ..",
"..      .......       ..",
"..      ...  ...      ..",
"..      ..   ...      ..",
"..      ..   ...      ..",
"..      ...  ...      ..",
"..       ......       ..",
"..        ....        ..",
"..                    ..",
"..                    ..",
"..                    ..",
"...                  ...",
" ...................... ",
"  ....................  "
};
