/* XPM */
static char *ef541b2c50c1453bb180eef32ea010f5sAoFRNQBpai7NJtt[] = {
/* columns rows colors chars-per-pixel */
"24 24 2 1 ",
"  c None",
". c black",
/* pixels */
"  ....................  ",
" ...................... ",
"...                  ...",
"..                    ..",
"..                    ..",
"..                    ..",
"..       .......      ..",
"..      ........      ..",
"..       .......      ..",
"..           ..       ..",
"..          ...       ..",
"..          ..        ..",
"..         ...        ..",
"..         ..         ..",
"..        ...         ..",
"..        ..          ..",
"..       ...          ..",
"..       ..           ..",
"..                    ..",
"..                    ..",
"..                    ..",
"...                  ...",
" ...................... ",
"  ....................  "
};
