/* XPM */
static char *a78e635f81de49bec5a724b70a60bf88R2Ch29vXEhXxf3K1[] = {
/* columns rows colors chars-per-pixel */
"24 24 2 1 ",
"  c None",
". c black",
/* pixels */
"  ....................  ",
" ...................... ",
"...                  ...",
"..                    ..",
"..                    ..",
"..                    ..",
"..         ...        ..",
"..       .......      ..",
"..       ... ...      ..",
"..       ..   ..      ..",
"..       ... ...      ..",
"..        .....       ..",
"..       .......      ..",
"..       ..  ...      ..",
"..      ...   ...     ..",
"..      ...   ..      ..",
"..       .......      ..",
"..        .....       ..",
"..                    ..",
"..                    ..",
"..                    ..",
"...                  ...",
" ...................... ",
"  ....................  "
};
