/* XPM */
static char *_af7efaa335f45eacc025c0ed9d63752JSw6H3nz7pLcPA6x[] = {
/* columns rows colors chars-per-pixel */
"24 24 2 1 ",
"  c None",
". c black",
/* pixels */
"  ....................  ",
" ...................... ",
"...                  ...",
"..                    ..",
"..                    ..",
"..                    ..",
"..         ..         ..",
"..       ......       ..",
"..      ... ...       ..",
"..      ..   ...      ..",
"..      ..   ...      ..",
"..      ...  ...      ..",
"..      ........      ..",
"..       .......      ..",
"..           ..       ..",
"..         ....       ..",
"..       .....        ..",
"..       ...          ..",
"..                    ..",
"..                    ..",
"..                    ..",
"...                  ...",
" ...................... ",
"  ....................  "
};
