/* XPM */
static char *_ea26c1d64764246a3324646466bf3cbtg4ol79jKesKg848[] = {
/* columns rows colors chars-per-pixel */
"64 64 198 2 ",
"   c None",
".  c #0D0907",
"X  c #0A0705",
"o  c #130E0A",
"O  c #19130E",
"+  c #1F1711",
"@  c #281E16",
"#  c #332A1E",
"$  c #2B2118",
"%  c #3A2E22",
"&  c #3D3323",
"*  c #0C3B10",
"=  c #46392B",
"-  c #493D32",
";  c #004312",
":  c #004C14",
">  c #0C4A19",
",  c #005315",
"<  c #005A16",
"1  c #005E18",
"2  c #134F1D",
"3  c #006419",
"4  c #006C1B",
"5  c #006017",
"6  c #00731D",
"7  c #007B1F",
"8  c #184F20",
"9  c #195221",
"0  c #3F5D31",
"q  c #32592B",
"w  c #007F20",
"e  c #057623",
"r  c #4D422E",
"t  c #584B38",
"y  c #445E32",
"u  c #484F34",
"i  c #4B6135",
"p  c #536339",
"a  c #5C663B",
"s  c #576C3D",
"d  c #6C633E",
"f  c #70633F",
"g  c #5F5446",
"h  c #655A49",
"j  c #736541",
"k  c #7B6C46",
"l  c #776B44",
"z  c #797248",
"x  c #746759",
"c  c #676749",
"v  c #84754A",
"b  c #8A794D",
"n  c #847449",
"m  c #8D7D50",
"M  c #907F51",
"N  c #837B73",
"B  c #008322",
"V  c #008C24",
"C  c #009326",
"Z  c #009927",
"A  c #009D29",
"S  c #169B37",
"D  c #00A42B",
"F  c #00AC2D",
"G  c #00B32F",
"H  c #00B530",
"J  c #00BB31",
"K  c #0CB236",
"L  c #12A638",
"P  c #00C333",
"I  c #00CC34",
"U  c #05CC38",
"Y  c #00D237",
"T  c #00D638",
"R  c #00D939",
"E  c #0AD93F",
"W  c #23B849",
"Q  c #33B354",
"!  c #53B66C",
"~  c #69BD7E",
"^  c #18C243",
"/  c #0CDA42",
"(  c #1CDB4D",
")  c #14D846",
"_  c #29DA56",
"`  c #33DA5E",
"'  c #26CC50",
"]  c #3CDD65",
"[  c #3CCE60",
"{  c #46D76A",
"}  c #4DDB71",
"|  c #57D877",
" . c #5BC976",
".. c #66C37D",
"X. c #4BE170",
"o. c #52E175",
"O. c #948354",
"+. c #988657",
"@. c #998659",
"#. c #9D8A59",
"$. c #968458",
"%. c #A18E5C",
"&. c #A4915E",
"*. c #A8945E",
"=. c #A69361",
"-. c #AA9662",
";. c #AD9964",
":. c #AF9B68",
">. c #B19D65",
",. c #B29D68",
"<. c #A18E60",
"1. c #B6A16A",
"2. c #BBA56D",
"3. c #BEA86E",
"4. c #BEA971",
"5. c #C0AA6E",
"6. c #C3AD72",
"7. c #CBB376",
"8. c #CEB679",
"9. c #C7B074",
"0. c #D0B77B",
"q. c #D3BB7C",
"w. c #D8BE7E",
"e. c #D9C07F",
"r. c #71BF84",
"t. c #74C488",
"y. c #73D58B",
"u. c #72D089",
"i. c #75E190",
"p. c #82B68E",
"a. c #89AA91",
"s. c #BDBDBC",
"d. c #BAB7B4",
"f. c #AEB2AE",
"g. c #948C86",
"h. c #D8BE80",
"j. c #C5BEB6",
"k. c #87D59A",
"l. c #90CF9E",
"z. c #85E89D",
"x. c #98D4A6",
"c. c #98CFA5",
"v. c #B9C5BB",
"b. c #AADCB5",
"n. c #B2D9BA",
"m. c #97E4A9",
"M. c #8DE6A3",
"N. c #A3E3B2",
"B. c #B2E6BD",
"V. c #DCC382",
"C. c #E1C784",
"Z. c #E3C986",
"A. c #E7CC88",
"S. c #E9CE8A",
"D. c #EDD28D",
"F. c #F1D58F",
"G. c #F2D790",
"H. c #F3D891",
"J. c #C7C0B9",
"K. c #BED7C4",
"L. c #BCEEC7",
"P. c #C4C4C3",
"I. c #C6C9C6",
"U. c #C8C8C7",
"Y. c #CCCDCC",
"T. c #C6D6C9",
"R. c #D0D0CF",
"E. c #D5D5D4",
"W. c #D6D8D6",
"Q. c #D8D8D7",
"!. c #DCDDDB",
"~. c #DFE0DE",
"^. c #D2E3D5",
"/. c #C9F0D1",
"(. c #C9F0D1",
"). c #E0E0DF",
"_. c #DFEFE2",
"`. c #E3E3E2",
"'. c #E7E8E6",
"]. c #E8E8E7",
"[. c #EEEEED",
"{. c #EEEFEE",
"}. c #EDEDEC",
"|. c #EAEBE9",
" X c #E9E6E4",
".X c #EFF0EE",
"XX c #ECF4ED",
"oX c #E3F4E5",
"OX c #F0F1EF",
"+X c #F3F3F2",
"@X c #F1F2F0",
"#X c #F3F4F3",
"$X c #F0F4F0",
"%X c #F4F5F3",
"&X c #F5F5F4",
"*X c #F6F7F5",
"=X c #F6F6F5",
"-X c #F5F6F4",
/* pixels */
"                                                        R E / / / / E R                                                         ",
"                                              R R R R R R E ( _ _ ( R R R R R R T                                               ",
"                                          R R R R R ] z./.$X*X*X*X*XXX/.z.` R T T T R                                           ",
"                                    R R R R R R o./.*X*X&X*X*X*X*X*X*X*X$X$X/.X.R R R R R T                                     ",
"                                R R R R R R _ L.*X*X&X&X*X&X*X*X*X*X*X*X*X*X*X*XB.( R R T T T T                                 ",
"                              R R R R R R X.oX&X*X*X&X&X&X*X&X*X%X*X*X*X*X*X*X*X*XoX] R T T T T R                               ",
"                            R R R R R R o.&X%X%X&X#X&X&X&X&X&X&X%X*X%X*X*X*X*X*X*X%XXXX.T T T T T T                             ",
"                        R R R R R R R { OX&X%X%X#X&X$X&X&X&X&X&X&X%X*X*X*X*X*X*X*X%X%XXX` R T R T T R T                         ",
"                      R R R R R R R ( oX$X$X+X+X@X#X#X#X#X#X&X#X%X&X&X*X&X&X&X&X&X%X%X%X_./ R R R T T T R                       ",
"                    R R R R R R R R N.$X$X$X$X@X#X#X@X@X#X#X#X#X%X$X%X%X&X#X%X%X%X%X#X@X$Xm.R R R T T T T R                     ",
"                  R R R R R R R R ` .XOX@X@X@X@X@X@X@X@X@X@X#X@X+X+X@X&X#X#X+X+X#X#X#X@X$XXX_ R T R T R T T T                   ",
"                R R R R R R R R R N.{..XOX.XOXOX{.@X@X{.@X@X@X@X@X@X@X@X@X+X@X+X@X@X@X@XOX$Xz.R R R T T T T T T                 ",
"                R R R R R R R R / '.{..X{.{.{.{.{.{.{.{.{.{.{.{.OXOXOXOXOXOXOX@X@X@XOX{.{.{.~.E R R R R T T T T                 ",
"              R R R R R R R R R } |.|.|.|.|.{.{.{.{.{.{.{.{.{.{.{.OX}.OXOXOX}.}.{.{.{.}.}.{.XX] R R R R R T T T R               ",
"            _ R R R R R R R R R i.|.'.|.|.|.|.|.|.{.|.{.{.{.{.{.{.}.{.}.}.}.}.}.}.}.}.}.}.}.].y.R R R R R R R Y T `             ",
"            i.R R R R R R R R R N.'.|.|.].|.'.|.|.'.|.|.|.|.|.|.}.}.}.}.}.}.}.}.|.}.}.|.|.}.].M.R R R R R R T T Y u.            ",
"          `.N.R R R R R R R R R B. X'.'.'.'.'.|.].].|.].].].|.|.|.|.|.|.|.|.|.|.|.|.|.].].]. XN.R R R R R R R R R b.R.          ",
"        ~.`.^.R R R R R R R R R B.`.'.`. X`.].'.].].].].].].].].'.'.|.|.|.'.|.'.].].].].]. X XN.R R R R R R R R R ~.!.R.        ",
"        !.`.`.) R R R R R R R R b.`.`.`.`.`.`.`.`.`.].`. X`.].`.`.`.].`.`.`.`.'. X`.`.'.`.'. Xm.R R R R R R R R ( `.).Q.        ",
"      W.!.).`.` R Y R R R R R R k.`.`.`.`.`.`.`.`.`.`.`.`.`.`.`.`.`.`.`.`.`.`.`.`.`.`.`.`.`.).i.R R R R R R R R ` ).).).E.      ",
"      E.~.`.`.{ R Y R R Y R R R u.).).).).).).`.).).).).`.`.`.`.`.`.`.).`.`.).`.`.`.).`.).).).} R R R R R R R R } `.`.!.Q.      ",
"    R.Q.!.~.!.} Y R Y R R R R R ) ).).~.).).).).).).).).~.~.~.~.).`.`.).).).).`.`.).).~.).).).E R R R R R R R R } !.`.).Q.R.    ",
"    Y.Q.!.).~.| Y Y Y Y Y Y Y Y R n.~.~.~.~.).).~.).~.~.~.~.~.~.~.~.~.~.~.~.~.~.).).~.~.).).b.Y T T R R R R R R | ~.~.!.Q.Y.    ",
"    R.Q.!.!.).{ Y I I Y Y I Y Y Y | ~.~.~.~.~.~.).!.).!.).).!.!.~.~.~.~.~.).!.~.).!.~.~.!.).{ Y T T T R R R R R } ~.~.!.Q.R.    ",
"  U.R.Q.!.!.~.{ P I I I I I I I I U K.).!.!.~.!.!.!.).!.~.~.).).!.!.!.!.).!.!.).!.!.).).!.n.Y Y Y T T T R R R R ] !.~.!.W.Y.v.  ",
"  U.Y.Q.!.~.!.' P P I I I I I I I P [ ~.~.!.!.~.~.!.!.~.!.!.!.!.!.~.~.!.!.).~.!.).!.!.!.!._ Y Y Y T R T R R R R _ !.!.!.E.R.P.  ",
"  U.R.Q.!.!.!.^ J P P P P P P P P P P y.!.!.!.!.!.!.!.!.!.!.!.!.!.~.!.!.!.!.!.!.!.!.!.!...Y I Y Y Y T T R R R R ) !.!.!.Q.R.U.  ",
"  U.Y.Q.!.!.T.J J J J J P J P J P P J P c.!.!.!.!.!.!.!.!.!.!.!.!.Q.!.!.!.!.!.!.!.!.!.k.Y I I Y Y T T T T R R T R T.Q.W.E.R.U.  ",
"P.P.Y.W.!.!.c.H J H H H H J J J J J J J J c.!.!.!.!.!.Q.!.!.!.!.Q.!.!.!.Q.!.Q.).^.!.k.P P I I I I Y Y T T T T T Y M.Q.Q.E.Y.U.P.",
"P.U.Y.E.Q.Q.t.H H H H H H H H H H J J H J J  .W.!.Q.!.!.Q.Q.Q.!.!.!.Q.!.Q.!.Q.Q.R. .P P P I I I I Y Y Y Y T T T Y u.Q.Q.E.Y.U.P.",
"P.U.Y.E.Q.Q.Q H G F G G G G G H H H H H H H H W c.!.!.!.!.!.Q.Q.Q.!.Q.!.Q.Q.Q.c.^ P J P P P I P I I I Y T Y Y I I ' Q.Q.E.Y.U.s.",
"s.U.Y.E.Q.K.F F F F D F D G D F F G G F G G H G G W t.T.Q.Q.Q.!.Q.Q.Q.Q.T.u.W J H J J J J P P P P I I I I Y I I I P n.Q.R.R.U.s.",
"v.I.Y.R.Q.r.D D D F D D D D F D F D F F F F F F F F G F W ! t.t.t.t.! W G F G G H H H J H J J J P P P I P I P P P J ..W.R.Y.U.J.",
"s.U.Y.R.E.L D D D D D D D A D D D D D D D D D D D D D D D D D D D D D D F F F F F F F G G G H H J J J J P P P H J G K Y.R.Y.I.s.",
"d.U.Y.Y.p.A A A A D D A A A A A C A Z Z Z Z Z Z Z Z Z Z C Z Z Z Z Z Z A A A A D D D D F F F F G G G J J J H G G F F F ..R.U.I.v.",
"d.P.Y.I.S C Z C Z Z Z Z Z Z Z C C C C C C V V V V V V V V V V V V C V C C C C C C Z Z A D D D D F F F F F F F D D D D D v.U.U.j.",
"d.P.Y.! C V C C V V C V C V V V V V B B B B 7 7 7 7 B 7 w w B B B B B B B B V V V V V C C Z A A D D D D D D D D D A A D Q P.U.K.",
"f.P.a.B V V V B B B B B B B B B 7 B 7 7 6 6 6 6 6 4 6 6 6 6 6 6 6 6 7 7 7 7 7 7 B B B B V V V C C C Z Z A A Z C Z Z Z D D ~ Y.d.",
"  a.B w w w 7 7 6 6 6 6 6 e 6 e 6 6 4 4 3 3 3 5 5 3 3 3 4 3 3 4 4 4 4 4 4 6 6 6 6 6 6 w 7 w B B V V V V C C C C C C Z A D F r.  ",
"  e 4 e 6 6 6 4 4 3 3 4 4 3 3 3 3 3 5 5 1 1 < < < < , < , < < < 1 1 1 3 3 3 3 3 4 4 4 4 6 6 6 w 7 B B B B V V V V C Z A D F H   ",
"  3 3 3 3 3 3 3 1 < 1 1 < 1 1 < , < < , , , , : : : , : : , , , , , , , , , , 1 1 1 1 3 3 4 4 4 6 6 7 7 7 B B B V C Z A D F J   ",
"  < , < < , , , , , : , , , : , : : : : : : : : : 8 q 0 i p p d a a a y 0 q 9 , : , , , < < 3 3 3 3 4 6 6 6 B B V V C A D G G   ",
"    , , , : : : : : ; ; ; : : : : ; : ; : 9 y d v b b b b b b b b b b b b b v v c y 9 , , , , < 5 3 3 3 4 4 6 7 B V C A D G     ",
"    , : : : ; ; ; ; ; ; ; ; ; ; ; ; > y z b O.O.O.O.+.@.+.@.+.+.+.+.+.O.$.M M m b m b z i 2 : , , < < 5 3 4 4 7 w B C A D F     ",
"      : ; ; ; ; ; ; ; ; ; ; ; ; > p m $.O.#.%.=.j t #.=.-.-.-.-.-.-.-.-.-.$.t k #.+.O.M m m a 9 : : , < 1 3 4 6 7 B V Z D       ",
"        ; ; ; ; ; ; * ; ; ; ; 0 b O.$.<.-.;.:.=.x d.j 2.2.2.4.4.2.3.2.2.1.h d.x ;.-.=.<.@.$.O.b i : : , < 5 3 4 6 B V C         ",
"        ; ; ; ; ; ; ; ; : 2 z O.@.<.-.:.,.2.6.$.g.).g h.8.h.8.0.0.0.0.8.8.g ].N @.2.2.,.;.=.%.+.O.z 8 : , 1 3 4 6 7 B           ",
"          * * ; ; ; ; ; > z $.#.=.;.1.4.7.8.h.$.N s.t V.A.A.S.S.S.S.A.A.Z.r j.x @.q.8.9.6.1.:.=.#.+.f > : , 1 3 4 7             ",
"              ; ; ; ; ; 0 $.&.-.1.4.8.h.V.S.S.@.g x - F.G.G.G.G.H.H.F.F.D.% x - *.S.D.e.e.q.9.5.*.+.b q : : < 5 4               ",
"                ; ; ; ; p #.1.4.9.h.V.A.S.F.G.@.% = = F.H.H.G.H.H.H.H.H.S.$ = # -.G.H.F.F.S.e.e.3.*.b y : , < 5                 ",
"                    * ; s :.6.7.h.h.V.A.S.D.G.$.# % & H.H.H.H.H.H.H.H.H.F.@ % @ -.H.G.G.F.S.H.e.7.1.O.y , ,                     ",
"                        z 2.9.8.0.V.V.A.S.D.G.$.+ @ % H.H.H.H.H.H.H.H.F.D.o $ O -.H.G.F.F.S.e.e.8.3.%.d                         ",
"                          2.6.8.0.h.V.V.Z.D.D.&.. o % G.G.H.H.H.H.H.H.H.H.O o X >.H.H.F.F.e.e.e.7.1.%.                          ",
"                          2.4.7.8.q.h.V.A.D.F.6.. . r H.H.H.H.H.H.H.H.H.H.# o X q.F.F.D.F.H.e.e.9.>.%.                          ",
"                          >.4.6.7.0.q.V.V.D.D.D.& . =.H.G.G.G.G.H.H.H.F.H.+.. = F.F.D.S.e.e.e.7.5.*.+.                          ",
"                          ;.1.4.6.7.0.V.V.A.S.D.S.V.H.G.G.G.G.G.F.H.H.F.H.F.e.D.F.D.S.A.e.e.q.9.3.*.+.                          ",
"                            -.>.2.6.7.q.V.C.A.D.D.F.D.F.D.D.F.D.F.F.F.F.F.F.S.F.S.S.A.Z.e.e.7.5.>.%.                            ",
"                            #.&.;.1.5.8.q.V.Z.A.A.S.S.D.D.D.A.D.S.S.S.S.S.A.A.Z.Z.C.e.e.q.7.3.>.&.O.                            ",
"                              O.+.&.;.2.9.q.e.e.e.Z.e.Z.C.C.C.C.Z.C.C.C.C.C.e.e.e.q.0.7.5.1.*.#.M                               ",
"                                n b O.#.*.1.2.9.9.8.7.8.8.8.8.8.0.8.0.8.8.9.9.6.3.2.1.>.*.+.O.b                                 ",
"                                  j k n v O.O.#.&.*.*.*.-.;.;.>.>.-.-.-.*.*.%.%.#.+.O.O.b n n                                   ",
"                                      f f j l k n n v b b b b b b b b b b n n n k n k k k                                       ",
"                                            f f f f f f j f j j j j j j j j f f j j                                             ",
"                                                                                                                                "
};
