/* XPM */
static char *_eb6b220c92149abec65fe3a9bdf804dimbPQVUXfMICf4Hg[] = {
/* columns rows colors chars-per-pixel */
"64 64 208 2 ",
"   c None",
".  c #2BA22D",
"X  c #2FAE30",
"o  c #3AAD3B",
"O  c #30B330",
"+  c #30BB31",
"@  c #32BB31",
"#  c #34BD34",
"$  c #36BE36",
"%  c #38BB3A",
"&  c #3CBD3E",
"*  c #31C233",
"=  c #33C332",
"-  c #33C334",
";  c #34C335",
":  c #33C534",
">  c #34C635",
",  c #35CA35",
"<  c #35CB35",
"1  c #37CB36",
"2  c #35CE35",
"3  c #35CF35",
"4  c #35CF36",
"5  c #38CE34",
"6  c #3FC33E",
"7  c #37CC3A",
"8  c #3CCE39",
"9  c #3CCC3C",
"0  c #3CCF3D",
"q  c #34D036",
"w  c #37D036",
"e  c #36D237",
"r  c #36D337",
"t  c #37D536",
"y  c #38D036",
"u  c #39D137",
"i  c #37DD36",
"p  c #36D038",
"a  c #36D039",
"s  c #35D438",
"d  c #36D538",
"f  c #37D638",
"g  c #37D63A",
"h  c #38D138",
"j  c #39D539",
"k  c #39D639",
"l  c #38D53A",
"z  c #39D53A",
"x  c #3CD33C",
"c  c #3CD43D",
"v  c #37DA38",
"b  c #37DB39",
"n  c #36DC38",
"m  c #37DC38",
"M  c #38D939",
"N  c #3AD839",
"B  c #3BDA39",
"V  c #38DD38",
"C  c #39DD39",
"Z  c #3BDC39",
"A  c #38DF39",
"S  c #39DE3A",
"D  c #39DF3A",
"F  c #3ADE3B",
"G  c #3ADF3B",
"H  c #3DDE3D",
"J  c #3AE239",
"K  c #3AE13B",
"L  c #3AE33A",
"P  c #3AE43A",
"I  c #3BE43A",
"U  c #3BE43B",
"Y  c #3BE63B",
"T  c #3BE33C",
"R  c #3EE33E",
"E  c #3BE43C",
"W  c #3BE73D",
"Q  c #3DE43D",
"!  c #3CE63D",
"~  c #3CE73D",
"^  c #3CE73E",
"/  c #39E93A",
"(  c #3BEB3A",
")  c #3AEA3B",
"_  c #3BEB3B",
"`  c #3EE93B",
"'  c #3DEB3A",
"]  c #3AE83C",
"[  c #3BE83C",
"{  c #3BE93C",
"}  c #3BE93D",
"|  c #39EB3D",
" . c #3BEA3C",
".. c #3BEB3C",
"X. c #3AEA3F",
"o. c #3CE83C",
"O. c #3CE93C",
"+. c #3DE93C",
"@. c #3DEA3C",
"#. c #3DEB3C",
"$. c #3CEB3D",
"%. c #3DEB3D",
"&. c #3FEA3C",
"*. c #3CE93E",
"=. c #3CEB3E",
"-. c #3DEA3F",
";. c #3EEA3F",
":. c #3EEB3F",
">. c #3FEB3F",
",. c #3BEC3C",
"<. c #3BEC3D",
"1. c #3CEC3C",
"2. c #3CEC3D",
"3. c #3CED3D",
"4. c #3DED3D",
"5. c #3CEE3D",
"6. c #3EEF3D",
"7. c #3CEC3E",
"8. c #3CED3E",
"9. c #3DEE3E",
"0. c #3DEF3E",
"q. c #3EEF3E",
"w. c #3BF23D",
"e. c #3DF03C",
"r. c #3DF13D",
"t. c #3EF13D",
"y. c #3DF33D",
"u. c #3DF03E",
"i. c #3CF13E",
"p. c #3DF13E",
"a. c #3FF03F",
"s. c #3DF23E",
"d. c #3DF33F",
"f. c #3EF33E",
"g. c #3EF33F",
"h. c #3FF33F",
"j. c #3EF43E",
"k. c #3FF53E",
"l. c #3FF43F",
"z. c #3EF53F",
"x. c #3EF73E",
"c. c #3FF83F",
"v. c #3EF93F",
"b. c #3FF93F",
"n. c #3FFD3F",
"m. c #40FB3F",
"M. c #40FD3F",
"N. c #41FE3F",
"B. c #3DE641",
"V. c #39EB40",
"C. c #3EEA40",
"Z. c #3EEC40",
"A. c #3FEF41",
"S. c #3EF440",
"D. c #3FF540",
"F. c #3EF740",
"G. c #3EFB40",
"H. c #3FFC40",
"J. c #3FFD40",
"K. c #3FFD41",
"L. c #3EFE40",
"P. c #3FFE40",
"I. c #3FFF40",
"U. c #3FFE41",
"Y. c #3FFF41",
"T. c #40EC42",
"R. c #41ED43",
"E. c #40F241",
"W. c #41F341",
"Q. c #40F342",
"!. c #40F640",
"~. c #41F640",
"^. c #40F641",
"/. c #40F741",
"(. c #41F741",
"). c #42F641",
"_. c #40F442",
"`. c #41F442",
"'. c #41F940",
"]. c #40F841",
"[. c #40F941",
"{. c #40FA40",
"}. c #40FB40",
"|. c #40FA41",
" X c #41FA41",
".X c #40FB41",
"XX c #40FC40",
"oX c #41FC40",
"OX c #40FD40",
"+X c #41FD40",
"@X c #40FC41",
"#X c #41FC41",
"$X c #40FD41",
"%X c #41FD41",
"&X c #42FD41",
"*X c #40FE40",
"=X c #41FE40",
"-X c #40FF40",
";X c #40FE41",
":X c #41FE41",
">X c #40FF41",
",X c #41FF41",
"<X c #40FC42",
"1X c #41FC42",
"2X c #40FD42",
"3X c #41FC43",
"4X c #40FE42",
"5X c #42FE42",
/* pixels */
"                                                                                                                                ",
"                                                                                                                                ",
"                                                                                                                                ",
"                                                                                                                                ",
"                                                                                                                                ",
"                                                                                                                                ",
"                                                                                                                                ",
"                                                                                                                                ",
"                                                                                                                                ",
"                                                                                                                                ",
"                                                                                                                                ",
"                                                                                                                                ",
"                                                                                                                                ",
"                                                                                                                                ",
"                                                                                                                                ",
"                                                                                                                                ",
"                                                                                                                                ",
"                                                                                                                                ",
"                                                                                                                                ",
"      ;.2.2.| p     G ) ;.| +.8       ;.V.2.Z.5     G | ;.,.,.r       ' 2.          r +.g     _     6 H r       u | 2.s.        ",
"      :X:X:X:Xs.  $ @ U.).j.s.z     > U.}.s.m.h     O j.S.s.s.G     = :X}.}.}.Z   X $ ,.:X  Q U.u   & b G.;.    @ 2.:X:X:X:X    ",
"  g S.}.S.        +.:X:XE         U U.n.          v :X:X;.        Q U.U.:X  2.:X  , :Xn.:X  ,.:Xg   n.:Xn.s.    L | n.:X2.2.    ",
"  z :X:X}.}.:XB   2.n.:XU.U.:XQ   ;.U.U.  U }.    G U.U.N.N.:XL   U N.U.G.b ) :X  2 n.:X:X  ,.:Xr   U.n.N.w.      - :Xn.        ",
"          3 :Xn.  2.U.U.E b i     ) U.:X    C.:X  | U.:XS.E L ;   U U.N.n.  = U.  r :Xn.U.  s.:Xr   n.:XU.B       : n.N.G       ",
"  h S.S.S.G.:Xn.  s.:XN.|         2.:X:XR.  T.U.  ;.U.:Xw.        E U.N.n.  t U.  r :X:XU.z S.:X3   n.U.N.| |       n.:XL       ",
". s.N.:XU.:XU.n.  s.N.:X:X}.:XS.  2.:X:X:XG.:Xj.  2.U.n.          U :X:Xs.  t :X  , N.U.N.n.:X}.,   :XN.:X:X:X:X    :X:XG       ",
"  x :X}.}.W.Q     0 G.}.).G.).      S.).}.).S.    % S.).          o W.W.B     c     7 ).G.}.).0     ;.S.).S.).2.    R B.        ",
"                                                                                                                                ",
"                                                                                                                                ",
"                                                                                                                                ",
"                                                                                                                                ",
"                                                                                                                                ",
"                                                                                                                                ",
"                                                                                                                                ",
"                                                                                                                                ",
"                                                                                                                                ",
"                                                                                                                                ",
"                                                                                                                                ",
"                                                                                                                                ",
"                                                                                                                                ",
"                                                                                                                                ",
"                                                                                                                                ",
"                                                                                                                                ",
"                                                                                                                                ",
"                                                                                                                                ",
"                                                                                                                                ",
"                                                                                                                                ",
"                                                                                                                                ",
"                                                                                                                                ",
"                                                                                                                                ",
"                                                                                                                                ",
"                                                                                                                                ",
"                                                                                                                                ",
"                                                                                                                                ",
"                                                                                                                                ",
"                                                                                                                                ",
"                                                                                                                                ",
"                                                                                                                                ",
"                                                                                                                                ",
"                                                                                                                                ",
"                                                                                                                                ",
"                                                                                                                                ",
"                                                                                                                                ",
"                                                                                                                                "
};
