/* XPM */
static char *_173c7d3ed4e4d3c9fa8816f953b3c42FGhonKAZFhV2hUgu[] = {
/* columns rows colors chars-per-pixel */
"64 64 90 1 ",
"  c None",
". c #33822E",
"X c #39862F",
"o c #368630",
"O c #378932",
"+ c #3A8D33",
"@ c #3D9336",
"# c #379038",
"$ c #3D9639",
"% c #3E9B3C",
"& c #419C3B",
"* c #43A23E",
"= c #44A640",
"- c #46AA42",
"; c #48AE44",
": c #4DA74B",
"> c #4EAB49",
", c #53AC4E",
"< c #4BB547",
"1 c #4FB847",
"2 c #4DB549",
"3 c #51B74D",
"4 c #52B84E",
"5 c #54AC51",
"6 c #54B750",
"7 c #5AB257",
"8 c #56B952",
"9 c #59BB55",
"0 c #5EB25B",
"q c #5DBC5A",
"w c #61BD5E",
"e c #64BF60",
"r c #6EB36C",
"t c #77B275",
"y c #7EBB7A",
"u c #67C063",
"i c #6AC166",
"p c #6DC369",
"a c #72C56F",
"s c #73C570",
"d c #78C775",
"f c #7CC37A",
"g c #7CC97A",
"h c #82CB7F",
"j c #85BF83",
"k c #87C385",
"l c #85CC82",
"z c #88CE86",
"x c #8FC58E",
"c c #8BCF89",
"v c #8ED08B",
"b c #8FD18C",
"n c #8FD18D",
"m c #90D18E",
"M c #94D391",
"N c #95D393",
"B c #9DD69B",
"V c #A0D89E",
"C c #A3D4A1",
"Z c #A6DAA4",
"A c #A6DAA5",
"S c #A9DBA7",
"D c #ADDDAB",
"F c #AFDEAD",
"G c #B3E0B1",
"H c #B6E1B4",
"J c #B9E2B8",
"K c #BCE3BA",
"L c #C0E5BE",
"P c #C6DCC7",
"I c #C3E6C1",
"U c #C5E7C3",
"Y c #C7E4C6",
"T c #C7E8C6",
"R c #C9E2C8",
"E c #C9E9C8",
"W c #CCEACB",
"Q c #D1ECD0",
"! c #D9EFD8",
"~ c #E8EDE9",
"^ c #EAECEB",
"/ c #E2F3E1",
"( c #E7F3E7",
") c #E4F4E4",
"_ c #E9F6E8",
"` c #EBF7EB",
"' c #EFF8EF",
"] c #F2FAF2",
"[ c #F5FAF4",
"{ c #FEFEFE",
/* pixels */
"                                                                ",
"                                                                ",
"                                                                ",
"                                                                ",
"                                                                ",
"                                                                ",
"                                                                ",
"                                         961                    ",
"                                      4dZZ6<                    ",
"                                  q<<v__Mqu<                    ",
"                                 pK`'El1<<<                     ",
"   11                        2 8H]Un8<<1<<<                     ",
"   111                      <<4gg2<<<<<*<<<                     ",
"   111                    <<<<TVb<<<<<$<<1<                     ",
"    11                 <<<<<<<,<<<<<<&<<<<<                     ",
" 1     1               <<<<1<;@<<<<<*;<<<<<                     ",
" 11    11            <<<<<<<<%<<<<<<*<<<2<2                     ",
" 11    11           <<<=<<<<<@<<<<<@$@@<<<2                     ",
" 11               <<<<1%<<<<**1<<<&*1<<<<<                      ",
"                 <<1<<<%<<<<**<<<*&<<<<1<<                      ",
"                 <<<<<<&<<<<**11**1*%<<<<<                      ",
"               <<<<1<<*;1<<<&<<**&&*<<<*<<2                     ",
"              <<2<<<<<*<<<11&****<1<<<=<<<<                     ",
"              <<<<<<<1*<<<11***<<<<<<*<<<<                      ",
"             <1<<<<1<<*<<<<<**1<<<1<*;1<2-##   %%               ",
"            <<<<<<<<<<*1<1<<&<<<<<1**1<<2%#%%%%%*=:507;;        ",
"           39w<<<<<<<<*<<<<**1<<<<$*<<<<2$$$%%*=rykP^^Rf363e    ",
"           2l<<<*<<<<<*<<<<$<<<<*&<<<<<12;%%%%%%tjx-,fCY_{[Wm3  ",
"          <M3<<<%<<<<<*<1<**<&&&;<<<<<<;<%$%%%$o#=---;;<<1upzq<<",
"         3ay<<<<&<<<<<&1<<@$&<<<<<<1<<*%=$%%=+O===--;;<<<<<<q22 ",
"         2J&<<<;&<<<<<&1<$*<<<<<<<11**%<%%%%#+===--;<<<&*<<2<<  ",
"        2ck*<<<**<<<<<****11<<<<<<1*@*<<=%*$o==---;<=&&<<<<<    ",
"       4<Q*<<<1**<<<<<*&&<<<<<<1<<&@<<1<=%*o*=**<***;*1<<111    ",
"       <gD&<<<1**<<<<11&<<<<<<<*%$*<<<1*%%##=-*=*$&*#-11<<1     ",
"       <La*<<<<**<<1<<**<<<<<*@*<<<<<<<***O=*@$****1<%-<<<<     ",
"       4)<*<<<<**<<11*&1<<;&@-<<<<<<<<=***@%%*$@***1<<<<<<      ",
"      <gK<&<1<<**1<<;&**&&&;<<<<<<<<<;*%$$*<<**<*1111<<<1       ",
"      <Sm<*<<<<&*1<<+*&*-<<<<<<1<<<<<=##*****<<<111*<<<<        ",
"      <Wi1*<<<<&<<<**<<<<<<<<<<<**<<*.$*-**<<<1<1<;=-<<<        ",
"      </21*<<<<**<*@<<<<<<<<<<<;%1<=+$+##***<<1*=*-<<<<<        ",
"      <!<<*1<<<**<+<<<1<<<<<<<;+<1<=*;-=*=%%*%**<<<<<<1         ",
"      8I<<*1<<<<@@*<<<<<<<<<<-+<<**=**--<;*<<<<<<<<1<1          ",
"      wD<<*<<<<<X&<<<<<<<<<;@%<<<**=*<*<;;1<<1<11<<<            ",
"      qBg<&<<<<*@<<<<1<<<;$@;<<;***=**<*;<<<<<<1<<<<            ",
"      8mi1$1<<*@<<1<<<<&#$-<<2<#O###$%**<<*1111**;<<            ",
"      <lGi**<<+<<1**$@@*;<<<<;%***=-***$$$@$$%$$=<              ",
"      2pGi*&<&$&&@%**<<<2<<<=*%===--*<<<<<<<<<<<<               ",
"       1111&*@<<<<111<<<2<-*%*===--;*1<<<<<<<1<<                ",
"        <<<*@;<<<<<<<<2<-**%**==--;;<<<<<<<<<<<                 ",
"         <<;@<<<<<<<<<%.#%%*====-;;<<<;<<<<<<                   ",
"          <**<<<-==%%$$$O..O+&*=--**@@-<<<<1                    ",
"          <<<;=$##$$$%%%%=%*&$+#+@&*<<<<<                       ",
"           <#      $%%%%=*===;;;<;<<<<<                         ",
"          ;<         %**%==;=;;<<<<<                            ",
"          <<                                                    ",
"           <                                                    ",
"                                                        11      ",
"                                                        11      ",
"                                                        1       ",
"                                                                ",
"                                                                ",
"                                                                ",
"                                                                ",
"                                                                "
};
