/* XPM */
static char * leafy2_xpm[] = {
"64 64 227 2",
"  	c None",
". 	c #4FB847",
"+ 	c #4BB547",
"@ 	c #4DB549",
"# 	c #66BC5C",
"$ 	c #67BC58",
"% 	c #65BC57",
"& 	c #B7CE84",
"* 	c #EFE08A",
"= 	c #F3DD66",
"- 	c #F5DA52",
"; 	c #F5D44D",
"> 	c #F4D236",
", 	c #F2CF30",
"' 	c #F0CB39",
") 	c #F1E8B3",
"! 	c #F1E28D",
"~ 	c #FAE271",
"{ 	c #FEDF53",
"] 	c #FFDC3C",
"^ 	c #FFD92D",
"/ 	c #FFD520",
"( 	c #FFD315",
"_ 	c #FED013",
": 	c #FBC92A",
"< 	c #F8CD75",
"[ 	c #F1E990",
"} 	c #F2E375",
"| 	c #FAE16D",
"1 	c #FFDF67",
"2 	c #FFDD55",
"3 	c #FFDB40",
"4 	c #FFD53C",
"5 	c #FFD32C",
"6 	c #FFD21D",
"7 	c #FBC921",
"8 	c #F2C53F",
"9 	c #DEC55E",
"0 	c #E4DA8A",
"a 	c #EAE479",
"b 	c #F3E96C",
"c 	c #F4E06B",
"d 	c #FBE069",
"e 	c #FFDF71",
"f 	c #FFDC65",
"g 	c #FFDB4B",
"h 	c #FFD545",
"i 	c #FFD431",
"j 	c #FFD41C",
"k 	c #FFC611",
"l 	c #F0C308",
"m 	c #E1C717",
"n 	c #D8CD4A",
"o 	c #F7DFA4",
"p 	c #EFDF66",
"q 	c #FBE768",
"r 	c #F8DC6E",
"s 	c #FBDE64",
"t 	c #FFDE69",
"u 	c #FFD962",
"v 	c #FFD84E",
"w 	c #FED737",
"x 	c #FDD622",
"y 	c #FFD415",
"z 	c #FFCD0F",
"A 	c #F8C802",
"B 	c #E5C700",
"C 	c #CEBD19",
"D 	c #D8C680",
"E 	c #FEE391",
"F 	c #F5DA63",
"G 	c #FEE36D",
"H 	c #FCDB6D",
"I 	c #FDDD5E",
"J 	c #FFDE5A",
"K 	c #FFDA55",
"L 	c #FFD74B",
"M 	c #FDD829",
"N 	c #FAD716",
"O 	c #FED211",
"P 	c #FFCC0D",
"Q 	c #FBC300",
"R 	c #E6C000",
"S 	c #CFB602",
"T 	c #C1AA58",
"U 	c #71BE4F",
"V 	c #F9DA5D",
"W 	c #F6D162",
"X 	c #FEDA6A",
"Y 	c #FFDE5E",
"Z 	c #FEDD55",
"` 	c #FEDC48",
" .	c #FFDB45",
"..	c #FFD742",
"+.	c #FCD728",
"@.	c #FBD51C",
"#.	c #FED117",
"$.	c #FFCE0E",
"%.	c #F7BE01",
"&.	c #EEC003",
"*.	c #D2B000",
"=.	c #B99C3F",
"-.	c #74BD48",
";.	c #E6D335",
">.	c #FDD361",
",.	c #FFDC61",
"'.	c #FFDE3B",
").	c #FFDE46",
"!.	c #FFDB3E",
"~.	c #FEDA35",
"{.	c #FDD635",
"].	c #FCD231",
"^.	c #FACF2A",
"/.	c #FCCD1E",
"(.	c #FECB0E",
"_.	c #F4BC0D",
":.	c #E8B50F",
"<.	c #D6B00F",
"[.	c #BE9F40",
"}.	c #75BD47",
"|.	c #E7D12F",
"1.	c #FFD552",
"2.	c #FFDD4B",
"3.	c #FBDC22",
"4.	c #FEDD34",
"5.	c #FDDA31",
"6.	c #FDD82A",
"7.	c #FCD527",
"8.	c #FBCD2F",
"9.	c #FACA29",
"0.	c #F9CA1A",
"a.	c #F2C40A",
"b.	c #EAB90F",
"c.	c #E5B615",
"d.	c #CDA50F",
"e.	c #BA9A46",
"f.	c #7CBD4E",
"g.	c #EDD04A",
"h.	c #FDD237",
"i.	c #FCD82C",
"j.	c #F8D719",
"k.	c #FADB22",
"l.	c #FAD824",
"m.	c #FAD521",
"n.	c #FBD21B",
"o.	c #FBCC1C",
"p.	c #FAC914",
"q.	c #F8C90B",
"r.	c #E4BD03",
"s.	c #DDB402",
"t.	c #DEB409",
"u.	c #C09905",
"v.	c #BB9857",
"w.	c #FFD072",
"x.	c #F6CD26",
"y.	c #F5D116",
"z.	c #F5D11E",
"A.	c #F7D811",
"B.	c #F8D616",
"C.	c #FAD31B",
"D.	c #FAD014",
"E.	c #FACE03",
"F.	c #F9CC00",
"G.	c #F4C900",
"H.	c #DCBB00",
"I.	c #D1B100",
"J.	c #CAA700",
"K.	c #BD9911",
"L.	c #C5A46F",
"M.	c #EAC642",
"N.	c #F0CE09",
"O.	c #F5CE07",
"P.	c #FCD102",
"Q.	c #FECC0B",
"R.	c #FFCC19",
"S.	c #FED015",
"T.	c #F8CF04",
"U.	c #E9C500",
"V.	c #DDBB00",
"W.	c #D7B800",
"X.	c #C5A600",
"Y.	c #BEA10A",
"Z.	c #B19630",
"`.	c #E4CEA1",
" +	c #E5C86E",
".+	c #EDCF2E",
"++	c #F9D30C",
"@+	c #FECF07",
"#+	c #FCC40E",
"$+	c #FCC015",
"%+	c #F3BE0E",
"&+	c #E5BD02",
"*+	c #DABA00",
"=+	c #D4B800",
"-+	c #CDAC03",
";+	c #BFA106",
">+	c #B39828",
",+	c #C5AF6B",
"'+	c #6BBB57",
")+	c #D9C15F",
"!+	c #D5B52B",
"~+	c #EAC01A",
"{+	c #EBB90F",
"]+	c #E9B30B",
"^+	c #E1AF0A",
"/+	c #D6AB04",
"(+	c #CCAA01",
"_+	c #C6A901",
":+	c #C1A215",
"<+	c #AD9124",
"[+	c #B59D4C",
"}+	c #DBC46C",
"|+	c #CEB22F",
"1+	c #D2B106",
"2+	c #D6B102",
"3+	c #D1AB02",
"4+	c #C9A502",
"5+	c #BFA301",
"6+	c #B69E04",
"7+	c #A58B37",
"8+	c #C1A769",
"9+	c #C8AF3B",
"0+	c #C4A72D",
"a+	c #BD9C2E",
"b+	c #B99933",
"c+	c #BAA038",
"d+	c #BAA645",
"                                                                                          . .                                   ",
"                                                                                          . . .                                 ",
"                                                                                          . . .                                 ",
"                                                                                            . .                                 ",
"                                                                                      .           .                             ",
"                                                                                      . .         . .                           ",
"                                      . .                                             . .         . .                           ",
"                                      . . .                                           . .                                       ",
"                                      . . .                                                                                     ",
"                                        . .                                                                                     ",
"                                  .           .                                                                                 ",
"      . .                         . .         . .                                                                               ",
"      . . .                       . .         . .                                                                               ",
"      . . .                       . .                                                                                           ",
"        . .                                                                                                                     ",
"  .           .                                                                                       . .                       ",
"  . .         . .                                         . .                                         . . .                     ",
"  . .         . .                                         . . .                                       . . .                     ",
"  . .                               +                     . . .                                         . .                     ",
"                                  + +                       . .                                   .           .                 ",
"                                  + + +               .           .                               . .         . .               ",
"                              + + + + .               . .         . .                             . .         . .               ",
"                            + + @ + + +               . #         $ %                             . .                           ",
"                                  +                   & * = - ; > , '                                                           ",
"                                                    ) ! ~ { ] ^ / ( _ : <                                                       ",
"                                                    [ } | 1 2 3 4 5 6 7 8 9 0                                                   ",
"                                                  a b c d e f g h i j k l m n                                                   ",
"                                                o p q r s t u v w x y z A B C D                                                 ",
"                                                E F G H I J K L M N O P Q R S T                                                 ",
"                                            . U V W X Y Z `  ...+.@.#.$.%.&.*.=.                                                ",
"                                            . -.;.>.,.'.).!.~.{.].^./.(._.:.<.[.                                                ",
"                                            . }.|.1.2.3.4.5.6.7.8.9.0.a.b.c.d.e.                                                ",
"                                              f.g.h.i.j.k.l.m.n.o.p.q.r.s.t.u.v.                                                ",
"                                        .       w.x.y.z.A.B.C.D.E.F.G.H.I.J.K.L.                                                ",
"                                        . .       M.N.O.P.Q.R.S.T.U.V.W.X.Y.Z.`.                                                ",
"                                        . .        +.+++@+#+$+%+&+*+=+-+;+>+,+'+.                                               ",
"                                        . .         )+!+~+{+]+^+/+(+_+:+<+[+  . . .                                             ",
"                                                      }+|+1+2+3+4+5+6+7+8+    . . .                                             ",
"                                                          9+0+a+b+c+d+          . .                                             ",
"                                                                          .           .                                         ",
"                                                                          . .         . .                                       ",
"                                                                          . .         . .                                       ",
"                                                                          . .                                                   ",
"                                                                                                                                ",
"                                                                                                                . .             ",
"                                                                                                                . . .           ",
"                                                                                                                . . .           ",
"                              . .                                                                                 . .           ",
"                              . . .                                                                         .           .       ",
"                              . . .                                                                         . .         . .     ",
"                                . .                                                                         . .         . .     ",
"                          .           .                                                                     . .                 ",
"                          . .         . .                                                                                       ",
"                          . .         . .                                                                                       ",
"                          . .                                                                                                   ",
"                                                                                                                                ",
"                                                                                                                . .             ",
"                                                                                                                . .             ",
"                                                                                                                .               ",
"                                                                                                                                ",
"                                                                                                                                ",
"                                                                                                                                ",
"                                                                                                                                ",
"                                                                                                                                "};
