/* XPM */
static char *_9625dee8e464f28e8f1e4bf0be01ddbMEByWlsDhvgAwgsU[] = {
/* columns rows colors chars-per-pixel */
"64 64 245 2 ",
"   c #181815",
".  c #281B13",
"X  c #27231A",
"o  c #342618",
"O  c #362C29",
"+  c #49311E",
"@  c #4B3C2A",
"#  c #57392A",
"$  c #49322F",
"%  c #792727",
"&  c #783831",
"*  c #742914",
"=  c #54442A",
"-  c #544B39",
";  c #685036",
":  c #75643A",
">  c #493E42",
",  c #584A45",
"<  c #785D47",
"1  c #745050",
"2  c #736549",
"3  c #4E5478",
"4  c #787179",
"5  c #536277",
"6  c #99262D",
"7  c #973739",
"8  c #90322F",
"9  c #A72A34",
"0  c #B32A32",
"q  c #B92736",
"w  c #A63638",
"e  c #B7353A",
"r  c #AE2B2D",
"t  c #8B1D20",
"y  c #C22635",
"u  c #C61D32",
"i  c #964736",
"p  c #9B573E",
"a  c #8C4B32",
"s  c #A74839",
"d  c #B34639",
"f  c #A4583C",
"g  c #876A39",
"h  c #95683B",
"j  c #8F723A",
"k  c #96763D",
"l  c #8C672B",
"z  c #AD7D3A",
"x  c #873940",
"c  c #AE3943",
"v  c #92554A",
"b  c #A64747",
"n  c #B74A47",
"m  c #A55E45",
"M  c #AC5655",
"N  c #97674A",
"B  c #8A7546",
"V  c #967A45",
"C  c #8E6D52",
"Z  c #A66943",
"A  c #A4794A",
"S  c #A57957",
"D  c #B87755",
"F  c #B46953",
"G  c #987572",
"H  c #937169",
"J  c #B1716A",
"K  c #C67561",
"L  c #9E823D",
"P  c #AF863A",
"I  c #D29D3D",
"U  c #D7AB3C",
"Y  c #EEB53B",
"T  c #9C864A",
"R  c #9A8557",
"E  c #AA8647",
"W  c #B89247",
"Q  c #AA8859",
"!  c #B88956",
"~  c #B79658",
"^  c #B18C48",
"/  c #978676",
"(  c #958A71",
")  c #A88866",
"_  c #B68B68",
"`  c #A99363",
"'  c #BA9769",
"]  c #B68A75",
"[  c #AA947B",
"{  c #B99677",
"}  c #AA8977",
"|  c #B7A66F",
" . c #B9A05D",
".. c #C69845",
"X. c #C68A5C",
"o. c #C6995B",
"O. c #D09852",
"+. c #C8A244",
"@. c #D9AA48",
"#. c #CAA559",
"$. c #D6A95C",
"%. c #D5B555",
"&. c #E1AC4B",
"*. c #E8B74A",
"=. c #E8BA58",
"-. c #F7B951",
";. c #F0AF4E",
":. c #C88B67",
">. c #C89867",
",. c #C58875",
"<. c #C69A78",
"1. c #D59877",
"2. c #D4916D",
"3. c #CAA668",
"4. c #D5A866",
"5. c #CCB266",
"6. c #DAB768",
"7. c #C9A778",
"8. c #D4A979",
"9. c #CCB37A",
"0. c #D8B778",
"q. c #E3BD6A",
"w. c #E4B767",
"e. c #E5BB78",
"r. c #E7AC77",
"t. c #EFC351",
"y. c #D5C377",
"u. c #E6C273",
"i. c #D9C15F",
"p. c #3A5B93",
"a. c #3D6B85",
"s. c #4C5F97",
"d. c #546895",
"f. c #66708F",
"g. c #4965A7",
"h. c #536DAD",
"j. c #556DB7",
"k. c #5778B9",
"l. c #4B6DB6",
"z. c #6978AD",
"x. c #5879C6",
"c. c #597CD7",
"v. c #627CD4",
"b. c #637FE3",
"n. c #937D80",
"m. c #7C8597",
"M. c #7286A1",
"N. c #5A84D8",
"B. c #5A84CA",
"V. c #6886CA",
"C. c #748AC6",
"Z. c #6383D8",
"A. c #758ED1",
"S. c #6486E4",
"D. c #998983",
"F. c #989391",
"G. c #A89A8A",
"H. c #B99C86",
"J. c #B1918F",
"K. c #B9A489",
"L. c #A8A198",
"P. c #B9A897",
"I. c #AEA38E",
"U. c #8E94AD",
"Y. c #95A2B4",
"T. c #B5ACA4",
"R. c #B3AFAC",
"E. c #C48A84",
"W. c #C89A87",
"Q. c #D79B88",
"!. c #D58F8F",
"~. c #EA9894",
"^. c #CCAB8D",
"/. c #C8A687",
"(. c #D4A584",
"). c #D9AB82",
"_. c #D5AA87",
"`. c #CBB588",
"'. c #DCB384",
"]. c #DCB28B",
"[. c #D7B789",
"{. c #C9AB94",
"}. c #DAA893",
"|. c #C8B498",
" X c #DDBA94",
".X c #D8B698",
"XX c #E6A988",
"oX c #EBBC8C",
"OX c #E5B788",
"+X c #F2BB8D",
"@X c #E3A990",
"#X c #EAB392",
"$X c #ECBC94",
"%X c #E4B896",
"&X c #F3B895",
"*X c #F5A09B",
"=X c #C6B8A8",
"-X c #D6BDA3",
";X c #CCB4B3",
":X c #F0B4A3",
">X c #D4C48E",
",X c #EDC095",
"<X c #F4C28F",
"1X c #D9C4AB",
"2X c #CBC4BA",
"3X c #D8C8B7",
"4X c #D3CBB2",
"5X c #E3C6A7",
"6X c #E1CCB9",
"7X c #E6D7B8",
"8X c #9EB0D2",
"9X c #BACDDF",
"0X c #D3CAC2",
"qX c #DAD6C9",
"wX c #D9D6D4",
"eX c #C8CACD",
"rX c #E5D8C9",
"tX c #E7DBD6",
"yX c #EED7CD",
"uX c #DEE0DF",
"iX c #E8E4D9",
"pX c #F5EADE",
"aX c #FEF6DF",
"sX c #DADBE7",
"dX c #E7DFE2",
"fX c #DEE5E8",
"gX c #E8E8E6",
"hX c #F3ECEA",
"jX c #F7E9E5",
"kX c #F4F1EC",
"lX c #F9F4EA",
"zX c #F5ECF5",
"xX c #F5F4F3",
"cX c #FBF5F3",
"vX c #F5FCF5",
"bX c #FCFBF5",
"nX c #F3F3FB",
"mX c #FCF5FB",
"MX c #F6FCFC",
"NX c #FEFFFF",
"BX c white",
"VX c #FFFEFF",
"CX c #FEFEFE",
"ZX c #FEFFFE",
"AX c #E9F4F4",
/* pixels */
"BXBXBXBXBXBXBXBXBXMXCXCXCXCXCXCXBXvXBXbXBXCXBXCXBXCXBXBXMXMXbXbXCXbXCXBXBXBXBXCXBXCXCXCXCXMXCXMXBXBXMXBXMXBXCXbXBXBXBXBXBXBXBXBX",
"BXBXBXBXBXBXBXBXMXBXBXBXCXBXCXCXBXmXBXCXCXCXBXBXbXBXCXmXpXrXiXqXqXqXrXtXiXCXMXMXBXCXCXCXCXBXCXCXCXCXCXBXCXBXBXCXBXBXBXBXBXBXBXBX",
"BXBXBXBXBXBXBXBXBXBXBXBXBXBXCXCXCXmXBXBXBXCXcXbXBXbXtX3X>Xy.u.>Xu.u.oX>X X3XtXmXMXMXMXBXCXCXCXCXCXbXCXbXBXBXBXMXBXBXBXBXBXBXBXBX",
"BXBXBXBXBXBXBXBXBXBXCXCXBXBXBXMXCXCXBXBXMXBXBXBXbX7X>X6.6.q.q.w.q.=.=.q.u.0.>X5XhXBXBXBXCXcXCXCXBXCXCXCXCXBXBXBXBXBXBXBXBXBXBXBX",
"BXBXBXBXBXBXBXBXBXCXBXBXBXCXCXmXBXBXBXCXMXBXBXCXrX>X6.6.q.0.6.=.u.q.q.q.6.6.0.0.3XhXbXBXCXMXCXCXMXBXBXBXBXCXCXBXBXBXBXBXBXBXBXBX",
"BXBXBXBXBXBXBXBXCXBXBXBXBXCXCXCXbXbXlXiXpXkXbXgX%X0.w.%.$.5.6.=.w.q.w.w.6.6.6.e.'.7XlXBXMXCXxXbXMXMXBXBXBXBXCXBXBXBXBXBXBXBXBXBX",
"BXBXBXBXBXBXBXBXCXCXMXBXBXbXbXjXqX6X-X^..X3XaX0Xi.i.w.$.#.4.>.X.X.D ! $.6.#.%.5.6.>XrXCXBXkXyXrXyXiXcXBXBXBXBXBXBXBXBXBXBXBXBXBX",
"BXBXBXBXBXBXBXBXCXBXBXBXBXCXpX2X.X.X_.8.%X.X7XI.0.6.8.X.Z s d n d d d s m D >.3.t.5.{.hXBXqX6X^..X1XiXlXMXMXBXBXBXBXBXBXBXBXBXBX",
"BXBXBXBXBXBXBXBXCXBXbXCXBXMX6X$X).%X_.).]..XK.` 4.3.D Z f D X.>.o.8.X.X.D f Z ) 6.6.>.wXnX-X8.'.).].-X3XhXMXBXbXBXBXBXBXBXBXBXBX",
"BXBXBXBXBXBXBXBXCXMXBXCXBXBX6X,X_.%X7.].<.^._ Q 3.! o.4.4.o.#.4.#.%.$.$.6.r.4.5.5.6.~ G.3X|._.^.7.%X]..X3XCXBXBXBXBXBXBXBXBXBXBX",
"BXBXBXBXBXBXBXBXCXMXBXbXMXmX3X].8.7.7.' 7..X X' 7.~ ~ ~ T V V h j k k E L ^ ~ ^ 7.4.W Q ^.`./.] .X#XOX.X1XlXBXMXBXBXBXBXBXBXBXBX",
"BXBXBXBXBXBXBXBXCXCXBXCXBXBXtX{.'.%X$X_.<./.7.~ E j g : ; 2 - + H C # - : g T j E W 5.0.9.3.<.] 1.<.].{.rXbXMXMXBXBXBXBXBXBXBXBX",
"BXBXBXBXBXBXBXBXCXMXBXCXBXMXbX{.8.&X$X#X%X{ j T k B - o + { H $ } /.< . X = : j j L P 3.3.8.7.'.%X^.|.;XbXCXmXBXBXBXBXBXBXBXBXBX",
"BXBXBXBXBXBXBXBXCXMXBXbXCXmXBX=X] _ ).$X7.V j V V @   X C XX) = (.XX_ $ > @ o - j B l k ~ 9.8.OX{ W.qXMXMXBXBXbXBXBXBXBXBXBXBXBX",
"BXBXBXBXBXBXBXBXbXBXBXCXBXBXBXhX|._._ 8.).Q : V ; X   - <.&X(.: { oXXX< , G @ O @ 2 T A A ~ 3.8.{ lXCXnXMXBXCXCXBXBXBXBXBXBXBXBX",
"BXBXBXBXBXBXBXBXCXBXBXbXCXMXxXCX3X{ ' <.XXQ T ; X X O / (.#X%XH H.oXe.7.< { 2 1 o - 2 l h Q [._ P.pXcXBXBXCXbXCXBXBXBXBXBXBXBXBX",
"BXBXBXBXBXBXBXBXBXCXbXCXBXBXBXCXpX9.T V @X{ V @   , < }.]./.r.r.).+X&X_.C H./.] # X 2 j A <.).$.9.rXvXCXMXbXBXBXBXBXBXBXBXBXBXBX",
"BXBXBXBXBXBXBXBXBXCXCXBXBXBXCXbX1X8.T k '._.V - O H <.#X1.<.XX+XOXoXoX%XT.3X4X{.-   # N ! ].7.4. .1XkXMXBXCXBXCXBXBXBXBXBXBXBXBX",
"BXBXBXBXBXBXBXBXBXCXbXBXBXmXbXgX>X5.T j ~ '.S , $ ] #X1.i a D &X&X+X$X5XtXdXhX0X2 O # m !  X! 0.5.`.lXBXbXBXBXbXBXBXBXBXBXBXBXBX",
"BXBXBXBXBXBXBXBXBXBXMXMXBXCXbXqX9.#.V A S .XW.n., W.%X:.8 * S #XOX7. XrXiXwXgXwX} , & 7 D }.! 5.0.3.hXBXvXCXBXCXBXBXBXBXBXBXBXBX",
"BXBXBXBXBXBXBXBXCXBXBXCXBXBXvX2X#.W N v a v v M @ W.%XOX1.2.8.oXoX8.OX.X-X3X3X{..X1 8 c !.,.p ~ 3. .gXmXbXCXBXCXBXBXBXBXBXBXBXBX",
"BXBXBXBXBXBXBXBXCXBXCXbXBXBXbX0Xq.o.g % % 1 8 x v { 7..X}.@X-X%X:X%X$X.XP.P.H._.K.S c 9 i p a p 9.`.jXCXbXBXBXCXBXBXBXBXBXBXBXBX",
"BXBXBXBXBXBXBXBXCXCXCXCXBXBXbXiX0.4.g * % x 6 0 H K.{.rXgXdXwXwX0X3X3X0XwXuXqX=X{ J c 6 i z >.8.9.3XlXMXCXCXBXBXBXBXBXBXBXBXBXBX",
"BXBXBXBXBXBXBXBXBXCXBXCXMXBXCXlX`.8.E a t 7 r q n ,.}.T.F.F.D./ n.G G D.F.L.=XK./.M 0 n :. .6.| 9.dXCXCXMXbXBXBXBXBXBXBXBXBXBXBX",
"BXBXBXBXBXBXBXBXBXBXBXBXBXBXBXBX4X{ ` Q V h i 7 e s ) { 2 v J !.!.!.!.!.J v G [ A e w _ #.6.0.-XgXxXBXBXBXBXBXMXBXBXBXBXBXBXBXBX",
"BXBXBXBXBXBXBXBXBXBXBXBXBXBXBXBXCX2XG.V R ' D f w w Z ] K.] ~.~.*X*X*X~.!.J.] S s w :.3.5.9.1XhXmXCXBXCXCXBXBXBXBXBXBXBXBXBXBXBX",
"BXBXBXBXBXBXBXBXBXBXBXBXBXBXBXBXMXCXtXI.( R C ) a r w f ] Q.(.Q.Q.Q.Q.Q.(.' N 8 0 p 7.7.|.jXCXCXBXBXBXCXCXBXBXBXBXBXBXBXBXBXBXBX",
"BXBXBXBXBXBXBXBXBXBXBXBXBXBXBXBXBXCXCXbXkX2X/ / v w r w i N ) _ H.E.<._ N f 8 0 w S |.yXcXMXCXCXBXBXBXCXBXBXBXmXBXBXBXBXBXBXBXBX",
"BXBXBXBXBXBXBXBXBXBXBXBXBXBXBXBXvXCXBXmXMXBXxXtXR.1 6 u c v C ] W.Q.W.S m 9 q q H yXbXmXMXMXBXmXMXBXBXBXBXBXBXBXBXBXBXBXBXBXBXBX",
"BXBXBXBXBXBXBXBXBXBXBXBXBXBXBXBXBXCXBXBXMXCXMXbXmXL.x q q J ,.Q.~.~.W.{ F y q 7 eXMXCXCXvXbXCXCXBXBXBXBXCXCXBXBXBXBXBXBXBXBXBXBX",
"BXBXBXBXBXBXBXBXBXBXBXBXBXBXBXBXCXCXBXBXBXBXCXbXMXtXc q 0 F &X#X#X#X]./.b q 9 M AXzXBXBXBXCXBXCXBXBXBXBXCXBXBXBXBXBXBXBXBXBXBXBX",
"BXBXBXBXBXBXBXBXBXBXBXBXBXBXBXBXCXbXCXbXBXBXCXBXcXE.9 q q F _.,X<X'.#X:.c u e M rXCXMXnXmXCXMXbXBXBXBXBXBXBXBXBXBXBXBXBXBXBXBXBX",
"BXBXBXBXBXBXBXBXBXBXBXBXBXBXBXBXBXMXbXCXBXMXCXCXkXw y y s ' { Q.OX(.W.E.b u u n eXmXmXMXBXBXMXBXBXBXBXBXBXBXBXBXBXBXBXBXBXBXBXBX",
"BXBXBXBXBXBXBXBXBXBXBXBXBXBXBXBXBXMXbXCXCXMXCXcX;Xe q e K  X/.,.W.W.H._.J e q d ;XmXCXMXCXBXmXBXBXBXBXBXBXBXBXBXBXBXBXBXBXBXBXBX",
"BXBXBXBXBXBXBXBXBXBXBXBXBXBXBXBXCXBXmXCXCXMXBXCXJ.q y e ,.).7.W.W.W.1.,X2.e y e E.nXMXCXBXCXbXBXBXBXBXBXBXBXBXBXBXBXBXBXBXBXBXBX",
"BXBXBXBXBXBXBXBXBXBXBXBXBXBXBXBXBXMXBXCXBXMXmXmXM y 0 s Q.$X}.<.J.E.,.OXXXn 0 q J gXvXCXCXCXBXBXBXBXBXBXBXBXBXBXBXBXBXBXBXBXBXBX",
"BXBXBXBXBXBXBXBXBXBXBXBXBXBXBXBXBXCXCXCXmXMXBX;Xw q r F &X#X8.' ].#X7.{ %X,.b 6 c 0XMXCXCXCXBXMXBXBXBXBXBXBXBXBXBXBXBXBXBXBXBXBX",
"BXBXBXBXBXBXBXBXBXBXBXBXBXBXBXBXBXmXCXBXCXBXcXH 9 9 f 2.&X<.2.%X<X+X#X{ _.].,.7 c n.mXmXBXBXbXCXBXBXBXBXBXBXBXBXBXBXBXBXBXBXBXBX",
"BXBXBXBXBXBXBXBXBXBXBXBXBXBXBXBXCXCXbXBXCXmX0X& 8 c J 9.XX].].oXe.r.<X_.1.@X<.i 6 M qXvXBXBXvXCXBXBXBXBXBXBXBXBXBXBXBXBXBXBXBXBX",
"BXBXBXBXBXBXBXBXBXBXBXBXBXBXBXBXCXCXCXMXmXzXG 8 t 8 } [.r.7.' W ! >. . .>.<.) v 9 b J.mXBXCXCXCXBXBXBXBXBXBXBXBXBXBXBXBXBXBXBXBX",
"BXBXBXBXBXBXBXBXBXBXBXBXBXBXBXBXCXBXMXBXBXjXb 6 % ; z @.;.;.;.%.%.@.#.O.+.3.P @.z 7 J jXvXBXBXCXBXBXBXBXBXBXBXBXBXBXBXBXBXBXBXBX",
"BXBXBXBXBXBXBXBXBXBXBXBXBXBXBXBXCXBXMXMXvXtXH % & l ..@.U U *.@.#.I ..I Y =.I %.O.N J.jXBXMXnXBXBXBXBXBXBXBXBXBXBXBXBXBXBXBXBXBX",
"BXBXBXBXBXBXBXBXBXBXBXBXBXBXBXBXbXBXBXCXMXnX;XJ.C ^ &.@.@.@.@.O.+.U #.#. .~ ..*.o.K.dXmXbXvXMXmXBXBXBXBXBXBXBXBXBXBXBXBXBXBXBXBX",
"BXBXBXBXBXBXBXBXBXBXBXBXBXBXBXBXBXBXCXBXBXCXCXdXD.Q ~ W A R ` _ T H 4 4 f.4 ) $.#.1XCXCXCXCXBXCXBXBXBXBXBXBXBXBXBXBXBXBXBXBXBXBX",
"BXBXBXBXBXBXBXBXBXBXBXBXBXBXBXBXMXBXBXBXCXCXCXCXY.d.3 3 3 s.z.3 3 s.h.l.x.z.( ..#.9.pXMXBXBXCXCXBXBXBXBXBXBXBXBXBXBXBXBXBXBXBXBX",
"BXBXBXBXBXBXBXBXBXBXBXBXBXBXBXBXCXBXCXBXCXCXCXMXM.d.h.g.p.l.l.a.p.h.x.x.k.d.( W W o.1XkXCXCXCXMXBXBXBXBXBXBXBXBXBXBXBXBXBXBXBXBX",
"BXBXBXBXBXBXBXBXBXBXBXBXBXBXBXBXBXBXBXCXmXCXCXzXz.h.x.x.x.v.j.s.p.k.Z.N.S.z./ O.P W 3.7XCXBXBXnXBXBXBXBXBXBXBXBXBXBXBXBXBXBXBXBX",
"BXBXBXBXBXBXBXBXBXBXBXBXBXBXBXCXCXCXBXMXMXCXMXgXC.c.N.N.B.k.g.j.g.x.x.x.c.k.` &.^ +.I >XaXcXBXCXBXBXBXBXBXBXBXBXBXBXBXBXBXBXBXBX",
"BXBXBXBXBXBXBXBXBXBXBXBXBXBXBXBXCXCXCXBXBXCXCXeXx.Z.Z.B.x.c.x.h.s.j.x.x.Z.k.G =.I U P t.5XnXMXCXBXBXBXBXBXBXBXBXBXBXBXBXBXBXBXBX",
"BXBXBXBXBXBXBXBXBXBXBXBXBXBXBXBXbXBXBXBXCXCXmX8Xx.Z.S.S.N.Z.c.j.s.g.k.x.B.k.f.%.@.&.@.Y w.yXCXmXBXBXBXBXBXBXBXBXBXBXBXBXBXBXBXBX",
"BXBXBXBXBXBXBXBXBXBXBXBXBXBXBXBXBXmXBXCXCXBXfXm.V.N.v.c.Z.Z.x.h.f.g.b.S.N.c.f.#.&.O.*.-.U /.pXCXBXBXBXBXBXBXBXBXBXBXBXBXBXBXBXBX",
"BXBXBXBXBXBXBXBXBXBXBXBXBXBXBXBXBXBXMXbXlXBXsXY.V.S.S.N.N.c.v.h.U.d.j.Z.Z.A.U.` *.@.-.-.U ' qXvXBXBXBXBXBXBXBXBXBXBXBXBXBXBXBXBX",
"BXBXBXBXBXBXBXBXBXBXBXBXBXBXBXBXCXCXCXCXBXMXeXY.8XC.A.V.A.C.C.z.F.m.Y.9X9X9XeX=X*.;.Y ;.t.5.tXvXBXBXBXBXBXBXBXBXBXBXBXBXBXBXBXBX",
"BXBXBXBXBXBXBXBXBXBXBXBXBXBXBXBXCXBXBXBXBXmXfXfXMXsXeXsXfXfXfXwXsXuXAXnXkXbXnXjX4.t.Y Y Y [.pXCXBXBXBXBXBXBXBXBXBXBXBXBXBXBXBXBX",
"BXBXBXBXBXBXBXBXBXBXBXBXBXBXBXBXCXBXmXBXBXBXAXgXxXhXzXbXzXnXzXlXsXgXAXzXjXjXwXiX.Xt.-.Y %.1XjXCXBXBXBXBXBXBXBXBXBXBXBXBXBXBXBXBX",
"BXBXBXBXBXBXBXBXBXBXBXBXBXBXBXBXCXBXMXCXCXCXMXgXwXeXR.2X0XfXfXfXgXgXgX=X} L.L.lXwXt.w.u.7XxXnXMXBXBXBXBXBXBXBXBXBXBXBXBXBXBXBXBX",
"BXBXBXBXBXBXBXBXBXBXBXBXBXBXBXBXCXCXCXMXMXxX2X/ T./.W.K.gXMXnXCXCXMXbX|.^..XG.L.wXqXwXwXkXCXBXCXBXBXBXBXBXBXBXBXBXBXBXBXBXBXBXBX",
"BXBXBXBXBXBXBXBXBXBXBXBXBXBXBXBXCXCXCXCXBXL.H P.P.{.^.[ wXMXBXbXBXBXwXG.}  X/.D.L.tXCXbXbXCXCXBXBXBXBXBXBXBXBXBXBXBXBXBXBXBXBXBX",
"BXBXBXBXBXBXBXBXBXBXBXBXBXBXBXBXCXCXCXCXBXwX=XI./.`.5X|.iXBXCXCXCXMXfX=XK.5X-XK.R.hXCXmXBXMXBXbXBXBXBXBXBXBXBXBXBXBXBXBXBXBXBXBX",
"BXBXBXBXBXBXBXBXBXBXBXBXBXBXBXBXCXCXCXCXCXwXT.G.K.^..X-XtXBXCXCXbXBXCXlX3X.X{.H.D.2XgXBXBXCXvXCXBXBXBXBXBXBXBXBXBXBXBXBXBXBXBXBX",
"BXBXBXBXBXBXBXBXBXBXBXBXBXBXBXBXMXBXCXCXgXL./ P.|.K.[ [ T.xXMXBXBXBXMXiXG.H.H.{.G.F.T.gXCXCXCXBXBXBXBXBXBXBXBXBXBXBXBXBXBXBXBXBX",
"BXBXBXBXBXBXBXBXBXBXBXBXBXBXBXBXCXmXCXCXAXR.L.L.I.I.I.R.0XBXBXBXmXMXMXgXT.I.L.P.L.G.2XiXmXCXCXMXBXBXBXBXBXBXBXBXBXBXBXBXBXBXBXBX",
"BXBXBXBXBXBXBXBXBXBXBXBXBXBXBXBXBXBXBXxXMXBXxXhXbXbXkXbXxXBXMXBXBXCXMXCXcXbXkXbXcXhXxXBXBXBXBXCXBXBXBXBXBXBXBXBXBXBXBXBXBXBXBXBX",
"BXBXBXBXBXBXBXBXBXBXBXBXBXBXBXBXBXxXCXBXCXMXBXCXCXMXBXMXBXMXBXCXCXBXBXbXBXMXBXMXBXBXMXCXMXvXBXMXBXBXBXBXBXBXBXBXBXBXBXBXBXBXBXBX"
};
