/* XPM */
static char *_f35d4e9e5b647bfeb592250c2cf72ec8mc4x1SUCMIeHsrw[] = {
/* columns rows colors chars-per-pixel */
"64 64 99 2 ",
"   c None",
".  c black",
"X  c #181200",
"o  c #2C2101",
"O  c #3B2F1E",
"+  c #001B3C",
"@  c #3B3329",
"#  c #2A2A3A",
"$  c gray23",
"%  c #430005",
"&  c #4F120A",
"*  c #402700",
"=  c #433302",
"-  c #503C02",
";  c #4A381C",
":  c #504028",
">  c #504637",
",  c #43484F",
"<  c #505050",
"1  c #6F624E",
"2  c gray46",
"3  c #B43128",
"4  c #DB3033",
"5  c #F43F36",
"6  c #825D00",
"7  c #8C6A04",
"8  c #C15C2B",
"9  c #F44336",
"0  c #FB4538",
"q  c #F55130",
"w  c #F66737",
"e  c #F77832",
"r  c #8B6E42",
"t  c #8C7046",
"y  c #A9744A",
"u  c #827460",
"i  c #8C7B62",
"p  c #BC8E05",
"a  c #A18313",
"s  c #8C8120",
"d  c #BCAD2C",
"f  c #E6AE06",
"g  c #C79B2C",
"h  c #FFC107",
"j  c #FFC607",
"k  c #FFD222",
"l  c #FFDB2C",
"z  c #FFE535",
"x  c #FFEB3B",
"c  c #FFEF3C",
"v  c #B88F50",
"b  c #BC975E",
"n  c #A18A67",
"m  c #A0907C",
"M  c #F88257",
"N  c #C7A350",
"B  c #D69A62",
"V  c #D7B27A",
"C  c #FBA067",
"Z  c #E3B268",
"A  c #E6B873",
"S  c #FFBB77",
"D  c #D7C240",
"F  c #FFCE50",
"G  c #FFE25B",
"H  c #FFC976",
"J  c #025D86",
"K  c #B37293",
"L  c #00A2F3",
"P  c #03A9F4",
"I  c #4C9CDE",
"U  c gray55",
"Y  c #958E86",
"T  c #BCA583",
"R  c #8688BA",
"E  c gray63",
"W  c #B5B4AA",
"Q  c #BCBCBC",
"!  c #D7BD96",
"~  c #FFCC80",
"^  c #FFCF88",
"/  c #FFD082",
"(  c #FFD485",
")  c #FFD494",
"_  c #E6CAA0",
"`  c #FDCDA4",
"'  c #FFD8A0",
"]  c NavajoWhite",
"[  c #FFE0B2",
"{  c #FFE5BF",
"}  c #FFEABA",
"|  c gray78",
" . c #E9E6D1",
".. c #FFECD2",
"X. c #E6E6E6",
"o. c #EFEFEF",
"O. c #FFFEE8",
"+. c #FFFAF4",
"@. c white",
/* pixels */
"                                                                                                                                ",
"                                                                                                                                ",
"                                                U . . . . . . . . . . . . . U                                                   ",
"                                                W X X X X X X X X X X X X X U @.+.+.+.                                          ",
"                                        < $ D c x x x x x x x x x x x x x x x c F $ <                                           ",
"                                        < X D x x x x x x x x x x x x x x x x x l X $                                           ",
"                                    U 1 g f z x x x x x x x x x x x x x x x x x z f f 1 2                                       ",
"                                    2 . f h z x x x x x x x x x x x x x x x x x z h h . $                                       ",
"                                    A f l z x x x x x x x x x x x x x x x x x x x z z f D                                       ",
"                                    / h z c c c c c c c c c c c c c c c c c c c c c c h F                                       ",
"                                U $ g h e w w w w w w w w w w w w w w w w w w w w w w h f , 2                                   ",
"                                2 . f h w 5 5 5 5 5 5 5 5 5 5 5 5 5 5 5 5 5 5 5 5 5 9 h f . <                                   ",
"                                2 . 8 q k z z z z z z z z z z z z z z z z z z z z z x q q . <                                   ",
"                                2 . 4 5 l x x x x x x x x x x x x x x x x x x x x x x 5 4 . <                                   ",
"                        1 1 U U D D l l z x x x x x x x x x x x x x x x x x x x x x x l l D D < . # <                           ",
"                        X . . . D x x x x x c c c c x x c c c c c c c c c c c c c x x x x x l . . . .                           ",
"                  @.U E d d d d z x l k k k d s s s D G N s s s s s s s s s s s d k k k k x x d d d d E U                       ",
"                  @.# . c x x x x x k h h h 7 . . . v ~ y . . . . . . . . . . . 6 h h h j x x x x x c X . @.                    ",
"                  @.# . c x k k k k a 7 7 7 = . t b V ' n . . . . . > b y . . . = 7 7 7 a k k k k x c X . @.                    ",
"                  @.# . c x j h h j 6 . . . . . b ~ ' [ n . . . . . 1 ~ B . . . . . . . * j h h j x c X . @.                    ",
"                  @.# . k k h j a 7 = . . . . . T ' ] [ ! ! i . . . 1 ' ) B v . . . . . X 7 a j h k k X . @.                    ",
"                    @ . j h h j 6 . . . . . . . T [ [ [ [ [ T . . . u [ ' ~ B . . . . . . . - j h h h X .                       ",
"                    W W p p p p - . . . . . m T _ [ [ [ [ [ ! T m . u [ ] ' _ T m . . . . . * p p p p E U                       ",
"                        o . . . . . . . . . _ [ [ [ [ [ [ [ [ [ ! . u [ [ [ [ [ _ . . . . . . . . . X                           ",
"                        , U $ . . . r t O . _ [ _ ! ! ! _ [ [ [ _ n n ! ! ! _ [ _ . o t t . . . # 2 <                           ",
"                            1 . . . Z / > . _ [ m . . . T [ [ [ [ [ ! . . . i [ _ . ; / A . . . $                               ",
"                            1 . . . Z ~ n i _ [ T i i i ! [ [ [ [ [ _ i i i T [ _ i i ~ A . . . <                               ",
"                            < . . . Z ~ ] [ [ [ [ [ [ [ [ [ [ [ [ [ [ [ [ [ [ [ [ [ [ ~ A . . . <                               ",
"                            U E , . Z ~ ] [ [ [ [ [ [ [ [ [ [ [ [ [ [ [ [ [ [ [ [ [ ] ~ A . $ E E                               ",
"                                2 . Z ~ ] [ [ [ [ [ [ [ [ [ [ [ [ [ [ [ [ [ [ [ [ [ ] ~ A . <                                   ",
"                                W U b V ) ' ] [ { ..........................{ [ ] ' ' V B E E                                   ",
"                                    2 . A ~ ] [ O.@.@.@.@.@.@.@.@.@.@.@.@.@.O.] ] ~ ~ . $                                       ",
"                                    U 2 V A ] ] ..+.@.@.@.@.@.@.@.@.@.@.@.+.O.] ' A ~ < #                                       ",
"                                        < . A ~ ' ] ..@.@.@.@.@.@.@.@.@.O.] ' ~ A . $                                           ",
"                                        2 < ! ) ] { ..X.+.+.+.+.+.+.+.X. .{ [ ) A < <                                           ",
"                                              @.    E . v ~ H H H H Z . 2                                                       ",
"                                                    Y & b ~ ~ ~ ~ ~ Z & i                                                       ",
"                                                  . 3 0 C ~ ~ ~ ~ ~ S 0 3 . U                                                   ",
"                                              X.W > 8 9 M S ~ ^ ~ S C 9 4 > Y                                                   ",
"                                            < X b / M 9 9 9 S [ ` 9 9 9 M / B X #                                               ",
"                                          o.U : b ~ C 9 9 9 S [ ` 9 9 9 M ~ V @ U o.                                            ",
"                                        1 X _ ] ) ~ C 9 9 9 9 9 9 9 9 9 M ~ ) ] _ O X                                           ",
"                                      @.< . _ [ ' ( C 9 9 9 9 9 9 9 9 9 M ( ) [ _ . $                                           ",
"                                    2 . _ } ^ ~ y . 3 9 9 9 9 9 9 9 9 9 3 . r / ^ } } . #                                       ",
"                                    2 . _ [ ) / v . 3 9 9 9 9 9 9 9 9 9 3 . r / ^ [ [ . $                                       ",
"                                    2 . _ [ ^ / v . 3 9 9 9 9 9 9 9 9 9 3 . r / ^ [ [ . $ @.                                    ",
"                                    2 $ ! ] ^ ~ y % 3 9 9 9 0 9 9 9 9 9 4 % r ~ ^ ] ] $ < @.                                    ",
"                                      +.2 @ O O 3 9 9 9 9 9 K I R 9 9 9 9 9 3 O O @ <                                           ",
"                                        < X . . 3 9 9 9 9 9 R P R 9 9 9 9 9 3 . . X ,                                           ",
"                                            1 . I I I I I I P P P I I I I I I . <                                               ",
"                                            < . J P P P P P P P P P P P P P L . 2 @.                                            ",
"                                            < . J P P P P P J + J P P P P P L . 2 @.                                            ",
"                                            2 . J L L L P P J . J P P L L L L . 2 @.                                            ",
"                                            2 . Q @.@.@.E + Q   | + 2 @.@.@.| . 2                                               ",
"                                            2 X Q @.@.@.E . Q @.| . 2 @.@.@.| . ,                                               ",
"                                                U 1 T ) n . Q   Q . 1 ) V 1 U                                                   ",
"                                                2 . v ~ y . W   Q . 1 ~ B . U                                                   ",
"                                                E . v ~ y . Q   Q . 1 ~ B . U                                                   ",
"                                                2 . v / y . W   | . r / B . U                                                   ",
"                                                X.| E 1 ; . W   | . O 1 Y |                                                     ",
"                                                    E . . . W   W . . . 2                                                       ",
"                                                            o.      X.X.X.                                                      ",
"                                                                                                                                ",
"                                                                                                                                "
};
