/* XPM */
static char *f2405012e5e0406de5606e69c3c508f9kSmKvccH8EkBpp3k[] = {
/* columns rows colors chars-per-pixel */
"64 64 223 2 ",
"   c None",
".  c #010100",
"X  c #0C0300",
"o  c #0B0B0B",
"O  c #070808",
"+  c #130500",
"@  c #1B0B02",
"#  c #170A05",
"$  c #18130B",
"%  c #020C1C",
"&  c #040915",
"*  c #1B1B1B",
"=  c #171613",
"-  c #230602",
";  c #230C01",
":  c #2C0C01",
">  c #290803",
",  c #320D01",
"<  c #3B0A03",
"1  c #2D1103",
"2  c #261508",
"3  c #341302",
"4  c #3C1302",
"5  c #3A1906",
"6  c #241E13",
"7  c #230F15",
"8  c #2B2216",
"9  c #342A1C",
"0  c #34310D",
"q  c #010E22",
"w  c #03132C",
"e  c #0B1125",
"r  c #031533",
"t  c #041A3B",
"y  c #041837",
"u  c #242424",
"i  c #292929",
"p  c #3C3422",
"a  c #35302D",
"s  c #383838",
"d  c #372E2C",
"f  c #4A0B04",
"g  c #530E05",
"h  c #5C0B04",
"j  c #431302",
"k  c #491804",
"l  c #561806",
"z  c #671506",
"x  c #7B1407",
"c  c #731407",
"v  c #6C0F07",
"b  c #4D2106",
"n  c #5D2506",
"m  c #562608",
"M  c #45331C",
"N  c #652906",
"B  c #632C09",
"V  c #6C2E08",
"C  c #652807",
"Z  c #712D0A",
"A  c #7C2F08",
"S  c #6D300A",
"D  c #753209",
"F  c #7C360B",
"G  c #7E380C",
"H  c #71380E",
"J  c #753713",
"K  c #433926",
"L  c #433D3A",
"P  c #643823",
"I  c #51442A",
"U  c #574E35",
"Y  c #6B5C3D",
"T  c #675738",
"R  c #755831",
"E  c #605A14",
"W  c #031D47",
"Q  c #05214B",
"!  c #06275A",
"~  c #072D68",
"^  c #083477",
"/  c #444444",
"(  c #4C4C4C",
")  c #5A5A5A",
"_  c #565654",
"`  c #746542",
"'  c #7E6E48",
"]  c #727155",
"[  c #676767",
"{  c #7C7C7C",
"}  c #757575",
"|  c #736F6E",
" . c #871707",
".. c #951908",
"X. c #9F1D09",
"o. c #930E0A",
"O. c #AA1C0A",
"+. c #B91E0B",
"@. c #833B0D",
"#. c #883308",
"$. c #973409",
"%. c #8C240C",
"&. c #A72309",
"*. c #B5240A",
"=. c #A52F0E",
"-. c #CC140F",
";. c #C81C0D",
":. c #D2160F",
">. c #DC1C0E",
",. c #D7190E",
"<. c #E21F0E",
"1. c #C6240B",
"2. c #DC220E",
"3. c #D6260D",
"4. c #D6370D",
"5. c #E3220E",
"6. c #EB250E",
"7. c #ED2B0D",
"8. c #F1260C",
"9. c #F32B0E",
"0. c #F4320E",
"q. c #F63C0F",
"w. c #EE3313",
"e. c #F43E25",
"r. c #88410F",
"t. c #87400F",
"y. c #8C4411",
"u. c #854110",
"i. c #904712",
"p. c #BE470C",
"a. c #CC4A0D",
"s. c #D8500E",
"d. c #DA420D",
"f. c #F7440F",
"g. c #F84D0F",
"h. c #F7490F",
"j. c #EC580F",
"k. c #F9510F",
"l. c #F35B0F",
"z. c #F95510",
"x. c #FB5C10",
"c. c #F44028",
"v. c #806F49",
"b. c #85734C",
"n. c #89764E",
"m. c #917F53",
"M. c #8C7A50",
"N. c #807D7C",
"B. c #F65C47",
"V. c #F77867",
"C. c #D85B4A",
"Z. c #91891A",
"A. c #AB9018",
"S. c #F1CB21",
"D. c #F5D525",
"F. c #EBCA22",
"G. c #FBE52A",
"H. c #D5C633",
"J. c #9A8658",
"K. c #8E8B52",
"L. c #A68D5B",
"P. c #B08B53",
"I. c #B49B66",
"U. c #BEA26A",
"Y. c #938F68",
"T. c #C2A66C",
"R. c #CCAE72",
"E. c #DBBC7C",
"W. c #D4B577",
"Q. c #D2B070",
"!. c #F7B868",
"~. c #EBBB73",
"^. c #C49556",
"/. c #DDD15F",
"(. c #DEC07E",
"). c #E9C47D",
"_. c #FEC475",
"`. c #FECB7C",
"'. c #F7C77B",
"]. c #FEC06F",
"[. c #FDEE60",
"{. c #073988",
"}. c #043B9B",
"|. c #023795",
" X c #0A439B",
".X c #094198",
"XX c #0741A0",
"oX c #0945A4",
"OX c #0B48A6",
"+X c #0C4AA9",
"@X c #848484",
"#X c #8B8B8B",
"$X c #949494",
"%X c #9A9B9A",
"&X c #A3A3A3",
"*X c #ABABAB",
"=X c #B3B4B3",
"-X c #BBBBBB",
";X c #EDA79D",
":X c #C6C185",
">X c #EDCC86",
",X c #E4C582",
"<X c #FECE81",
"1X c #F2CD85",
"2X c #FED285",
"3X c #FED68B",
"4X c #FFD98F",
"5X c #F5D289",
"6X c #FFDB90",
"7X c #FBC4BC",
"8X c #CBCBCB",
"9X c #C4C4C4",
"0X c #D3D3D3",
"qX c #DBDBDB",
"wX c #DCCBC9",
"eX c #F5D8D4",
"rX c #FDE3DF",
"tX c #E1E2E2",
"yX c #EBECEB",
"uX c #F3F4F4",
"iX c #FDFEFE",
"pX c #F9F7F6",
"aX c #F6ECEB",
/* pixels */
"                                                            . . . . .                                                           ",
"                                                      . . . . + 1 ; X . .                                                       ",
"                                                    . . # A s.x.x.x.j.#.X .                                                     ",
"                                                . . X #.l.x.x.x.a.#.#.a.a.X .             . .                                   ",
"                                              . . 1 s.x.x.x.j.P &XtXwX$XH $.. O       . . . . . O                               ",
"                                            . . 3 j.x.x.x.x.P tX7XiXV.7X8XZ - .     . . u 8X*X* . . .                           ",
"                                          . . 1 j.x.x.x.x.a.%XaX8.;Xw.c.pX| z . . . O i a * #XqX$X) o O .                       ",
"                                          . # s.x.x.z.z.z.$.0XrX8.0.c.B.V.*Xz . . = =X0XyXtXi #XiXiXtXs . .                     ",
"                                        . . =.x.z.z.z.z.z.$.8XrX8.eX;X7XC.| ; X ; > - X . i / _ iXiXiXuX* .                     ",
"                                      . . k k.z.z.z.h.g.h.4.{ rXB.;XN.d l ..3.0.0.9.9.9.3...> * yXpXpXpX} .                     ",
"                                      . X d.k.g.f.h.h.f.f.f.%.$XI j O.0.0.0.0.9.9.7.*.x g < @ . 8XuXuXuX%X.                     ",
"                                    . . z g.h.f.f.f.f.q.f.*., g 1.0.0.0.0.0.9.O.f X . . . . . O ( %X&XyX@X.                     ",
"                                    . . 4.q.f.q.q.q.q.w.l < +.7.w.7.9.9.7. .2 . . . . . . . [ yX%X@X8XiX/ .                     ",
"                                    . f q.q.q.q.q.q.*.-  .5.2.<.5.5.w.X.7 b.1Xv.. . . . ( 9XiXiXiXiXiX0X. .                     ",
"                                  . . &.0.0.0.0.0.&.> +.2.>.>.2.6.1.j ` >X4XJ.J.p = &XyXiXiXiXiXiXiXiX/ .                       ",
"                                  . X 7.0.0.0.9.&.> ;.>.>.>.5.1.l Y ,X6X4X4Xp . n.= pXiXiXiXtXiXiXyX) . .                       ",
"                                . . g 9.0.9.0.1.> ;.>.2.5.O.l Y ` T.4X4X4X4XK . T . s _ } 9XyX@X) [ . .                         ",
"                            . . X > ..9.9.9.2.+ h  .x g 9 n.,X4X$ = 5X6X4X4X` . o I ` ` K . _ yXuX&X. .                         ",
"                            . , 3...3.9.9.7.l 1 9 n.J.E.4X4X4X4X$ . I.6X4X4Xm.J.3X6X2X<X<XI.X ) ) O .                           ",
"                          . + 2.>.2.6.8.8.+.@ Z $ 1X4X4X4X4X4X4XK . b.4X4X(.R.4X4X4X3X<X_._.b.. . . .                           ",
"                          . c ,.,.<.8.9.9.< l C 5 v.4X4X4X4X4X4XL.. n.6X4X5X4X4X4X4X3X<X`._.).. .                               ",
"                          .  .:.,.O.x c  .. l C l ; M.>X4X4X4X4X6X' E.6X4X4X4X4X4X4X3X2X<X_.2X= O                               ",
"                          . z ,.f $ ' I.I.U 1 l l k 5 2 1X3XE.W.6X6X6X6X4X4X4X4X4X4X3X<X`._.3X$ .                               ",
"                          . X x 9 ,X_.<X3X6XY k k j l @ E.2XI . Y E.6X4X4X4X4X4X3X3X<X`._._.R.. O                               ",
"                            . . W._.'.P.U.3X5X8 k j 3 Y 6X`.6 > + . p ' L.R.4X4X2X<X`._._.1Xp .                                 ",
"                            . 6 2X!._.<XY Y 4XE.9 3 $ W.6X_.6 : : , > + + # T E.3X<X`.'.L.6 . .                                 ",
"                            . 8 3X_._.<XU.p U.4X6XL.W.4X4X_.R + : : 3 j j j ; . 6 K 9 o . . .                                   ",
"                              o 5X!.`.<X3XI.L.4X6X4X4X4X4X2X!.M X > , , 4 4 j j 3 : : X . .                                     ",
"                              . J.`._.).R.T >X4X4X4X4X4X4X4X<X!.R @ : , , 3 4 4 j 4 j . . .                                     ",
"                              . o T.<X~.W.4X4X4X4X4X4X4X4X4X4X<XP.. > , > > , , # + X . .                                       ",
"                                . . U I.).>XE.J.` 6X6X4X4X4X4X3X^.@ + . + . . . . c < .                                         ",
"                                  . . . . . + > X U 3X6X4X4X4X4XT.v -.h h M P.R g  .. .                                         ",
"                                      . . . . . . . p ).3X2X2X3XQ.f ;.O.$ Q.T.j &.. .                                           ",
"                                      . . + < g f - . o J.<X_.!.!.M g 2 T.L.< O.X .                                             ",
"                                  . . g +.5.6.6.8.9.+.. @ 6 b.Q.'.).L.n.9 & > X .                                               ",
"                              . . > +.>.,.,.<.6.9.8. .> ;.& ! w & X , v v W y . .         . . . . . . .                         ",
"                          . . . + O.-.-.,.<.6.8...@ h 5.9.f .X+XoXe 1.7.9.v ^ y . .     . . # 5 5 2 . . .                       ",
"                        . u @X$X{ / # c <.8.1.> g ;.6.8.8.c ^ OX+XoX7 X.c f % OXq . . . . @ u.r.i.y.u.@ . .                     ",
"                      O . &X0XuXiXiXyX[ f  .. x ,.,.<.6.9.x ^ +X+X.X! ! ^  X+X+XQ ` O . . H t.t.r.r.i.H . . .                   ",
"                    O . / %XqXpXpXiXiXiX{ . . ,.:.:.>.6.8.h {.+XQ ) Y.U ^ +X+X+Xt :XZ.. @ t.@.t.r.r.r.u.O _ . .                 ",
"                  O . %XiXiXiXiXiXiXiXtXyXO g >.-.:.>.8.8.7 OX~ ] [.G.G.E .X+X+X! K.F.. 3 G G @.@.@.y.J i *X. .                 ",
"                  . } iX8X0XiXiXiXiXiXpX} . O.:.:.:.>.<. .! +Xr /.D.D.D.A.~ +X+X.X0 D.6 @ F G G F G u.n [ $X. .                 ",
"                . O yXpXu 9XiX=XpXiXiXpXuXu > o.-.,.;.v q OX+Xr H.S.S.S.A.! +X+X+XQ Z.$ # F F F @.F @.k =X( .                   ",
"                . i iX#Xo pX0X= iXiXpXuXyX#Xy ~ r q q ~ oX+X+X~ E D.S.S.0 .X+X+X+X Xq . 5 F F F F @.G 9 qX. .                   ",
"                . s iX=X&XiX/ ( iXiXpXyXyX-X% OXoX+X+X+X+X+X+XOXt 0 E 0 ~ +X+X+X+X+Xw . S D A F F F B @X[ . .                   ",
"                . u iXiXiXiX{ 8XiXpXyX0XyX=X& XXXXoX+X+X+X+X+X+X X.X^  X+X+X+X+X+XOXO # N N S D F F 9 8XO .                     ",
"                  . 0XiXiXpXpXpXuXuX/ *XuX_ w |.}.XXoXOXOX+X+X+X+X+X+X+X+X+X+X+XOX~ . @ N N N S D b #Xs . .                     ",
"                  . s pXuXuXuXuXuX*XO ( a . & W |.}.}.XXoXoXOXOX+X+XOXOX+X+XOXOXOX& . b n n n N V 2 %X. .                       ",
"                    . / tXuXyXyXyX$X#Xu ; N n @ r {.|.}.}.XXXXXXXXOXXXOXXXXXXXOXQ . . V C n n n b | ( .                         ",
"                    O . o | -XtXyXqX} X m n n b . . W |.|.}.}.}.}.}.}.}.}.XXOX! . . . # B V V m a 8X. .                         ",
"                        . . . . . . # m n n n @ B k q }.|.|.|.}.}.}.}.}.OX Xt . .   . . . . . . a u . .                         ",
"                            . * #Xk Z V N N n 1 n 3 q {.oXXX}.}.XXXXoX^ W . . .         . . . . . . .                           ",
"                            . s Y.B Z Z S S n 5 C 3 . . & q t y w % . . . .                                                     ",
"                            . *XL F J F D D B k D 1 . . . . . . . . . .                                                         ",
"                          . o yX2 F F F F F S m D 2 .                                                                           ",
"                          . ( 0X5 F F F F F F S G + .                                                                           ",
"                          . { *Xb G G F G F G G B . .                                                                           ",
"                          . $X$Xm u.@.G F @.G S . .                                                                             ",
"                          . #X#XB u.u.u.u.@.@.S . .                                                                             ",
"                          . [ #XB y.r.y.r.r.r.m .                                                                               ",
"                          O O / 5 y.y.y.y.y.y.@ .                                                                               ",
"                            . . . m y.i.i.H 2 . .                                                                               ",
"                                . . . # X . . .                                                                                 ",
"                                    . . . .                                                                                     "
};
