/* XPM */
static char *_ce003e6f6f64bfbe918dc13e5a4655aiZVEHK3EaXc1sZBQ[] = {
/* columns rows colors chars-per-pixel */
"64 64 28 1 ",
"  c None",
". c black",
"X c #000100",
"o c #010100",
"O c #000001",
"+ c #010001",
"@ c #000101",
"# c #020200",
"$ c #000002",
"% c #010002",
"& c #000102",
"* c #000003",
"= c #010003",
"- c #000103",
"; c #020002",
": c #020003",
"> c #000202",
", c #000203",
"< c #000004",
"1 c #010004",
"2 c #000104",
"3 c #000005",
"4 c #020004",
"5 c #020005",
"6 c #000204",
"7 c #000205",
"8 c #000006",
"9 c #000206",
/* pixels */
"                                                                ",
"                                                                ",
"                                                                ",
"                                  8;6                           ",
"                                                                ",
"                                                                ",
"                          8                                     ",
"                                    8                           ",
"                                    8                           ",
"                                    ;                           ",
"                                    ;;                          ",
"                                   ;;;                          ",
"                            ;      >;;                          ",
"                           8;      ;;;                          ",
"                           ;;>     8;;                          ",
"                           8;;     ;;;                          ",
"                           8;;    6;;;;                         ",
"                            ;;    6;;;>                         ",
"                            ;;    8;;;;                         ",
"                            ;;     ;;;>                         ",
"                            ;;     ;;;>                         ",
"                    88      ;;     ;;;;                         ",
"                    ;;      ;; ;>  ;;;>                         ",
"                   ;;;8     ;;;;;  >;;                          ",
"                   ;;;;     ;;;;;;>;;;                          ",
"                  ;;;;;;   ;;;;;;;;;;;;                         ",
"                  ;;;;;;  ;;;;;;;;;;;;   ;                      ",
"                  ;;;;;;  ;;;;;;;;;;;;;  ;                      ",
"                  ;;;;;   ;;;;;;;;;;;;; ;;>                     ",
"                   ;;;;   ;;;;;;;;;;;;; ;;;                     ",
"                   ;;;;  ;;;;;;;;;;;;;; ;;;                     ",
"                   ;;;;  ;;;;;;;;;;;;;; ;;;                     ",
"                   >;;;  ;;;;;;;;;;;;;;;;;;;                    ",
"                   ;;;;  ;;;;;;;;;;;;;;;;;;;;                   ",
"                  >>;;;; ;;;;;;;;;;;;;;;;;;;;;                  ",
"                  ;;;;;;;;;;;;;;;;;;;;;;;;;;;;                  ",
"            8    ;;;;;;;;;;;;;;;;;;;;;;;;;;;;;;   8             ",
"           ;;   8;;;;;;;;;;;;;;;;;;;;;;;;;;;;;;   ;             ",
"          >;;;  ;;;;;;;;;;;;;;;;;;;;;;;;;;;;;;;  ;;;            ",
"         >;;;;; ;;;;;;;;;;;;;;;;;;;;;8;;;;;;;;;  ;;;            ",
"         ;;;;;; ;;;>;;     ;;;;;;;;;     8;;;;;;;;;;;8          ",
"         >;;;;;;;;;;        ;;;;;;;        ;;;;;;;;;;6          ",
"          ;;;;;;;;;;         ;;;;;         ;;;;;;;;;;>          ",
"          ;;;;;;;;;          ;;;;;          ;;;;;;;;;           ",
"          ;;;;;;;;;          ;6;>;          ;;;;;;;;            ",
"          ;;;;;;;;;                         ;;;;;;;;            ",
"          ;;;;;;;;;                         >>;;;;;;            ",
"          ;;;;;;;;;                         ;;;;;;;;            ",
"          ;;;;;;;;;                         ;;;;;;;;;           ",
"          ;;;;;;;;;;                       ;;;;;;;;;;           ",
"          >;;;;;;;;;;;                   ;;;;;;;;;;;8           ",
"          ;;;;;;;;;;;;;                 ;;;;;;;;;;;;;           ",
"          ;;;;;;;;;;;;;                 ;;;;;;;;;;;;;           ",
"          ;;;;;;;;;;;;;                 ;;;;;;;;;;;;;           ",
"          ;;;;;;;;;;;;>                 >;;;;;;;;;;;;           ",
"          ;;;;;;;;;;;;;                 ;;;;;;;;;;;;;           ",
"          ;;;;;;;;;;;;;;               ;;;;;;;;;;;;;6           ",
"         ;;;;;;;;;;;;;;;               ;;;;;;;;;;;;;;           ",
"         ;>;;;;;;;;;;;;;;             8;;;;;;;;;;;;;;           ",
"          8;;;;    ;;;;66              ;8;;;;   ;;>;8           ",
"                                                                ",
"                                                                ",
"                                                                ",
"                                                                "
};
