/* XPM */
static char * pacman_phantom_xpm[] = {
"64 64 203 2",
"  	c None",
". 	c #F6D9A7",
"+ 	c #FEDB94",
"@ 	c #F9D56C",
"# 	c #FDCC65",
"$ 	c #F6CE5B",
"% 	c #FBD264",
"& 	c #F8D789",
"* 	c #F7E1BA",
"= 	c #FFE4B6",
"- 	c #F3D26C",
"; 	c #FFD047",
"> 	c #F8C738",
", 	c #FDC12B",
"' 	c #F6C313",
") 	c #FDC10C",
"! 	c #FDBD0C",
"~ 	c #FEC223",
"{ 	c #FEBC1B",
"] 	c #FCC204",
"^ 	c #FAC43C",
"/ 	c #EECE6E",
"( 	c #FDC113",
"_ 	c #FEC21B",
": 	c #FDBE12",
"< 	c #F5BC0C",
"[ 	c #F5B104",
"} 	c #FCBD04",
"| 	c #FEB60B",
"1 	c #F5C20D",
"2 	c #F6C31B",
"3 	c #F9EBCB",
"4 	c #F5CB6B",
"5 	c #F4C532",
"6 	c #FEBC22",
"7 	c #F4BD12",
"8 	c #FFEBDA",
"9 	c #F9C92B",
"0 	c #F6BD04",
"a 	c #FDC647",
"b 	c #FCD5A7",
"c 	c #F9D57A",
"d 	c #F3BC1B",
"e 	c #F6EEE3",
"f 	c #FDE18E",
"g 	c #FCE4C2",
"h 	c #E9C419",
"i 	c #FEB504",
"j 	c #EDC727",
"k 	c #FCDA99",
"l 	c #F6C63D",
"m 	c #F5C203",
"n 	c #E8C865",
"o 	c #FDB51B",
"p 	c #F7D395",
"q 	c #F0B62E",
"r 	c #FDB929",
"s 	c #F7B331",
"t 	c #E7BB34",
"u 	c #F7C91A",
"v 	c #F5B847",
"w 	c #F5C525",
"x 	c #FCB421",
"y 	c #FDCD7D",
"z 	c #FDB613",
"A 	c #EACB77",
"B 	c #F3BF28",
"C 	c #F6C873",
"D 	c #FDDBC3",
"E 	c #FCDDAB",
"F 	c #F9D575",
"G 	c #FFDCB9",
"H 	c #FCCF98",
"I 	c #EBC836",
"J 	c #F6B311",
"K 	c #FFECD1",
"L 	c #FAFFF9",
"M 	c #FFFFFF",
"N 	c #F5FEFD",
"O 	c #FFFFF7",
"P 	c #F5C82F",
"Q 	c #FBE3D3",
"R 	c #FBFDEC",
"S 	c #FEFDE5",
"T 	c #FEFAFE",
"U 	c #FFF4F7",
"V 	c #FCCB09",
"W 	c #EECB8B",
"X 	c #FEEBFE",
"Y 	c #F5FEF3",
"Z 	c #FDFEF4",
"` 	c #FDE5CB",
" .	c #E8B727",
"..	c #F9D583",
"+.	c #FEF2ED",
"@.	c #FEF5FD",
"#.	c #F7F6EB",
"$.	c #FEE5A7",
"%.	c #FEFEF9",
"&.	c #F0F4F7",
"*.	c #F4FDEC",
"=.	c #E6ECF8",
"-.	c #BFCAE0",
";.	c #9CABBD",
">.	c #ABB0CE",
",.	c #FAF0BD",
"'.	c #FDFDFF",
").	c #EDFFED",
"!.	c #BBC1CA",
"~.	c #A3A3BB",
"{.	c #BDD0CE",
"].	c #E9F6F8",
"^.	c #EDD6A4",
"/.	c #5F75A6",
"(.	c #093A87",
"_.	c #01418C",
":.	c #173D7A",
"<.	c #5B6BA6",
"[.	c #073683",
"}.	c #054684",
"|.	c #033B88",
"1.	c #F6D8B7",
"2.	c #E1BD69",
"3.	c #173C89",
"4.	c #063E93",
"5.	c #0A428C",
"6.	c #0A3D8C",
"7.	c #96A5CE",
"8.	c #FCF5DD",
"9.	c #A0AAC5",
"0.	c #034293",
"a.	c #FDF3E4",
"b.	c #F6C988",
"c.	c #7489A9",
"d.	c #054378",
"e.	c #004276",
"f.	c #F7F5D6",
"g.	c #6E86B0",
"h.	c #F1B854",
"i.	c #E9C50B",
"j.	c #819FC3",
"k.	c #043D85",
"l.	c #0C3E93",
"m.	c #0D4494",
"n.	c #8797AA",
"o.	c #EEBA1D",
"p.	c #EAB41C",
"q.	c #DDE3FB",
"r.	c #294C8B",
"s.	c #D8DFE7",
"t.	c #26497F",
"u.	c #133893",
"v.	c #263F91",
"w.	c #EEB911",
"x.	c #E9B706",
"y.	c #FFECF6",
"z.	c #CCDAE6",
"A.	c #CCE3DB",
"B.	c #EEBD0D",
"C.	c #D0D2DF",
"D.	c #748A98",
"E.	c #F1AF10",
"F.	c #FDF1C7",
"G.	c #F2B123",
"H.	c #FEECEA",
"I.	c #F2C852",
"J.	c #F2B73A",
"K.	c #F2B11F",
"L.	c #FCE8B9",
"M.	c #F5FFE1",
"N.	c #FCE5BB",
"O.	c #E3D491",
"P.	c #FCDBCB",
"Q.	c #F6AD00",
"R.	c #F8BB60",
"S.	c #FCBD7A",
"T.	c #E7B613",
"U.	c #EDBE00",
"V.	c #D5B18F",
"W.	c #D8BD48",
"X.	c #D6B9B1",
"Y.	c #F8E5F3",
"Z.	c #EBC052",
"`.	c #FDCA1D",
" +	c #DCAF1E",
".+	c #D8B556",
"++	c #F4E6D5",
"@+	c #E8B894",
"#+	c #EFC89A",
"$+	c #D9B464",
"%+	c #EFD8B6",
"&+	c #D7AC39",
"*+	c #E1B87A",
"=+	c #D8AB4E",
"-+	c #D8BD16",
";+	c #F4D8D7",
">+	c #ECCEB4",
",+	c #D9C58A",
"'+	c #EBE0C4",
")+	c #F0D224",
"!+	c #D4B22C",
"~+	c #DEC09C",
"{+	c #FCEBE5",
"                                                                                                                                ",
"                                                                                                                                ",
"                                                      . + @ # $ @ % $ % & *                                                     ",
"                                            = - ; > , ' ) ) ) ! ~ { ! ] ] ' ^ #                                                 ",
"                                        . / ^ ( _ { : ! ! { { { < [ } ) : | ! 1 < 2 - 3                                         ",
"                                      4 5 ' ) { < ' ! ( | : : { ( { 6 6 : < 7 2 ( { { # 8                                       ",
"                                    9 ( ( : ! : { { { : | ! < 1 ! ! ] } ! : { { 0 ] | { a b                                     ",
"                                c 5 ! : : 1 ! { 1 0 ! ! ( : : ! ! : { d : ) < } 6 ( 1 ) ) } d a e                               ",
"                                : : ( : : : : : : : : : : : ( : : : : : : : : : : : : : : : : : : f                             ",
"                          g $ h : : ! : ( : : : ( ! : ( ! : : ! : : : : : : : ) : : ( : : ( ! ( ' 6 %                           ",
"                          > | } ! : : : ! : : ! : : : : : ( : : : : : ( : : : : ! : ! : : ! : ( { i 0 @                         ",
"                        j : : 6 ( : : : : : : ( ! : ! : : : : : : : : ! : ) : : ( : : : : : : ! | ~ | ! k                       ",
"                      l { ! _ i : : : ! ! : : : : ( : ! : : : ( ( ! : ( ! : ! : : : : : : : : : m : ( } { c                     ",
"                    n { : { ! 7 : ! : ( : ( : : : : : : : ( ! : : : : : : : ( : : : ( ! ( ! : : 1 < : { } o p                   ",
"                    q } : 7 r _ : ( : : : : : ! : : : : : ! : : : : ( : : ! : : : : : : : : : : { 1 : { ~ | s                   ",
"                  t ( ! : ( ] } : : : ! ( : ( : : ! : ( : : : : : : ! : : ( : : ! ( : : : : ! ( { : m ' : ] u v                 ",
"                  w 0 { } 7 _ ! { ' ) } x : : ( ' ! ) { o ( ) ! { < ( ( } { { : ] r ! ] d u ] | : | ! : : } : 2                 ",
"                y ' } 6 } ) ( | { { ] ( } ( } 0 { ) m 1 _ | ! ) { ! ] d : } { ( : r ] : z i x ' : 1 ) ( { d ) ( A               ",
"                B 0 { { ! ) : | ] { o _ 7 ! : 9 C b D E c ^ z | ! _ | : _ ! : ( : ( 0 { { , F . G = H I ] ' ~ J >               ",
"                } } { { : ( : { { } < ' J { y K L M M N M O + P 0 6 { ] : o ) : ) : ! ( F Q R L S T O U k d J V _ W             ",
"              b ) _ ! 0 ' 7 7 ( ! _ d } V H X M Y O L L N N Z 3 l < { } < { ] { : : ~ + U N N T L O N L N ` , z |  .            ",
"              # { { ] ) : ! { ! < _ } o ..+.L L @.@.T O #.Z M L $.1 | 6 ) ( } 6 | 7 ..+.M L Z %.M @.L Z &.T = ' _ }             ",
"              6 : { ) : : } { ! 7 r } u 8 N *.T M L M =.-.;.>.Y U @ ! : ' ! : : r h ,.'.Z @.U T N ).!.~.{.].R - ! ! ^.          ",
"              } ) ) ) o : } _ ! _ | : / O '.O T '.O =./.(._.:.<.].D _ } d : { ] ] C T N ).M '.Y &.<.[.}.|.<.+.1.) o 2.          ",
"            b ' : : : : : : : : ) | ) E R '.L '.M Z >.3.4.5.6.6.7.8.] { 2 | ! { < G L '.'.Y M %.9._.6.:.4.0.;.a.: { v           ",
"            b.7 : : ! : : : ( ! : ( ' D @.%.M M T M c.d.d.5.(.e.c.f.d o ] : ( 7 : $.T M T M R M g.:.4.3.}.:.c.U : : q           ",
"            h.! ! : : : ( ! : : | ~ i.G %.%.T L U T j.k._.k.l.m.c.a.~ : } : : : ! $.L '.T T #.L n.5.|.}.0.|.n.8.: : o.          ",
"            p.{ : : : ( : : : : ) 0 ! c T Y M Z '.R q.r.(.m.[.3.s.8 ' ) : ! | : { & M N Z M M L s.t.4.k.u.v.=.g : { w.          ",
"            x.: : : : : ( : ( ! 2 } : 5 y.L N T '.O U z.c.t.g.A.M ..B.: { : ! ( { I y.N L O T T N C.g.r.D.z.'.& ! z w.          ",
"            E.( : ( : : : ! : : ! { { ( & '.'.T T L M L #.'.N Z K 2 < { : { ! ) : < & M L O Z M Y U M ].Y M F.{ : : o.          ",
"            G.) ! : : ! : ( ! : 0 r 7 : w = R L L Y T T L Y L H.4 } : _ ! ' : | ) { ~ g a.L L L '.@.T O M H.4 } ! ! q           ",
"            s ! : : ( : : : : : 6 m < ) | j g %.U M T L N N 3 # B.x } ! { ] : { 2 : } j ` U M Y T Y *.M K I.( d ) ( J.          ",
"            K.7 ! ( : : ( : ! : } : { : ! : r a L.3 +.a.g c ^ { : : : : ( : : : { ! } 0 w # E 8 M.8.N.c 5 ! } { { : O.          ",
"            K.) : : : ! : : : : : ( { : ! ) 2 , ! ! ( ' 7 ! ! } : : : : ! : ( : ) ( ! : | < ' u 7 { { { } ] ( { ! ) P.          ",
"            K.! : : ( : : ! : ( : : : : ! ] ! : { { : : ! ! ' ' : : : : ( : ! : 1 ! : { { { | | ! | z | : : : 7 0 ) G           ",
"            G.) : : : : : : : ! 7 : d : ! ! } ! 1 ) : : { | 0 } : : ( ! ! : : : { { : ! ) ' ( : ' ' ) ) : ' ) } ) z h.          ",
"            K.! ( : : : : : ( : ! : : : : : : : ! : : : : { { x : : : : : : : : | ! ( ( 1 ) 0 m : : | : 6 x { ( _ | p.          ",
"            K.) ! : ( : ! : : : ) ! : : { { : { { { 7 ' ' < 7 : : : : ) : : ! ( ! } : : { { 6 6 : ! ! ! : : ! } | } G.          ",
"            G.) ( : ! : : : ! : : : : 7 7 : : : i ! | ( : ( ! ) : ( : : ! ( : : { ( ! ! ! ! | : m ! 1 7 : : { { < ) o           ",
"            K.! ! : : : ( : : : { : ) ) ( ! : ! : ( : : : : : ! : ! : : : : : : { : : : ( ! 1 1 { { { : : } ! ' ( 6 Q.          ",
"            K.! : : : ( : : ( : ! : ! : : : ( ! : : : ! : : : ( : : : ) : ! ( : : ( : : ( : : : : : ! ( : ! : : : : p.          ",
"            G.! : ( : ! : : : : : : ( : : : : : : ! : ( : : : : : : : : : : : : : ! : : : ! : ! : : : : : : ( : : : J.          ",
"            K.! : ! ( ! : : : ! : : : : : : : : : ( : ! : : : : ) : : : : : ) : : : : ! : : : ! ( ! : : : : ! : ! d R.          ",
"            G.) : : : : ! ( : : ! : : : : ) : : : : : ( : ) : : : : : : : : : : : : : ( : : ( : : : : ! : ( : : } : S.          ",
"            K.) ! ( : : : : ! : : ! : : : : : ) ! : : : ( : : ! : : : : : ( : : ! ( ( : : : : : : ( ! : : : ! ( ! { S.          ",
"            G.! : : : : : : ( : : ( : : : : : : ( : : : : : : : : : : : : ! : : : : ! : : : : : : : : : : : : : ) : R.          ",
"            K.) : : : : : ! : : : : : : : : : : : : ( : ! : : ( : : ) : : : ) : : ( : : ! : : ( : : : : : : : : ! : J.          ",
"            G.! : ( ! : : ( : ( ! : : : ) : : : : : ! : : : : : : : : : : : : : : ! : : ( : : ! : ! ( : : : ! : : : p.          ",
"            K.} | : : | { ( ) ( ! { z ! ) _ : ! : } ( : { { ! } { : | { ( d o ! _ 7 ! } | { { { : : : { { : : { { { <           ",
"            K.) d ) ! : ) ) { } ) ' ( ! ] ! : o { : ! ! } ] ! 2 1 1 ] ] } ! ( _ ! | : ( ( ! < ] ( 0 } : 0 ] ! ~ : | <           ",
"            K.) ( { ) m < { { ! : z { { : < ( ' } : d ) ( { _ ] { | { { ( ] 0 7 } ( 7 : ( ) ) _ { : ( _ { d < m ( | 7           ",
"            K.! } { 6 _ { ! < 6 { } } ) 7 ! ! : ( : { ' ) | z o } { z ! } { { ) { ( | ' ( ! : o ! 7 ! ! ! { { : ! ! o.          ",
"            K.) ! ! { { } { : ] ! 0 0 : 6 6 } ] : { ! } : { : ) ! ( _ _ r o } ) { ! ] _ { | } ( | ( 2 { : : ( ! ! ! q           ",
"            K.( _ ) 0 } : : ! < K.d < 0 ! { d ) ! ! ! { { ! B.T.x.T.U.0 x ] ] 2 { 0 ) d { ) ) ' U.G.o.m } { { m ) | J.          ",
"            G.! : ) ) 6 { } t V.    ^.t ] | o o { } : 6 J x.W.X.  Y.  Z.< ! { o ! ! `.o : (  +.+    ++..9 | z 6 7 ( v           ",
"            K.7 | { : ] 7 @+++        .+2 | _ m ) { : ] w #+Y.        D > } { ' { ! : ! ) w.$+          E w 0 ' : _ h.          ",
"            t { ' o | ' %+              &+| ] ' ) o ] V *+T             @+2 ] ' _ 7 : : { =+              - < : ] } -+          ",
"            $+0 { } 0 &+                  h J { } { {  +                  =+: } } ) i 7 W                 ;+i.[ x o h.          ",
"            >+j ! _ &+                      i.| < ( T.,+                  '+&+6 ' z _ b.                    ;+)+] ' W           ",
"              . q !+                            g #+~+                      ++1.H / %+                        H.{+g             ",
"                                                                                                                                ",
"                                                                                                                                ",
"                                                                                                                                ",
"                                                                                                                                "};
