/* XPM */
static char *pacman_phantom_right1664888416[] = {
/* columns rows colors chars-per-pixel */
"64 64 251 2 ",
"   c None",
".  c #173D7A",
"X  c #004276",
"o  c #054378",
"O  c #26497F",
"+  c #DCAF1E",
"@  c #DDAF1E",
"#  c #F6AD00",
"$  c #E9B706",
"%  c #EDBE00",
"&  c #EFBE02",
"*  c #EBB807",
"=  c #EFB90A",
"-  c #EEBD0D",
";  c #F5B104",
":  c #FEB504",
">  c #F6BD04",
",  c #F6BD05",
"<  c #F7BD06",
"1  c #FCBD04",
"2  c #FCBD05",
"3  c #FEB60B",
"4  c #FEB70C",
"5  c #F0BD0E",
"6  c #F5BC0C",
"7  c #F9BD0A",
"8  c #FCBD0B",
"9  c #FEBB0F",
"0  c #F8BD0F",
"q  c #F9BD0F",
"w  c #FDBD0C",
"e  c #FDBD0D",
"r  c #FDBD0E",
"t  c #FDBD0F",
"y  c #FDBF0F",
"u  c #F1AF10",
"i  c #E7B613",
"p  c #E9B713",
"a  c #EEB911",
"s  c #EDB813",
"d  c #EAB41C",
"f  c #EEBA1D",
"g  c #F6B311",
"h  c #FDB613",
"j  c #F2BA13",
"k  c #F4BD12",
"l  c #FBBB12",
"z  c #FDBC10",
"x  c #FDBD10",
"c  c #FDBE11",
"v  c #FDBF11",
"b  c #FDBD13",
"n  c #FDBE12",
"m  c #FDBF12",
"M  c #FDBE13",
"N  c #F9BD16",
"B  c #F8BD17",
"V  c #FDBD15",
"C  c #FDBE15",
"Z  c #FEBD16",
"A  c #F2B11F",
"S  c #F3B31E",
"D  c #F4B41D",
"F  c #FDB51B",
"G  c #F3BC1B",
"H  c #F9B918",
"J  c #FEBD18",
"K  c #FEBC19",
"L  c #FEBD19",
"P  c #FEBC1B",
"I  c #F9BC1D",
"U  c #D7AC39",
"Y  c #E8B727",
"T  c #F2B123",
"R  c #FCB421",
"E  c #F6BD21",
"W  c #FEBC21",
"Q  c #FEBC22",
"!  c #F9BC26",
"~  c #F0B62E",
"^  c #F3BF28",
"/  c #FDB929",
"(  c #E7BB34",
")  c #F7B331",
"_  c #F2B73A",
"`  c #E9C50B",
"'  c #F5C203",
"]  c #FCC204",
"[  c #FCC205",
"{  c #FCC107",
"}  c #F7C108",
"|  c #F5C20D",
" . c #F9C00B",
".. c #FCC108",
"X. c #FCC10A",
"o. c #FDC10C",
"O. c #FDC10D",
"+. c #FDC00E",
"@. c #FCCB09",
"#. c #E9C419",
"$. c #F6C313",
"%. c #FDC113",
"&. c #F6C31B",
"*. c #FEC119",
"=. c #FEC21A",
"-. c #FEC21B",
";. c #F7C91A",
":. c #EDC727",
">. c #F6C423",
",. c #F5C525",
"<. c #FEC223",
"1. c #FDC12B",
"2. c #F5C82F",
"3. c #F9C92B",
"4. c #EBC836",
"5. c #F4C532",
"6. c #F6C63D",
"7. c #F8C738",
"8. c #FAC43C",
"9. c #D8BD48",
"0. c #DCB652",
"q. c #D8B556",
"w. c #E0BD41",
"e. c #F5B847",
"r. c #F1B854",
"t. c #E1BD69",
"y. c #F8BB60",
"u. c #E1B87A",
"i. c #FCBD7A",
"p. c #FDC647",
"a. c #FFD047",
"s. c #F2C852",
"d. c #F6CE5B",
"f. c #E8C865",
"g. c #EECE6E",
"h. c #FDCC65",
"j. c #F5CB6B",
"k. c #FBD264",
"l. c #F3D26C",
"z. c #F9D56C",
"x. c #EACB77",
"c. c #F6C873",
"v. c #F5CB7B",
"b. c #FDCD7D",
"n. c #F9D575",
"m. c #F9D57A",
"M. c #073683",
"N. c #043D85",
"B. c #093A87",
"V. c #033B88",
"C. c #0A3D8C",
"Z. c #173C89",
"A. c #063E93",
"S. c #0C3E93",
"D. c #133893",
"F. c #263F91",
"G. c #054684",
"H. c #01418C",
"J. c #0A428C",
"K. c #034293",
"L. c #0D4494",
"P. c #294C8B",
"I. c #5B6BA6",
"U. c #5F75A6",
"Y. c #748A98",
"T. c #7489A9",
"R. c #6E86B0",
"E. c #8797AA",
"W. c #9CABBD",
"Q. c #A3A3BB",
"!. c #DFBA9F",
"~. c #D6B9B1",
"^. c #DCC485",
"/. c #D9C58A",
"(. c #DEC09C",
"). c #EECB8B",
"_. c #F6C988",
"`. c #F9D583",
"'. c #F8D789",
"]. c #E1C095",
"[. c #EFC899",
"{. c #EFC89A",
"}. c #F1C791",
"|. c #FCCF98",
" X c #E3D491",
".X c #F7D395",
"XX c #FEDB94",
"oX c #FCDA99",
"OX c #FDE18E",
"+X c #EDD6A4",
"@X c #FCD5A7",
"#X c #F6D9A7",
"$X c #FCDDAB",
"%X c #F6D8B7",
"&X c #FFDCB9",
"*X c #FEE5A7",
"=X c #FFE4B6",
"-X c #F7E1BA",
";X c #FCE5BB",
":X c #FCE8B9",
">X c #FAF0BD",
",X c #819FC3",
"<X c #96A5CE",
"1X c #A0AAC5",
"2X c #ABB0CE",
"3X c #BBC1CA",
"4X c #BDD0CE",
"5X c #BFCAE0",
"6X c #D0D2DF",
"7X c #FDDBC3",
"8X c #FCDBCB",
"9X c #CCE3DB",
"0X c #FCE4C2",
"qX c #FDE5CB",
"wX c #F9EBCB",
"eX c #FDF1C7",
"rX c #FBE3D3",
"tX c #FFECD1",
"yX c #FFEBDA",
"uX c #F7F5D6",
"iX c #FCF5DD",
"pX c #CCDAE6",
"aX c #D8DFE7",
"sX c #DDE3FB",
"dX c #F6EEE3",
"fX c #FEECEA",
"gX c #EDFFED",
"hX c #FDF3E4",
"jX c #F5FFE1",
"kX c #FEFDE5",
"lX c #F7F6EB",
"zX c #FEF2ED",
"xX c #F4FDEC",
"cX c #FBFDEC",
"vX c #E6ECF8",
"bX c #F8E5F3",
"nX c #FFECF6",
"mX c #FEEBFE",
"MX c #E9F6F8",
"NX c #F0F4F7",
"BX c #FFF4F7",
"VX c #F5FEF3",
"CX c #FDFEF4",
"ZX c #FFFFF7",
"AX c #FEF5FD",
"SX c #F5FEFD",
"DX c #FAFFF9",
"FX c #FEFEF9",
"GX c #FEFAFE",
"HX c #FDFDFF",
"JX c white",
/* pixels */
"                                                                                                                                ",
"                                                                                                                                ",
"                                                      #XXXz.h.d.z.k.d.k.'.-X                                                    ",
"                                            =Xl.a.7.1.$.o.o.o.w <.P w ] ] $.8.h.                                                ",
"                                        #Xg.8.%.-.P n w w P P P 6 ; 1 o.n 3 w | 6 &.l.wX                                        ",
"                                      j.5.$.o.P 6 $.w %.3 n n P %.P Q Q n 6 k &.%.P P h.yX                                      ",
"                                    3.%.%.n w n P P P n 3 w 6 | w w ] 1 w n P P > ] 3 P p.@X                                    ",
"                                m.5.w n n | w P | > w w %.n n w w n P G n o.6 1 Q %.| o.o.1 G p.dX                              ",
"                                n n %.n n n n n n n n n n n %.n n n n n n n n n n n n n n n n n n OX                            ",
"                          0Xd.#.n n w n %.n n n %.w n %.w n n w n n n n n n n o.n n %.n n %.w %.$.Q k.                          ",
"                          7.3 1 w n n n w n n w n n n n n %.n n n n n %.n n n n w n w n n w n %.P : > z.                        ",
"                        :.n n Q %.n n n n n n %.w n w n n n n n n n n w n o.n n %.n n n n n n w 3 <.3 w oX                      ",
"                      6.P w -.: n n n w w n n n n %.n w n n n %.%.w n %.w n w n n n n n n n n n ' n %.1 P m.                    ",
"                    f.P n P w k n w n %.n %.n n n n n n n %.w n n n n n n n %.n n n %.w %.w n n | 6 n P 1 F .X                  ",
"                    ~ 1 n k / -.n %.n n n n n w n n n n n w n n n n %.n n w n n n n n n n n n n P | n P <.3 )                   ",
"                  ( %.w n %.] 1 n n n w %.n %.n n w n %.n n n n n n w n n %.n n w %.n n n n w %.P n ' $.n ] ;.e.                ",
"                  ,.> P 1 k -.w P $.o.1 R n n %.$.w o.P F %.o.w P 6 %.%.1 P P n ] / 8 ] G ;.] 3 n 3 8 n n 1 n &.                ",
"                b.$.1 Q 1 o.%.3 P P ] %.1 %.1 < P o.' | -.3 w o.P w ] G n 1 P %.n / ] n h : R $.n | X.%.P G X.%.x.              ",
"                ^ > P P w o.n 3 ] P F -.k w n 3.c.@X7X$Xm.8.h 3 w -.3 n -.w n %.n %.> P P 1.n.#X&X=X|.4.] $.<.g 7.              ",
"                1 1 P P n %.n P P 1 6 $.g P b.wXDXHXHXSXHXZXXX2.> Q P ] n F o.n X.n 8 %.n.rXcXDXkXGXZXAXXXG g @.-.).            ",
"              @Xo.-.w > $.k k %.w -.G 1 @.|.mXHXVXZXDXSXSXSXZXwX6.6 P 1 6 P ] P n n <.XXBXSXSXGXDXZXSXDXSXqX1.h 4 Y             ",
"              h.P P ] o.n w P w 6 -.1 F `.zXDXDXAXAXAXFXlXVXHXDX*X| 3 Q o.%.1 Q 3 k `.zXHXDXZXFXHXAXDXCXNXGX=X$.-.1             ",
"              Q n P o.n n 1 P w k / 1 ;.yXSXxXGXHXDXHXvX6XW.2XVXBXz.w n $.w n n / #.>XHXCXAXBXGXSXgX3XQ.4XMXcXl.w w +X          ",
"              1 o.o.o.F n 1 -.w -.3 n g.ZXHXZXGXHXZXvXU.B.H.. I.MX7X-.1 G n P ] ] c.GXSXgXHXHXVXNXI.M.G.V.I.zX%Xo.F t.          ",
"            @X$.n n n n n n n n o.3 o.$XcXHXDXHXHXZX2XZ.A.J.C.C.<XiX] P &.3 w P 6 &XDXHXHXVXHXFX<XV.C.. A.A.W.hXn P e.          ",
"            _.k n n w n n n %.w n %.$.7XAXFXHXHXGXHXT.o o J.B.X T.uXG F ] n %.k n *XGXHXHXHXcXHXT.. A.Z.G.. T.BXn n ~           ",
"            r.w w n n n %.w n n 3 <.` &XFXFXGXDXBXGX,XN.H.N.S.L.T.hX<.n 1 n n n w *XDXHXGXGXlXDXE.G.V.G.A.V.E.iXn n f           ",
"            d P n n n %.n n n n o.> w m.GXVXHXCXHXcXsXP.B.L.M.Z.aXyX$.X.n 8 4 n P '.HXSXZXHXHXDXaXP.A.V.D.P.vX0Xn P a           ",
"            $ n n n n n %.n %.w &.1 n 5.nXDXSXGXHXZXBXpXT.O R.9XHX`.- n P n w %.P 4.nXSXDXZXGXGXSX6XR.P.Y.pXHX'.w h a           ",
"            u %.n %.n n n w n n w P P %.'.HXHXGXGXDXHXDXlXHXSXZXtX&.6 P n P w X.n 6 '.HXDXZXZXHXVXBXHXMXVXHXeXP n n f           ",
"            T o.w n n w n %.w n > / k n ,.=XcXDXDXVXGXGXDXVXDXfXj.1 n -.w $.n 3 X.P <.0XhXDXDXDXHXAXHXZXHXfXj.1 w w ~           ",
"            ) w n n %.n n n n n Q ' 6 o.3 :.0XZXBXHXGXDXSXSXwXh.- R 1 w P ] n P &.n 1 :.qXBXHXVXGXVXxXHXtXs.%.G o.%._           ",
"            A k w %.n n %.n w n 1 n P n w n / p.:XwXzXhX0Xm.7.P n n n n %.n n n P w 1 > ,.h.$XyXjXiX;Xm.5.w 1 P P n  X          ",
"            A o.n n n w n n n n n %.P n w o.&.1.w w %.$.k w w 1 n n n n w n n n o.%.w n 4 6 $.;.k P P P 1 ] %.P w o.8X          ",
"            A w n n %.n n w n %.n n n n w ] w n P P n n w w $.$.n n n n %.n w n | w n P P P 3 3 w 3 h 3 n n n k > o.&X          ",
"            T o.n n n n n n n w k n G n w w 1 w | o.n n P 3 > 1 n n %.w w n n n P P n w o.$.%.n $.$.o.o.n $.o.1 o.h r.          ",
"            A w %.n n n n n %.n w n n n n n n n w n n n n P P R n n n n n n n n 4 w %.%.| o.> ' n n 3 n Q R P %.-.3 d           ",
"            A o.w n %.n w n n n o.w n n P P n P P P k $.$.6 k n n n n o.n n w %.w 1 n n P P Q Q n w w w n n w 1 3 1 T           ",
"            T o.%.n w n n n w n n n n k k n n n : w 3 %.n %.w o.n %.n n w %.n n P %.w w w w 3 n ' w | k n n P P 6 o.F           ",
"            A w w n n n %.n n n P n o.o.%.w n w n %.n n n n n w n w n n n n n n P n n n %.w | | P P P n n 1 w $.%.Q #           ",
"            A w n n n %.n n %.n w n w n n n %.w n n n w n n n %.n n n o.n w %.n n %.n n %.n n n n n w %.n w n n n n d           ",
"            T w n %.n w n n n n n n %.n n n n n n w n %.n n n n n n n n n n n n n w n n n w n w n n n n n n %.n n n _           ",
"            A w n w %.w n n n w n n n n n n n n n %.n w n n n n o.n n n n n o.n n n n w n n n w %.w n n n n w n w G y.          ",
"            T o.n n n n w %.n n w n n n n o.n n n n n %.n o.n n n n n n n n n n n n n %.n n %.n n n n w n %.n n 1 n i.          ",
"            A o.w %.n n n n w n n w n n n n n o.w n n n %.n n w n n n n n %.n n w %.%.n n n n n n %.w n n n w %.w P i.          ",
"            T w n n n n n n %.n n %.n n n n n n %.n n n n n n n n n n n n w n n n n w n n n n n n n n n n n n n o.n y.          ",
"            A o.n n n n n w n n n n n n n n n n n n %.n w n n %.n n o.n n n o.n n %.n n w n n %.n n n n n n n n w n _           ",
"            T w n %.w n n %.n %.w n n n o.n n n n n w n n n n n n n n n n n n n n w n n %.n n w n w %.n n n w n n n d           ",
"            A 1 4 n n 3 P %.X.%.w P h w o.-.n w n 1 %.n P P w 1 P n 3 P %.G F w -.k w 1 3 P P P n n n P P n n P P P 6           ",
"            A o.G o.w n o.o.P 1 o.$.%.w ] w n F P n w w 1 ] w &.| | ] ] 1 8 %.-.w 3 n %.%.w 6 ] %.> 1 n > ] w <.n 3 6           ",
"            A o.%.P o.' 6 P P 8 n h P P n 6 %.$.1 n G o.%.P -.] P 3 P P %.] > k 1 %.k n %.o.o.-.P n %.-.P G 6 ' %.3 k           ",
"            A w 1 P Q -.P w 6 Q P 1 1 o.k w w n %.n P $.X.3 h F 1 P h w 1 I P o.P %.3 $.%.w n F w k w w w P P n w w f           ",
"            T o.w w P P 1 P n ] w > > n Q Q 1 ] n P 8 1 n P n o.w %.-.-./ F 1 o.P w ] -.P 3 1 %.3 %.&.P n n %.w w n I           ",
"            D n -.o.> 1 n n w q H I q 7 n V N n n n n V P w 5 a * p > > R ] ] &.P > o.G P o.o.$.% T f ' 1 P P  .w w !           ",
"            8 n Q g $ 9.~.  n n n n n n n n n n n n n n     +X( ] 4 F F P 1 n Q g $ 9.~.  +X( ] 3 F F P 1 n Q g $ 9.~.          ",
"            V n ] ,.{.bX    v.E X.n n n n n n V n = w.!.      q.&.3 -.' o.P n ] ,.{.bX      q.&.3 -.' o.P n ] ,.{.bX            ",
"            n X.@.u.GX        0.&.4 -.} w P V ] >.{.bX          U 3 ] $.o.F ] @.u.GX          U 3 ] $.o.F ] @.u.GX              ",
"            V P @               U 3 ] $.X.F ] @.u.GX              #.g P 1 P P +                 #.g P 1 P P @                   ",
"            n j ^.                #.g P 1 P P +                     ` 3 6 %.i /.                  ` 4 6 %.i /.                  ",
"            }.].                    ` 3 6 %.i /.                        0X{.(.                        0X{.(.                    ",
"                                        0X{.(.                                                                                  ",
"                                                                                                                                ",
"                                                                                                                                ",
"                                                                                                                                "
};
