/* XPM */
static char *pacman_phantom_left_LR1664891551[] = {
/* columns rows colors chars-per-pixel */
"70 64 213 2 ",
"   c None",
".  c #173D7A",
"X  c #054378",
"o  c #26497F",
"O  c #DCAF1E",
"+  c #F6AD00",
"@  c #E9B706",
"#  c #EDBE00",
"$  c #EBB807",
"%  c #EEBD0D",
"&  c #F5B104",
"*  c #FEB504",
"=  c #F6BD04",
"-  c #FCBD04",
";  c #FEB60B",
":  c #FEB70C",
">  c #F1BA0B",
",  c #F5BC0C",
"<  c #FEBA0E",
"1  c #FDBD0C",
"2  c #F1AF10",
"3  c #E7B613",
"4  c #E9B713",
"5  c #EEB911",
"6  c #EDB813",
"7  c #EAB41C",
"8  c #EEBA1D",
"9  c #F6B311",
"0  c #FDB613",
"q  c #F4BD12",
"w  c #FDBC10",
"e  c #FCBC12",
"r  c #FDBE12",
"t  c #FDBD15",
"y  c #F2B11F",
"u  c #FDB51B",
"i  c #F3BC1B",
"p  c #F6BD19",
"a  c #FDB818",
"s  c #FEBC1B",
"d  c #F9BC1D",
"f  c #DAAD37",
"g  c #D7AC39",
"h  c #E8B727",
"j  c #F2B123",
"k  c #FCB421",
"l  c #FEBC22",
"z  c #F9BC26",
"x  c #F0B62E",
"c  c #F2BC28",
"v  c #F3BF28",
"b  c #FDB929",
"n  c #E7BB34",
"m  c #E8BB33",
"M  c #EEBE32",
"N  c #F7B331",
"B  c #F2B73A",
"V  c #FBBF3F",
"C  c #E9C50B",
"Z  c #F5C203",
"A  c #FCC204",
"S  c #FCC205",
"D  c #F5C20D",
"F  c #FCC00A",
"G  c #FDC10C",
"H  c #FCCB09",
"J  c #E9C419",
"K  c #F6C313",
"L  c #FDC113",
"P  c #F6C31B",
"I  c #FEC21B",
"U  c #F7C91A",
"Y  c #EDC727",
"T  c #F5C525",
"R  c #FEC223",
"E  c #FDC12B",
"W  c #F5C82F",
"Q  c #F9C92B",
"!  c #EBC836",
"~  c #F4C532",
"^  c #F6C63D",
"/  c #F8C738",
"(  c #FAC43C",
")  c #D9BD47",
"_  c #D8BD48",
"`  c #D8B556",
"'  c #F5B847",
"]  c #F1B854",
"[  c #E1BD69",
"{  c #F8BB60",
"}  c #E3B877",
"|  c #E1B87A",
" . c #FCBD7A",
".. c #FDC647",
"X. c #FFD047",
"o. c #F2C852",
"O. c #F6CE5B",
"+. c #E8C865",
"@. c #EECE6E",
"#. c #FDCC65",
"$. c #F5CB6B",
"%. c #FBD264",
"&. c #F3D26C",
"*. c #F9D56C",
"=. c #EACB77",
"-. c #F6C873",
";. c #FDCD7D",
":. c #F9D575",
">. c #F9D57A",
",. c #073683",
"<. c #043D85",
"1. c #093A87",
"2. c #033B88",
"3. c #0A3D8C",
"4. c #173C89",
"5. c #063E93",
"6. c #0C3E93",
"7. c #133893",
"8. c #263F91",
"9. c #054684",
"0. c #01418C",
"q. c #0A428C",
"w. c #034293",
"e. c #0D4494",
"r. c #294C8B",
"t. c #5B6BA6",
"y. c #5F75A6",
"u. c #748A98",
"i. c #7489A9",
"p. c #6E86B0",
"a. c #8797AA",
"s. c #9CABBD",
"d. c #A3A3BB",
"f. c #DCBAA5",
"g. c #D6B9B1",
"h. c #D9C58A",
"j. c #DEC09C",
"k. c #EECB8B",
"l. c #F6C988",
"z. c #F9D583",
"x. c #F2D08E",
"c. c #F8D789",
"v. c #EFC89A",
"b. c #F0C796",
"n. c #FCCF98",
"m. c #E3D491",
"M. c #F7D395",
"N. c #FED192",
"B. c #FEDB94",
"V. c #F0D298",
"C. c #FCDA99",
"Z. c #FDE18E",
"A. c #EDD6A4",
"S. c #FCD5A7",
"D. c #F6D9A7",
"F. c #FCDDAB",
"G. c #F6D8B7",
"H. c #FFDCB9",
"J. c #FEE5A7",
"K. c #FFE4B6",
"L. c #F7E1BA",
"P. c #FCE5BB",
"I. c #FAF0BD",
"U. c #819FC3",
"Y. c #96A5CE",
"T. c #ABB0CE",
"R. c #BBC1CA",
"E. c #BDD0CE",
"W. c #BFCAE0",
"Q. c #D0D2DF",
"!. c #FDDBC3",
"~. c #FCDBCB",
"^. c #CCE3DB",
"/. c #FCE4C2",
"(. c #FDE5CB",
"). c #F9EBCB",
"_. c #FDF1C7",
"`. c #FBE3D3",
"'. c #FFECD1",
"]. c #FFEBDA",
"[. c #F7F5D6",
"{. c #FCF5DD",
"}. c #CCDAE6",
"|. c #D8DFE7",
" X c #DDE3FB",
".X c #F6EEE3",
"XX c #F8E2E9",
"oX c #FEECEA",
"OX c #EDFFED",
"+X c #FDF3E4",
"@X c #F5FFE1",
"#X c #FEFDE5",
"$X c #F7F6EB",
"%X c #FEF2ED",
"&X c #F4FDEC",
"*X c #FBFDEC",
"=X c #E6ECF8",
"-X c #F8E5F3",
";X c #FFECF6",
":X c #FEEBFE",
">X c #E9F6F8",
",X c #F0F4F7",
"<X c #FFF4F7",
"1X c #F5FEF3",
"2X c #FDFEF4",
"3X c #FFFFF7",
"4X c #FEF5FD",
"5X c #F5FEFD",
"6X c #FAFFF9",
"7X c #FEFEF9",
"8X c #FEFAFE",
"9X c #FDFDFF",
"0X c white",
/* pixels */
"                                                                                                                                            ",
"                                                                                                                                            ",
"                                                                L.c.%.O.%.*.O.#.*.B.D.                                                      ",
"                                                            #./ K S S 1 s R 1 G G G K E / X.&.K.                                            ",
"                                                    ).&.P , D 1 ; r G - & , s s s 1 1 r s I L ( @.D.                                        ",
"                                                  ].#.s s L P q , r l l s L s r r ; L 1 K , s G K ~ $.                                      ",
"                                                S...s ; S = s s r 1 - S 1 1 D , 1 ; r s s s r 1 r L L Q                                     ",
"                                          .X..i - G G D L l - , G r i s r 1 1 r r L 1 1 = D s 1 D r r 1 ~ >.                                ",
"                                        Z.r r r r r r r r r r r r r r r r r r L r r r r r r r r r r r L r r                                 ",
"                                      %.l K L 1 L r r L r L F r r r r r r r 1 r r 1 L r 1 L r r r L r 1 r r J O./.                          ",
"                                    *.= * s L r 1 r r 1 r 1 r r r r L r r r r r L r r r r r 1 r r 1 r r r 1 - ; /                           ",
"                                  C.1 ; R ; 1 r r r r r r L r r G r 1 r r r r r r r r 1 r 1 L r r r r r r L l r r Y                         ",
"                                >.s - L r Z r r r r r r r r r 1 r 1 L r 1 L L r r r 1 r L r r r r 1 1 r r r * I 1 s ^                       ",
"                              M.u - s r , D r r 1 L 1 L r r r L r r r r r r r 1 L r r r r r r r L r L r 1 r q 1 s r s +.                    ",
"                              N ; R s r D s r r r r r r r r r r 1 r r L r r r r 1 r r r r r 1 r r r r r L r I b q r - x                     ",
"                            ' U S r K Z r s L 1 r r r r L 1 r r L r r 1 r r r r r r L r 1 r r L r L 1 r r r - S L r 1 L n                   ",
"                            P r - r r 1 ; r ; S P i A 1 b A r s s - L L , s 1 F L u s G 1 K L r r k - G K s 1 I q - s = T                   ",
"                          =.L G i s L G D r K k * 0 L A b e L s - r i A 1 s G 1 ; I D Z F s = - L - L S s s ; L F - l - K ;.                ",
"                          / 9 R K S ! n.K.H.D.:.E s s = L r L r 1 I r ; I 1 ; 0 ( >.F.!.S.-.Q r 1 q I u s A ; r G 1 s s = T                 ",
"                        k.I H 9 i C.<X3X8X#X6X*X`.:.L 1 e F r F u r S s l = W B.3X0X5X0X0X6X).;.s 9 K , - s s r L r s s - -                 ",
"                        h ; 0 E (.5X5X5X3X6X8X5X5X<XB.R r L s A s , - s , ^ ).2X5X5X6X6X3X1X0X:Xn.H - i I 1 L q q K = 1 s G S.              ",
"                        - I K K.8X,X3X2X4X0X3X3X6X0X%Xz.q ; l - L F l ; D J.5X0X3X$X3X8X4X4X6X6X%Xz.u - I , 1 s 1 r G S s s #.              ",
"                      A.1 1 &.*X>XE.d.R.OX5X8X<X4X3X0XI.J b e r 1 K r 1 *.<X1XT.s.W.=X0X6X0X8X&X5X].U - b q 1 s - r r G s t l               ",
"                      [ u G G.%Xt.<.9.,.t.,X1X9X0XOX5X8X-.A A s r i - I !.>Xt.. 0.1.y.=X3X0X8X3X0X3X@.r ; I 1 I - r u G G G -               ",
"                      ' s r +Xs.w.5.. 3.0.Y.7X0X1X0X0X6XH., s 1 ; P s S {.Y.3.3.q.5.4.T.6X0X8X6X0X*XF.G ; G r r r r r r r r K S.            ",
"                      x r r <Xi.. 9.4.5.. i.0X*X0X8X0X8XJ.e q L r A u i [.i.X 1.q.X X i.0X8X0X0X7X4X!.K L r 1 L r r r 1 r r q l.            ",
"                      8 r r {.a.2.w.9.2.q.a.6X$X8X8X0X6XJ.1 r r r - r R +Xi.e.6.<.2.<.U.8X<X6X8X7X7XH.C R ; r r 1 L r r r 1 1 ]             ",
"                      5 s r /.=X8.7.<.5.o |.6X0X0X2X5X0Xc.s r : 1 r F K ].|.4.,.e.1.r. X*X0X2X0X1X8X>.1 = G r r r r L r r r s 7             ",
"                      5 0 1 c.0X}.u.r.p.Q.5X8X8X3X6X5X;X! s L 1 r s r % z.0X^.p.o i.}.<X3X9X8X5X6X;X~ e - P 1 L r L r r r r r $             ",
"                      8 r r s _.0X1X>X0X<X1X0X2X3X6X0Xc., e F 1 s r s , P '.3X5X9X$X6X0X6X8X8X0X0Xc.L s s 1 r r 1 r r r L r L 2             ",
"                      x 1 1 - $.oX0X3X8X4X0X6X6X6X+X/.R s F ; r K 1 I e - $.oX6X1X6X8X8X1X6X6X*XK.T r q b = r 1 L r 1 r r 1 F j             ",
"                      B L G i L o.'.0X&X1X8X1X0X<X(.Y - e P s r A s 1 - u % #.).5X5X6X8X0X<X7X/.Y ; G , Z l r r r r r L r r 1 N             ",
"                      m.r s s - 1 ~ >.P.{.@X].F.#.T = - 1 s r r r L r r r r s ( >./.+X%X).P...b r 1 r s r - r 1 r L r r L 1 q j             ",
"                      ~.G 1 s L S - s s s q U K , ; r 1 L G r L r 1 r r r r - 1 1 q K L 1 1 E P G 1 r s L r r r r r 1 r r r F y             ",
"                      H.G = q r r r ; 0 ; 1 ; ; s s s r 1 D r 1 r L r r r r K K 1 1 r r s s r 1 A 1 r r r r L r 1 r r L r r 1 y             ",
"                      ] 0 G - G K r G G K K r L K G 1 r s s r r r 1 1 L r r - = : s r r F D 1 - 1 1 r p r q 1 r r r r r r r G j             ",
"                      7 ; I L s k l r ; r r Z = G D L L 1 ; r r r r r r r r k s s r r r L 1 r r r r r r r 1 r L r r r r r L 1 y             ",
"                      j - : - 1 r r 1 1 1 r l l s s r r - 1 L 1 r r G r r r r q , K K q s s s r s s r r 1 G r r r 1 r L r 1 G y             ",
"                      u G , s s r r q D 1 Z r ; 1 1 1 1 L s r r L 1 r r L r G 1 L r L : 1 * r r r q q r r r r 1 r r r 1 r L G j             ",
"                      + l L K 1 - r r s s s D D 1 L r r r s r r r r r r 1 r 1 r r r r r L r 1 r 1 L G G r s r r r L r r r 1 1 j             ",
"                      7 r r r r 1 r L 1 r r r r r L r r L r r L 1 r G r r r L r r r 1 r r r 1 L r r r 1 r 1 r L r r L r r r 1 y             ",
"                      B r r r L r r r r r r 1 r 1 r r r 1 r r r r r r r r r r r r r L r 1 r r r r r r L r r r r r r 1 r L r 1 j             ",
"                      { i 1 r 1 r r r r 1 L 1 r r r 1 r r r r G r r r r r G r r r r 1 r L r r r r r r r r r 1 r r r 1 L 1 r 1 y             ",
"                       .r - r r L r 1 r r r r L r r L r r r r r r r r r r r r r G r L r r r r r G r r r r 1 r r L 1 r r r r G j             ",
"                       .s 1 L 1 r r r 1 L r r r r r r L L 1 r r L r r r r r 1 r r L r r r 1 G r r r r r 1 r r 1 r r r r L 1 G y             ",
"                      { r F r r r r r r r r r r r r r 1 r r r r 1 r r r r r r r r r r r r L r r r r r r L r r L r r r r r r 1 j             ",
"                      B r 1 r r r r r r r r L r r 1 r r L r r G r r r G r r L r r 1 r L r r r r r r r r r r r r 1 r r r r r G y             ",
"                      7 r r r 1 r r r L 1 r 1 r r L r r 1 r r r r r r r r r r r r r r 1 r r r r r G r r r 1 L r L r r 1 L r 1 j             ",
"                      , s s s r r s s r r r s s s ; - 1 q I 1 u i L s ; r s - 1 s s r L - r 1 r I G 1 0 s 1 L G L s : r r ; - y             ",
"                      , ; r R 1 S = r - = L S , 1 L L r : 1 I L 1 - A S D D P 1 S - 1 1 r s u r 1 A 1 L K F - s G G r 1 G i G y             ",
"                      q ; L Z , i s I L r s I G F L r q L - q = A L s s ; s S I s L G p r - K L , r s s 0 r 1 s s , Z G s L G y             ",
"                      8 1 1 r s s 1 1 1 q 1 u r 1 L K ; L s G s s - 1 0 s - u w < 1 K s r L r 1 1 q F - - s l , 1 s I l s - 1 y             ",
"                      d r 1 1 L r r s P L : L - ; s I S 1 s F - u b I I L 1 G t s t - 1 s r S - l l r = = 1 A r s - s s 1 1 G y             ",
"                      z < G 1 s s - Z 8 j # K F G s i G = s P S A k = = 4 @ 6 % 1 s t 1 r r F p s 1 = , i j , 1 r r - = G I L y             ",
"                      < F m V.    g.) , 9 l r - s u u ; S m A.      L w r r r r r L r r r r r r r   g._ @ 9 l r - s u u ; S n A.            ",
"                      r L `         XXV T S r s G Z I ; P `         f.M , w t r 1 t a u : S c x.      -Xv.T S r s F Z I ; P `               ",
"                      r f             N.} H S u G K S : f             -Xb.T S r s G Z I ; P `           8X| H S u G K S ; g                 ",
"                      J                   O s s - s 9 J                 8X| H S u G K S ; g                 O s s - s 9 J                   ",
"                                          h.3 L , : C                       O s s - s 9 J                   h.4 L , : C                     ",
"                                            j.v./.                          h.3 L , : C                       j.v./.                        ",
"                                                                              j.v./.                                                        ",
"                                                                                                                                            ",
"                                                                                                                                            ",
"                                                                                                                                            "
};
