/* XPM */
static char *pacman_phantom_left1664888416[] = {
/* columns rows colors chars-per-pixel */
"64 64 243 2 ",
"   c None",
".  c #173D7A",
"X  c #004276",
"o  c #054378",
"O  c #26497F",
"+  c #DCAF1E",
"@  c #F6AD00",
"#  c #E9B706",
"$  c #EDBE00",
"%  c #EFBE02",
"&  c #EBB807",
"*  c #EEBD0D",
"=  c #F5B104",
"-  c #FEB504",
";  c #F6BD04",
":  c #F7BD06",
">  c #FCBD04",
",  c #FCBD05",
"<  c #FEB60B",
"1  c #FEB70C",
"2  c #F1BA0B",
"3  c #F0BD0E",
"4  c #F5BC0C",
"5  c #FEBA0E",
"6  c #FEBA0F",
"7  c #FEBB0F",
"8  c #F8BC0F",
"9  c #FDBD0C",
"0  c #FDBD0D",
"q  c #FDBD0F",
"w  c #FDBE0E",
"e  c #F1AF10",
"r  c #E7B613",
"t  c #E9B713",
"y  c #EEB911",
"u  c #EDB813",
"i  c #EAB41C",
"p  c #EEBA1D",
"a  c #F6B311",
"s  c #FDB613",
"d  c #F4BD12",
"f  c #FDBC10",
"g  c #FDBD10",
"h  c #FDBE10",
"j  c #FCBC12",
"k  c #FDBE12",
"l  c #FDBD15",
"z  c #FDBD16",
"x  c #FDBE16",
"c  c #F2B11F",
"v  c #FDB51B",
"b  c #FDB71A",
"n  c #F3BC1B",
"m  c #F6BD19",
"M  c #FDB818",
"N  c #FEBD19",
"B  c #FEBC1B",
"V  c #F9BC1D",
"C  c #DAAD37",
"Z  c #D7AC39",
"A  c #E8B727",
"S  c #F2B123",
"D  c #FCB421",
"F  c #FEBC22",
"G  c #F9BC26",
"H  c #F0B62E",
"J  c #F2BC28",
"K  c #F3BF28",
"L  c #FDB929",
"P  c #E7BB34",
"I  c #E8BB33",
"U  c #EEBE32",
"Y  c #F7B331",
"T  c #F2B73A",
"R  c #FBBF3F",
"E  c #E9C50B",
"W  c #F5C203",
"Q  c #FCC204",
"!  c #FCC205",
"~  c #FCC107",
"^  c #F5C20D",
"/  c #F9C00B",
"(  c #FCC00A",
")  c #FDC10C",
"_  c #FDC10D",
"`  c #FDC00F",
"'  c #FCCB09",
"]  c #E9C419",
"[  c #EAC419",
"{  c #F6C313",
"}  c #FDC113",
"|  c #FAC017",
" . c #F6C31B",
".. c #FEC21B",
"X. c #F7C91A",
"o. c #EDC727",
"O. c #F5C524",
"+. c #F5C525",
"@. c #F6C524",
"#. c #FEC223",
"$. c #FDC12B",
"%. c #F5C82F",
"&. c #F9C92B",
"*. c #EBC836",
"=. c #F4C532",
"-. c #F6C63D",
";. c #F8C738",
":. c #FAC43C",
">. c #D9BD47",
",. c #D8BD48",
"<. c #D9B555",
"1. c #DAB555",
"2. c #D8B556",
"3. c #F5B847",
"4. c #F1B854",
"5. c #E1BD69",
"6. c #F8BB60",
"7. c #E3B877",
"8. c #E1B87A",
"9. c #FCBD7A",
"0. c #FDC647",
"q. c #FFD047",
"w. c #F2C852",
"e. c #F6CE5B",
"r. c #E8C865",
"t. c #EECE6E",
"y. c #FDCC65",
"u. c #F5CB6B",
"i. c #FBD264",
"p. c #F3D26C",
"a. c #F9D56C",
"s. c #EACB77",
"d. c #F6C873",
"f. c #FDCD7D",
"g. c #F9D575",
"h. c #F9D57A",
"j. c #073683",
"k. c #043D85",
"l. c #093A87",
"z. c #033B88",
"x. c #0A3D8C",
"c. c #173C89",
"v. c #063E93",
"b. c #0C3E93",
"n. c #133893",
"m. c #263F91",
"M. c #054684",
"N. c #01418C",
"B. c #0A428C",
"V. c #034293",
"C. c #0D4494",
"Z. c #294C8B",
"A. c #5B6BA6",
"S. c #5F75A6",
"D. c #748A98",
"F. c #7489A9",
"G. c #6E86B0",
"H. c #8797AA",
"J. c #9CABBD",
"K. c #A3A3BB",
"L. c #DCBAA5",
"P. c #D6B9B1",
"I. c #D9C58A",
"U. c #DEC09C",
"Y. c #EECB8B",
"T. c #F6C988",
"R. c #F9D583",
"E. c #F2D08E",
"W. c #F8D789",
"Q. c #EFC89A",
"!. c #F0C796",
"~. c #FCCF98",
"^. c #E3D491",
"/. c #F7D395",
"(. c #FED192",
"). c #FEDB94",
"_. c #F0D298",
"`. c #FCDA99",
"'. c #FDE18E",
"]. c #EDD6A4",
"[. c #FCD5A7",
"{. c #F6D9A7",
"}. c #FCDDAB",
"|. c #F6D8B7",
" X c #FFDCB9",
".X c #FEE5A7",
"XX c #FFE4B6",
"oX c #F7E1BA",
"OX c #FCE5BB",
"+X c #FCE8B9",
"@X c #FAF0BD",
"#X c #819FC3",
"$X c #96A5CE",
"%X c #A0AAC5",
"&X c #ABB0CE",
"*X c #BBC1CA",
"=X c #BDD0CE",
"-X c #BFCAE0",
";X c #D0D2DF",
":X c #FDDBC3",
">X c #FCDBCB",
",X c #CCE3DB",
"<X c #FCE4C2",
"1X c #FDE5CB",
"2X c #F9EBCB",
"3X c #FDF1C7",
"4X c #FBE3D3",
"5X c #FFECD1",
"6X c #FFEBDA",
"7X c #F7F5D6",
"8X c #FCF5DD",
"9X c #CCDAE6",
"0X c #D8DFE7",
"qX c #DDE3FB",
"wX c #F6EEE3",
"eX c #F8E2E9",
"rX c #F8E4EF",
"tX c #FEECEA",
"yX c #EDFFED",
"uX c #FDF3E4",
"iX c #F5FFE1",
"pX c #FEFDE5",
"aX c #F7F6EB",
"sX c #FEF2ED",
"dX c #F4FDEC",
"fX c #FBFDEC",
"gX c #E6ECF8",
"hX c #F8E5F3",
"jX c #FFECF6",
"kX c #FEEBFE",
"lX c #E9F6F8",
"zX c #F0F4F7",
"xX c #FFF4F7",
"cX c #F5FEF3",
"vX c #FDFEF4",
"bX c #FFFFF7",
"nX c #FEF5FD",
"mX c #F5FEFD",
"MX c #FAFFF9",
"NX c #FEFEF9",
"BX c #FEFAFE",
"VX c #FDFDFF",
"CX c white",
/* pixels */
"                                                                                                                                ",
"                                                                                                                                ",
"                                                      {.).a.y.e.a.i.e.i.W.oX                                                    ",
"                                            XXp.q.;.$.{ ) ) ) 9 #.B 9 Q Q { :.y.                                                ",
"                                        {.t.:.} ..B k 9 9 B B B 4 = > ) k < 9 ^ 4  .p.2X                                        ",
"                                      u.=.{ ) B 4 { 9 } < k k B } B F F k 4 d  .} B B y.6X                                      ",
"                                    &.} } k 9 k B B B k < 9 4 ^ 9 9 Q > 9 k B B ; Q < B 0.[.                                    ",
"                                h.=.9 k k ^ 9 B ^ ; 9 9 } k k 9 9 k B n k ) 4 > F } ^ ) ) > n 0.wX                              ",
"                                k k } k k k k k k k k k k k } k k k k k k k k k k k k k k k k k k '.                            ",
"                          <Xe.] k k 9 k } k k k } 9 k } 9 k k 9 k k k k k k k ) k k } k k } 9 } { F i.                          ",
"                          ;.< > 9 k k k 9 k k 9 k k k k k } k k k k k } k k k k 9 k 9 k k 9 k } B - ; a.                        ",
"                        o.k k F } k k k k k k } 9 k 9 k k k k k k k k 9 k ) k k } k k k k k k 9 < #.< 9 `.                      ",
"                      -.B 9 ..- k k k 9 9 k k k k } k 9 k k k } } 9 k } 9 k 9 k k k k k k k k k W k } > B h.                    ",
"                    r.B k B 9 d k 9 k } k } k k k k k k k } 9 k k k k k k k } k k k } 9 } 9 k k ^ 4 k B > v /.                  ",
"                    H > k d L ..k } k k k k k 9 k k k k k 9 k k k k } k k 9 k k k k k k k k k k B ^ k B #.< Y                   ",
"                  P } 9 k } Q > k k k 9 } k } k k 9 k } k k k j k k 9 k k } k k 9 } k k k k 9 } B k W { k Q X.3.                ",
"                  +.; B > d ..9 B { ) > D k k } { 9 ) B v } ) 9 B 4 } } > B B k Q L 9 Q n  .! < k < 9 k k > k  .                ",
"                f.{ > F > ) } < B B Q } > } > ; B ( W ^ ..< 9 ) B 9 Q n k > B } j L Q } s - D { k ^ ) } B n ) } s.              ",
"                K ; B B 9 ) k < Q B v ..d 9 k &.d.[.:X}.h.:.s < 9 ..< k ..9 k } k } ; B B $.g.{. XXX~.*.! { #.a ;.              ",
"                > > B B k } k B B > 4 { a B f.5XMXCXCXmXCXbX).%.; F B Q k v ) k ( k 9 } g.4XfXMXpXBXbXxX`.n a ' ..Y.            ",
"              [.) ..9 ; { d d } 9 ..n > ' ~.kXCXcXbXMXMXmXmXvX2X-.4 B > 4 B Q B } k #.).xXmXmXBXMXbXmXmXmX1X$.s < A             ",
"              y.B B Q ) k 9 B 9 4 ..> v R.sXMXMXnXnXBXbXaXvXCXmX.X^ < F ( } > F < d R.sXCXMXvXNXCXnXvXbXzXBXXX{ ..>             ",
"              F k B ) k k > B 9 d L > X.6XmXdXBXCXMXCXgX-XJ.&XcXxXa.9 k { 9 k j L ] @XCXvXnXxXBXmXyX*XK.=XlXfXp.9 9 ].          ",
"              > ) ) ) v k > ..9 ..< k t.bXCXbXBXCXbXgXS.l.N.. A.lX:X..> n k B Q Q d.BXmXyXCXVXcXzXA.j.M.k.A.sX|.) v 5.          ",
"            [.{ k k k k k k k k ) < ) }.fXVXMXVXCXvX&Xc.v.B.x.x.$X8XQ B  .< 9 B 4  XMXCXVXcXCXNX$XN.x.. v.V.J.uXk B 3.          ",
"            T.d k k 9 k k k } 9 k } { :XnXNXCXCXBXCXF.o o B.l.o F.7Xn v Q k } d j .XBXCXBXCXfXCXF.. v.c.M.. F.xXk k H           ",
"            4.9 9 k k k } 9 k k < #.E  XNXNXBXMXxXBX#Xk.z.k.b.C.F.uX#.k > k k k 9 .XMXCXBXBXaXMXH.B.z.M.V.z.H.8Xk k p           ",
"            i B k k k } k k k k ) ; 9 h.BXcXCXvXVXfXqXZ.l.C.j.c.0X6X{ ) k 9 < k B W.CXmXvXCXCXMX0XO v.k.n.m.gX<Xk B y           ",
"            # k k k k k } k } 9  .> k =.jXMXmXBXVXbXxX9XF.O G.,XCXR.* k B k 9 } B *.jXmXMXbXBXBXmX;XG.Z.D.9XCXW.9 s y           ",
"            e } k } k k k 9 k k 9 B B } W.CXVXBXBXMXCXMXaXVXmXvX5X .4 B k B 9 ) k 4 W.CXMXbXvXCXcXxXCXlXcXCX3XB k k p           ",
"            S ) 9 k k 9 k } 9 k ; L d k +.XXfXMXMXcXBXBXMXcXMXtXu.> k ..9 { k < ( B #.<XuXMXMXMXCXnXBXbXCXtXu.> 9 9 H           ",
"            Y 9 k k } k k k k k F W 4 ) < o.<XNXxXCXBXMXmXmX2Xy.* D > 9 B Q k B  .k > o.1XxXCXcXBXcXdXCX5Xw.} n ) } T           ",
"            c d 9 } k k } k 9 k > k B k 9 k L 0.OX2XsXuX<Xh.:.B k k k k } k k k B 9 > ; +.y.}.6XiX8XOXh.=.9 > B B k ^.          ",
"            c ) k k k 9 k k k k k } B k 9 )  .$.9 9 } { d 9 9 > k k k k 9 k } k ) } 9 k < 4 { X.d B B B > Q } B 9 ) >X          ",
"            c 9 k k } k k 9 k } k k k k 9 Q 9 k B B k k 9 9 { { k k k k } k 9 k ^ 9 k B B B < < 9 < s < k k k d ; )  X          ",
"            S ) k k k k k k k 9 d k m k 9 9 > 9 ^ ( k k B 1 ; > k k } 9 9 k k k B B k 9 ) { } k { { ) ) k { ) > ) s 4.          ",
"            c 9 } k k k k k } k 9 k k k k k k k 9 } k k k B B D k k k k k k k k < 9 } } ^ ) ; W k k < k F D B } ..< i           ",
"            c ) 9 k } k 9 k k k ) 9 k k B B k B B B d { { 4 d k k k k ) k k 9 } 9 > k k B B F F k 9 9 9 k k 9 > < > S           ",
"            S ) } k 9 k k k 9 k k k k d d k k k - 9 < } k } 9 ) k } k k 9 } k k B } 9 9 9 9 < k W 9 ^ d k k B B 4 ) v           ",
"            S 9 9 k k k } k k k B k ) ) } 9 k 9 k } k k k k k 9 k 9 k k k k k k B k k k } 9 ^ ^ B B B k k > 9 { } F @           ",
"            c 9 k k k } k k } k 9 k 9 k k k } 9 k k k 9 k k k } k k k ) k 9 } k k } k k } k k k k k 9 } k 9 k k k k i           ",
"            S 9 k } k 9 k k k k k k } k k k k k k 9 k } k k k k k k k k k k k k k 9 k k k 9 k 9 k k k k k k } k k k T           ",
"            c 9 k 9 } 9 k k k 9 k k k k k k k k k } k 9 k k k k ) k k k k k ) k k k k 9 k k k 9 } 9 k k k k 9 k 9 n 6.          ",
"            S ) k k k k 9 } k k 9 k k k k ) k k k k k } k ) k k k k k k k k k k k k k } k k } k k k k 9 k } k k > k 9.          ",
"            c ) 9 } k k k k 9 k k 9 k k k k k ) 9 k k k } k k 9 k k k k k } k k 9 } } k k k k k k } 9 k k k 9 } 9 B 9.          ",
"            S 9 k k k k k k } k k } k k k k k k } k k k k k k k k k k k k 9 k k k k 9 k k k k k k k k k k k k k ) k 6.          ",
"            c ) k k k k k 9 k k k k k k k k k k k k } k 9 k k } k k ) k k k ) k k } k k 9 k k } k k k k k k k k 9 k T           ",
"            S 9 k } 9 k k } k } 9 k k k ) k k k k k 9 k k k k k k k k k k k k k k 9 k k } k k 9 k 9 } k k k 9 k k k i           ",
"            c > < k k < B } ) } 9 B s 9 ) ..k 9 k > } k B B 9 > B k < B } n v 9 ..d 9 > < B B B k k k B B k k B B B 4           ",
"            c ) n ) 9 k ) ) B > ) { } 9 Q 9 k v B k 9 9 > Q 9  .^ ^ Q Q > 9 } ..9 < k } } 9 4 Q } ; > k ; ! 9 #.k < 4           ",
"            c ) } B ) W 4 B B 9 k s B B k 4 } { > k m ) } B ..Q B < B B } Q ; d > } d k } ) ) ..B k } ..B n 4 W } < d           ",
"            c 9 > B F ..B 9 4 F B > > ( d 9 9 k } k B { 9 1 f v > B s 9 > B B ) B } < { } 9 k v 9 d 9 9 9 B B j 9 9 p           ",
"            c ) 9 9 B B > B k Q 9 ; ; k F F > Q k B 9 > l B l ) 9 } ....L v > ) B 9 Q ..B < > } < }  .B k k } 9 9 k V           ",
"            c } ..) ; > k k 9 4 S n 4 ; 9 B m ) k k 9 l B 9 * u & t ; ; D Q Q  .B ; ) n B ) ) { $ S p W > B B ( ) 5 G           ",
"            ].P Q < v v B > k F a # ,.P.  k k k k k k k } k k k k k j }       ].P Q < v v B > k F a 2 >.P.    _.I ( 5           ",
"              2. .< ..W ) B k Q +.Q.hX      E.J ! 1 v M l 9 k l j 4 U L.        2. .< ..W ) B k Q +.R eX        2.} k           ",
"                Z < Q { ) v Q ' 8.BX          2. .< ..W ) B k Q +.!.hX            C 1 ! { ) v Q ' 7.(.            C f           ",
"                  ] a B > B B +                 Z < Q { ) v Q ' 8.BX                ] a B > B B +                   ]           ",
"                    E < 4 } r I.                  ] a B > B B +                       E 1 4 } r I.                              ",
"                        <XQ.U.                      E 1 4 } r I.                          <XQ.U.                                ",
"                                                        <XQ.U.                                                                  ",
"                                                                                                                                ",
"                                                                                                                                ",
"                                                                                                                                "
};
