/* XPM */
static char *pacman_phantom_LR1664891551[] = {
/* columns rows colors chars-per-pixel */
"64 64 203 2 ",
"   c None",
".  c #173D7A",
"X  c #004276",
"o  c #054378",
"O  c #26497F",
"+  c #DCAF1E",
"@  c #D8BD16",
"#  c #F6AD00",
"$  c #E9B706",
"%  c #EDBE00",
"&  c #EEBD0D",
"*  c #F5B104",
"=  c #FEB504",
"-  c #F6BD04",
";  c #FCBD04",
":  c #FEB60B",
">  c #F5BC0C",
",  c #FDBD0C",
"<  c #F1AF10",
"1  c #E7B613",
"2  c #EEB911",
"3  c #EAB41C",
"4  c #EEBA1D",
"5  c #F6B311",
"6  c #FDB613",
"7  c #F4BD12",
"8  c #FDBE12",
"9  c #F2B11F",
"0  c #FDB51B",
"q  c #F3BC1B",
"w  c #FEBC1B",
"e  c #D4B22C",
"r  c #D7AC39",
"t  c #E8B727",
"y  c #F2B123",
"u  c #FCB421",
"i  c #FEBC22",
"p  c #F0B62E",
"a  c #F3BF28",
"s  c #FDB929",
"d  c #E7BB34",
"f  c #F7B331",
"g  c #F2B73A",
"h  c #E9C50B",
"j  c #F5C203",
"k  c #FCC204",
"l  c #F5C20D",
"z  c #FDC10C",
"x  c #FCCB09",
"c  c #E9C419",
"v  c #F6C313",
"b  c #FDC113",
"n  c #F6C31B",
"m  c #FEC21B",
"M  c #F7C91A",
"N  c #FDCA1D",
"B  c #EDC727",
"V  c #F5C525",
"C  c #FEC223",
"Z  c #FDC12B",
"A  c #F5C82F",
"S  c #F9C92B",
"D  c #F0D224",
"F  c #EBC836",
"G  c #F4C532",
"H  c #F6C63D",
"J  c #F8C738",
"K  c #FAC43C",
"L  c #D8AB4E",
"P  c #D8BD48",
"I  c #D8B556",
"U  c #F5B847",
"Y  c #F1B854",
"T  c #D9B464",
"R  c #E1BD69",
"E  c #F8BB60",
"W  c #E1B87A",
"Q  c #FCBD7A",
"!  c #FDC647",
"~  c #FFD047",
"^  c #EBC052",
"/  c #F2C852",
"(  c #F6CE5B",
")  c #E8C865",
"_  c #EECE6E",
"`  c #FDCC65",
"'  c #F5CB6B",
"]  c #FBD264",
"[  c #F3D26C",
"{  c #F9D56C",
"}  c #EACB77",
"|  c #F6C873",
" . c #FDCD7D",
".. c #F9D575",
"X. c #F9D57A",
"o. c #073683",
"O. c #043D85",
"+. c #093A87",
"@. c #033B88",
"#. c #0A3D8C",
"$. c #173C89",
"%. c #063E93",
"&. c #0C3E93",
"*. c #133893",
"=. c #263F91",
"-. c #054684",
";. c #01418C",
":. c #0A428C",
">. c #034293",
",. c #0D4494",
"<. c #294C8B",
"1. c #5B6BA6",
"2. c #5F75A6",
"3. c #748A98",
"4. c #7489A9",
"5. c #6E86B0",
"6. c #8797AA",
"7. c #9CABBD",
"8. c #A3A3BB",
"9. c #D5B18F",
"0. c #E8B894",
"q. c #D6B9B1",
"w. c #D9C58A",
"e. c #DEC09C",
"r. c #EECB8B",
"t. c #F6C988",
"y. c #F9D583",
"u. c #F8D789",
"i. c #EFC89A",
"p. c #FCCF98",
"a. c #E3D491",
"s. c #F7D395",
"d. c #FEDB94",
"f. c #FCDA99",
"g. c #FDE18E",
"h. c #EDD6A4",
"j. c #FCD5A7",
"k. c #F6D9A7",
"l. c #FCDDAB",
"z. c #ECCEB4",
"x. c #EFD8B6",
"c. c #F6D8B7",
"v. c #FFDCB9",
"b. c #FEE5A7",
"n. c #FFE4B6",
"m. c #F7E1BA",
"M. c #FCE5BB",
"N. c #FCE8B9",
"B. c #FAF0BD",
"V. c #819FC3",
"C. c #96A5CE",
"Z. c #A0AAC5",
"A. c #ABB0CE",
"S. c #BBC1CA",
"D. c #BDD0CE",
"F. c #BFCAE0",
"G. c #D0D2DF",
"H. c #FDDBC3",
"J. c #FCDBCB",
"K. c #F4D8D7",
"L. c #CCE3DB",
"P. c #EBE0C4",
"I. c #FCE4C2",
"U. c #FDE5CB",
"Y. c #F9EBCB",
"T. c #FDF1C7",
"R. c #F4E6D5",
"E. c #FBE3D3",
"W. c #FFECD1",
"Q. c #FFEBDA",
"!. c #F7F5D6",
"~. c #FCF5DD",
"^. c #CCDAE6",
"/. c #D8DFE7",
"(. c #DDE3FB",
"). c #F6EEE3",
"_. c #FCEBE5",
"`. c #FEECEA",
"'. c #EDFFED",
"]. c #FDF3E4",
"[. c #F5FFE1",
"{. c #FEFDE5",
"}. c #F7F6EB",
"|. c #FEF2ED",
" X c #F4FDEC",
".X c #FBFDEC",
"XX c #E6ECF8",
"oX c #F8E5F3",
"OX c #FFECF6",
"+X c #FEEBFE",
"@X c #E9F6F8",
"#X c #F0F4F7",
"$X c #FFF4F7",
"%X c #F5FEF3",
"&X c #FDFEF4",
"*X c #FFFFF7",
"=X c #FEF5FD",
"-X c #F5FEFD",
";X c #FAFFF9",
":X c #FEFEF9",
">X c #FEFAFE",
",X c #FDFDFF",
"<X c white",
/* pixels */
"                                                                                                                                ",
"                                                                                                                                ",
"                                                    m.u.] ( ] { ( ` { d.k.                                                      ",
"                                                ` K v k k , w C , z z z v Z J ~ [ n.                                            ",
"                                        Y.[ n > l , : 8 z ; * > w w w , , 8 w m b K _ k.                                        ",
"                                      Q.` w w b n 7 > 8 i i w b w 8 8 : b , v > w z v G '                                       ",
"                                    j.! w : k - w w 8 , ; k , , l > , : 8 w w w 8 , 8 b b S                                     ",
"                              ).! q ; z z l b i ; > z 8 q w 8 , , 8 8 b , , - l w , l 8 8 , G X.                                ",
"                            g.8 8 8 8 8 8 8 8 8 8 8 8 8 8 8 8 8 8 b 8 8 8 8 8 8 8 8 8 8 8 b 8 8                                 ",
"                          ] i v b , b 8 8 b 8 8 z 8 8 8 8 8 8 8 , 8 8 , b 8 , b 8 8 8 b 8 , 8 8 c ( I.                          ",
"                        { - = w b 8 , 8 8 , 8 , 8 8 8 8 b 8 8 8 8 8 b 8 8 8 8 8 , 8 8 , 8 8 8 , ; : J                           ",
"                      f., : C : , 8 8 8 8 8 8 b 8 8 z 8 , 8 8 8 8 8 8 8 8 , 8 , b 8 8 8 8 8 8 b i 8 8 B                         ",
"                    X.w ; b 8 j 8 8 8 8 8 8 8 8 8 , 8 , b 8 , b b 8 8 8 , 8 b 8 8 8 8 , , 8 8 8 = m , w H                       ",
"                  s.0 ; w 8 > l 8 8 , b , b 8 8 8 b 8 8 8 8 8 8 8 , b 8 8 8 8 8 8 8 b 8 b 8 , 8 7 , w 8 w )                     ",
"                  f : C w 8 l w 8 8 8 8 8 8 8 8 8 8 , 8 8 b 8 8 8 8 , 8 8 8 8 8 , 8 8 8 8 8 b 8 m s 7 8 ; p                     ",
"                U M k 8 v j 8 w b , 8 8 8 8 b , 8 8 b 8 8 , 8 8 8 8 8 8 b 8 , 8 8 b 8 b , 8 8 8 ; k b 8 , b d                   ",
"                n 8 ; 8 8 , : 8 : k M q k , s k 8 w w ; b b > w , z b 0 w z , v b 8 8 u ; z v w , m 7 ; w - V                   ",
"              } b z q w b z l 8 v u = 6 8 k s 8 b w ; 8 q k , w z , : m l j z w - ; b ; b k w w : b z ; i ; v  .                ",
"              J 5 C v k F p.n.v.k...Z w w - b 8 b 8 , m 8 : m , : 6 J X.l.H.j.| S 8 , 7 m 0 w k : 8 z , w w - V                 ",
"            r.m x 5 q d.$X:X>X{.;X.XE...b , 8 z 8 z 0 8 k w i - G d.*X,X-X,X,X;XW. .w 5 v > ; w w 8 b 8 w w ; ;                 ",
"            t : 6 Z U.-X;X-X*X;X>X-X-X$Xd.C 8 8 w k w > ; w > H Y.&X-X-X;X;X*X%X,X+Xp.x ; q m , b 7 7 v - , m z j.              ",
"            ; m v n.>X#X*X;X=X,X*X&X;X,X|.y.7 : i ; b z i : l b.:X,X&X}.*X>X=X=X;X;X|.y.0 ; m > , w , 8 z k w w `               ",
"          h., , [ .X@XD.8.S.'.-X>X$X=X*X,XB.c s 8 8 , v 8 , { $X%XA.7.G.XX,X;X,X>X X-XQ.M ; s 7 , w ; 8 8 z w 8 i               ",
"          R 0 z c.|.1.@.-.o.1.#X%X,X,X'.-X>X| k k w 8 q ; m H.@X1.. @.@.2.XX*X,X>X*X,X*X_ 8 : m , m ; 8 0 z z z ;               ",
"          U w 8 ].7.>.%.. #.;.Z.:X,X%X,X,X;Xv.> w , : n w k ~.C.#.#.:.%.$.A.*X,X,X:X,X.Xl.z : z 8 8 8 8 8 8 8 8 v j.            ",
"          p 8 8 $X4.. -.$.%.. 5.,X.X,X>X,X>Xb.8 7 b 8 k 0 q !.4.X @.:.o o 4.,X>X,X,X:X=XH.v b 8 , b 8 8 8 , 8 8 7 t.            ",
"          4 8 8 ~.6.@.>.-.@.:.6.:X}.,X>X,X:Xb., 8 8 8 ; 8 C ].4.,.&.O.;.O.V.>X$X;X>X:X:Xv.h C : 8 8 , b 8 8 8 , , Y             ",
"          2 w 8 I.XX=.*.O.%.O /.;X,X,X&X-X,Xu.w 8 : , 8 z v Q./.$.o.,.+.<.(..X,X&X,X%X>XX., - z 8 8 8 8 b 8 8 8 w 3             ",
"          2 6 , u.,X^.3.<.5.G.-X>X>X*X;X-XOXF w b , 8 w 8 & y.,XL.5.O 4.^.$X*X,X>X-X;XOXG 8 ; n , b 8 b 8 8 8 8 8 $             ",
"          4 8 8 w T.,X%X@X,X$X%X,X&X*X;X,Xu.> 8 z , w 8 w > n W.&X-X,X}.;X,X;X>X>X,X,Xu.b w w , 8 8 , 8 8 8 b 8 b <             ",
"          p , , ; ' `.,X*X>X=X,X;X;X;X].I.C w z : 8 v , m 8 ; ' `.;X%X;X>X>X%X;X;X.XM.V 8 7 s - 8 , b 8 , 8 8 , z y             ",
"          g b z q b / W.,X X%X>X%X,X$XU.B ; 8 n w 8 k w , ; u & ` Y.-X-X;X>X,X$X:XI.B : z > j i 8 8 8 8 8 b 8 8 , f             ",
"          a.8 w w ; , G X.M.~.[.Q.l.` V - ; , w 8 8 8 b 8 8 8 8 w J X.I.].|.Y.M.! s 8 , 8 w 8 ; 8 , 8 b 8 8 b , 7 y             ",
"          J.z , w b k ; w w w 7 M v > : 8 , b z 8 b 8 , 8 8 8 8 ; , , 7 v b , , Z n z , 8 w b 8 8 8 8 8 , 8 8 8 z 9             ",
"          v.z - 7 8 8 8 : 6 : , : : w w w 8 , l 8 , 8 b 8 8 8 8 v v , , 8 8 w w 8 , k , 8 8 8 8 b 8 , 8 8 b 8 8 , 9             ",
"          Y 6 z ; z v 8 z z v v 8 b v z , 8 w w 8 8 8 , , b 8 8 ; ; : w 8 8 z l , ; , , 8 q 8 7 , 8 8 8 8 8 8 8 z y             ",
"          3 : m b w u i 8 : 8 8 j - z l b b , : 8 8 8 8 8 8 8 8 u w w 8 8 8 8 , 8 8 8 8 8 8 8 , 8 b 8 8 8 8 8 b , 9             ",
"          y ; : ; , 8 8 , , , 8 i i w w 8 8 ; , b , 8 8 z 8 8 8 8 7 > v v 7 w w w 8 w w 8 8 , z 8 8 8 , 8 b 8 , z 9             ",
"          0 z > w w 8 8 7 l , j 8 : , , , , b w 8 8 b , 8 8 b 8 z , b 8 b : , = 8 8 8 7 7 8 8 8 8 , 8 8 8 , 8 b z y             ",
"          # i b v , ; 8 8 w w w l l , b 8 8 8 w 8 8 8 8 8 8 , 8 , 8 8 8 8 8 b 8 , 8 , b z z 8 w 8 8 8 b 8 8 8 , , 9             ",
"          3 8 8 8 8 , 8 b , 8 8 8 8 8 b 8 8 b 8 8 b , 8 z 8 8 8 b 8 8 8 , 8 8 8 , b 8 8 8 , 8 , 8 b 8 8 b 8 8 8 , 9             ",
"          g 8 8 8 b 8 8 8 8 8 8 , 8 , 8 8 8 , 8 8 8 8 8 8 8 8 8 8 8 8 8 b 8 , 8 8 8 8 8 8 b 8 8 8 8 8 8 , 8 b 8 , y             ",
"          E q , 8 , 8 8 8 8 , b , 8 8 8 , 8 8 8 8 z 8 8 8 8 8 z 8 8 8 8 , 8 b 8 8 8 8 8 8 8 8 8 , 8 8 8 , b , 8 , 9             ",
"          Q 8 ; 8 8 b 8 , 8 8 8 8 b 8 8 b 8 8 8 8 8 8 8 8 8 8 8 8 8 z 8 b 8 8 8 8 8 z 8 8 8 8 , 8 8 b , 8 8 8 8 z y             ",
"          Q w , b , 8 8 8 , b 8 8 8 8 8 8 b b , 8 8 b 8 8 8 8 8 , 8 8 b 8 8 8 , z 8 8 8 8 8 , 8 8 , 8 8 8 8 b , z 9             ",
"          E 8 z 8 8 8 8 8 8 8 8 8 8 8 8 8 , 8 8 8 8 , 8 8 8 8 8 8 8 8 8 8 8 8 b 8 8 8 8 8 8 b 8 8 b 8 8 8 8 8 8 , y             ",
"          g 8 , 8 8 8 8 8 8 8 8 b 8 8 , 8 8 b 8 8 z 8 8 8 z 8 8 b 8 8 , 8 b 8 8 8 8 8 8 8 8 8 8 8 8 , 8 8 8 8 8 z 9             ",
"          3 8 8 8 , 8 8 8 b , 8 , 8 8 b 8 8 , 8 8 8 8 8 8 8 8 8 8 8 8 8 8 , 8 8 8 8 8 z 8 8 8 , b 8 b 8 8 , b 8 , y             ",
"          > w w w 8 8 w w 8 8 8 w w w : ; , 7 m , 0 q b w : 8 w ; , w w 8 b ; 8 , 8 m z , 6 w , b z b w : 8 8 : ; 9             ",
"          > : 8 C , k - 8 ; - b k > , b b 8 : , m b , ; k k l l n , k ; , , 8 w 0 8 , k , b v z ; w z z 8 , z q z 9             ",
"          7 : b j > q w m b 8 w m z z b 8 7 b ; 7 - k b w w : w k m w b z q 8 ; v b > 8 w w 6 8 , w w > j z w b z 9             ",
"          4 , , 8 w w , , , 7 , 0 8 , b v : b w z w w ; , 6 w ; 0 6 : z v w 8 b 8 , , 7 z ; ; w i > , w m i w ; , 9             ",
"          p , , , b 8 8 w n b : b ; : w m k , w z ; 0 s m m b , z 8 w 8 ; , w 8 k ; i i 8 - - , k 8 w ; w w , , z 9             ",
"          g : z j w w ; j 4 y % v z z w q z - w n k k u - % 1 $ 1 & , w w , , , z q w , - > q 9 > , 8 8 ; - z m b 9             ",
"          U b 7 i 6 : S y.R.    I + b 8 0 N , , 0 w , > ^   oX  q.P $ 5 i 8 ; w 0 0 : k d h.    9.d ; w i z z 8 , y             ",
"          Y m 8 v - V l.          T 2 z , 8 , w v w ; J H.        oXi.V k 8 w z j m : n I         R.0.7 k 8 w : 7 9             ",
"          @ ; k 8 > [               L w 8 8 7 m v k n 0.            >XW x k 0 z v k : r               x.v : 0 v w d             ",
"          Y 0 u * h K.                r.7 = z ; ; 8 L                   + w w ; w 5 c                   r - ; w - T             ",
"          r.v k D K.                    t.m 6 v i r P.                  w.1 b > : h                       r m , B z.            ",
"            I._.`.                        x._ p.c.R.                      e.i.I.                            e p k.              ",
"                                                                                                                                ",
"                                                                                                                                ",
"                                                                                                                                ",
"                                                                                                                                "
};
