/* XPM */
static char *pacman_phantom_right_LR1664891551[] = {
/* columns rows colors chars-per-pixel */
"72 64 212 2 ",
"   c None",
".  c #173D7A",
"X  c #004276",
"o  c #054378",
"O  c #26497F",
"+  c #DCAF1E",
"@  c #DDAF1E",
"#  c #F6AD00",
"$  c #E9B706",
"%  c #EDBE00",
"&  c #EBB807",
"*  c #EFB90A",
"=  c #EEBD0D",
"-  c #F5B104",
";  c #FEB504",
":  c #F6BD04",
">  c #F7BD06",
",  c #FCBD04",
"<  c #FEB60B",
"1  c #FEB70C",
"2  c #F0BD0E",
"3  c #F5BC0C",
"4  c #F9BD0A",
"5  c #FCBD0B",
"6  c #F9BD0F",
"7  c #FDBD0C",
"8  c #F1AF10",
"9  c #E7B613",
"0  c #E9B713",
"q  c #EEB911",
"w  c #EAB41C",
"e  c #EEBA1D",
"r  c #F6B311",
"t  c #FDB613",
"y  c #F2BA13",
"u  c #F4BD12",
"i  c #FDBE12",
"p  c #F9BD16",
"a  c #FDBD15",
"s  c #F2B11F",
"d  c #F4B41D",
"f  c #FDB51B",
"g  c #F3BC1B",
"h  c #F9B918",
"j  c #FEBC1B",
"k  c #F9BC1D",
"l  c #D7AC39",
"z  c #E8B727",
"x  c #F2B123",
"c  c #FCB421",
"v  c #F6BD21",
"b  c #FEBC22",
"n  c #F9BC26",
"m  c #F0B62E",
"M  c #F3BF28",
"N  c #FDB929",
"B  c #E7BB34",
"V  c #F7B331",
"C  c #F2B73A",
"Z  c #E9C50B",
"A  c #F5C203",
"S  c #FCC204",
"D  c #F7C108",
"F  c #F5C20D",
"G  c #F9C00B",
"H  c #FCC10A",
"J  c #FDC10C",
"K  c #FCCB09",
"L  c #E9C419",
"P  c #F6C313",
"I  c #FDC113",
"U  c #F6C31B",
"Y  c #FEC21B",
"T  c #F7C91A",
"R  c #EDC727",
"E  c #F6C423",
"W  c #F5C525",
"Q  c #FEC223",
"!  c #FDC12B",
"~  c #F5C82F",
"^  c #F9C92B",
"/  c #EBC836",
"(  c #F4C532",
")  c #F6C63D",
"_  c #F8C738",
"`  c #FAC43C",
"'  c #D8BD48",
"]  c #DCB652",
"[  c #D8B556",
"{  c #E0BD41",
"}  c #F5B847",
"|  c #F1B854",
" . c #E1BD69",
".. c #F8BB60",
"X. c #E1B87A",
"o. c #FCBD7A",
"O. c #FDC647",
"+. c #FFD047",
"@. c #F2C852",
"#. c #F6CE5B",
"$. c #E8C865",
"%. c #EECE6E",
"&. c #FDCC65",
"*. c #F5CB6B",
"=. c #FBD264",
"-. c #F3D26C",
";. c #F9D56C",
":. c #EACB77",
">. c #F6C873",
",. c #F5CB7B",
"<. c #FDCD7D",
"1. c #F9D575",
"2. c #F9D57A",
"3. c #073683",
"4. c #043D85",
"5. c #093A87",
"6. c #033B88",
"7. c #0A3D8C",
"8. c #173C89",
"9. c #063E93",
"0. c #0C3E93",
"q. c #133893",
"w. c #054684",
"e. c #01418C",
"r. c #0A428C",
"t. c #0D4494",
"y. c #294C8B",
"u. c #5B6BA6",
"i. c #5F75A6",
"p. c #748A98",
"a. c #7489A9",
"s. c #6E86B0",
"d. c #8797AA",
"f. c #9CABBD",
"g. c #A3A3BB",
"h. c #DFBA9F",
"j. c #D6B9B1",
"k. c #DCC485",
"l. c #D9C58A",
"z. c #DEC09C",
"x. c #EECB8B",
"c. c #F6C988",
"v. c #F9D583",
"b. c #F8D789",
"n. c #E1C095",
"m. c #EFC89A",
"M. c #F1C791",
"N. c #FCCF98",
"B. c #E3D491",
"V. c #F7D395",
"C. c #FEDB94",
"Z. c #FCDA99",
"A. c #FDE18E",
"S. c #EDD6A4",
"D. c #FCD5A7",
"F. c #F6D9A7",
"G. c #FCDDAB",
"H. c #F6D8B7",
"J. c #FFDCB9",
"K. c #FEE5A7",
"L. c #FFE4B6",
"P. c #F7E1BA",
"I. c #FCE5BB",
"U. c #FCE8B9",
"Y. c #FAF0BD",
"T. c #819FC3",
"R. c #96A5CE",
"E. c #ABB0CE",
"W. c #BBC1CA",
"Q. c #BDD0CE",
"!. c #D0D2DF",
"~. c #FDDBC3",
"^. c #FCDBCB",
"/. c #CCE3DB",
"(. c #FCE4C2",
"). c #FDE5CB",
"_. c #F9EBCB",
"`. c #FDF1C7",
"'. c #FBE3D3",
"]. c #FFECD1",
"[. c #FFEBDA",
"{. c #F7F5D6",
"}. c #FCF5DD",
"|. c #CCDAE6",
" X c #D8DFE7",
".X c #DDE3FB",
"XX c #F6EEE3",
"oX c #FEECEA",
"OX c #EDFFED",
"+X c #FDF3E4",
"@X c #F5FFE1",
"#X c #FEFDE5",
"$X c #F7F6EB",
"%X c #FEF2ED",
"&X c #F4FDEC",
"*X c #FBFDEC",
"=X c #E6ECF8",
"-X c #F8E5F3",
";X c #FFECF6",
":X c #FEEBFE",
">X c #E9F6F8",
",X c #F0F4F7",
"<X c #FFF4F7",
"1X c #F5FEF3",
"2X c #FDFEF4",
"3X c #FFFFF7",
"4X c #FEF5FD",
"5X c #F5FEFD",
"6X c #FAFFF9",
"7X c #FEFEF9",
"8X c #FEFAFE",
"9X c #FDFDFF",
/* pixels */
"                                                                                                                                                ",
"                                                                                                                                                ",
"                                                                P.b.=.#.=.;.#.&.;.C.F.                                                          ",
"                                                            &.` P S S 7 j Q 7 J J J P ! _ +.-.L.                                                ",
"                                                    _.-.U 3 F 7 < i J , - 3 j j j 7 7 i j Y I ` %.F.                                            ",
"                                                  [.&.j j I U u 3 i b b j I j i i < I 7 P 3 j J P ( *.                                          ",
"                                                D.O.j < S : j j i 7 , S 7 7 F 3 7 < i j j j i 7 i I I ^                                         ",
"                                          XXO.g , J J F I b , 3 J i g j i 7 7 i i I 7 7 : F j 7 F i i 7 ( 2.                                    ",
"                                        A.i i i i i i i i i i i i i i i i i i I i i i i i i i i i i i I i i                                     ",
"                                      =.b P I 7 I i i I i i J i i i i i i i 7 i i 7 I i 7 I i i i I i 7 i i L #.(.                              ",
"                                    ;.: ; j I i 7 i i 7 i 7 i i i i I i i i i i I i i i i i 7 i i 7 i i i 7 , < _                               ",
"                                  Z.7 < Q < 7 i i i i i i I i i J i 7 i i i i i i i i 7 i 7 I i i i i i i I b i i R                             ",
"                                2.j , I i A i i i i i i i i i 7 i 7 I i 7 I I i i i 7 i I i i i i 7 7 i i i ; Y 7 j )                           ",
"                              V.f , j i 3 F i i 7 I 7 I i i i I i i i i i i i 7 I i i i i i i i I i I i 7 i u 7 j i j $.                        ",
"                              V < Q j i F j i i i i i i i i i i 7 i i I i i i i 7 i i i i i 7 i i i i i I i Y N u i , m                         ",
"                            } T S i P A i j I 7 i i i i I 5 i i I i i 7 i i i i i i I i 7 i i I i I 7 i i i , S I i 7 I B                       ",
"                            U i , i i 5 < i < S T g S 5 N S i j j , I I 3 j 7 J I f j J 5 P I i i c , J P j 7 Y u , j : W                       ",
"                          :.I H g j I H F i P c ; t i S N i I j , i g S 7 j J 7 < Y F A J j : , I , I S j j < I J , b , P <.                    ",
"                          _ r Q P S / N.L.J.F.1.! j j : I i I i 7 Y i < Y 7 < t ` 2.G.~.D.>.^ i 7 u Y f j S < i J 7 j j : M                     ",
"                        x.Y K r g C.4X3X8X#X6X*X'.1.I 5 i H i H f i S j b : ~ C.3X9X5X9X9X6X_.<.j r P 3 , j j i I i j j , ,                     ",
"                        z 1 t ! ).5X6X5X3X6X8X5X5X<XC.Q i i j S j 3 , j 3 ) _.3X5X5X5X6X3X1X9X:XN.K , g Y 7 I u u P : 7 Y J D.                  ",
"                        , Y P L.8X,X3X6X4X9X7X3X6X9X%Xv.u < b , I J b < F K.6X9X1X$X7X4X4X4X6X6X%Xv.f , Y 3 7 j 7 i J S j j &.                  ",
"                      S.7 7 -.*X>XQ.g.W.OX5X8X<X4X3X9XY.L N i i 7 P i 7 ;.<X1XE.f.!.=X9X6X9X8X&X5X[.T , N u 7 j , i i J j i b                   ",
"                       .f J H.%Xu.6.w.3.u.,X1X9X9XOX5X8X>.S S j i g , Y ~.>Xu.. e.5.i.=X3X9X8X3X9X3X%.i < Y 7 Y , i f J J J ,                   ",
"                      } j i +Xf.9.9.. 7.6.R.7X9X1X9X9X6XJ.3 j 7 < U j S }.R.7.7.r.9.8.E.3X9X9X6X9X*XG.J < J i i i i i i i i P D.                ",
"                      m i i <Xa.. w.8.9.. a.9X*X9X9X9X8XK.i u I i S f g {.a.X 5.r.o o a.9X8X9X9X7X4X~.P I i 7 I i i i 7 i i u c.                ",
"                      e i i }.d.6.9.w.6.w.d.6X$X8X8X9X6XK.7 i i i , i Q +Xa.t.0.4.e.4.T.8X<X6X8X7X7XJ.Z Q < i i 7 I i i i 7 7 |                 ",
"                      q j i (.=Xy.q.6.9.y. X6X9X9X3X5X9Xb.j i 1 5 i H P [. X8.3.t.5.y..X*X9X3X9X1X8X2.7 : J i i i i I i i i j w                 ",
"                      q t 7 b.9X|.p.y.s.!.5X8X8X3X6X5X;X/ j I 7 i j i = v.9X/.s.O a.|.<X3X9X8X5X6X;X( i , U 7 I i I i i i i i $                 ",
"                      e i i j `.9X1X>X9X<X1X9X3X3X6X9Xb.3 i H 7 j i j 3 U ].3X5X9X$X6X9X6X8X8X9X9Xb.I j j 7 i i 7 i i i I i I 8                 ",
"                      m 7 7 , *.oX9X7X9X4X9X6X6X6X+X(.Q j H < i P 7 Y i , *.oX6X1X6X8X8X1X6X6X*XL.W i u N : i 7 I i 7 i i 7 J x                 ",
"                      C I J g I @._.9X&X1X8X1X9X<X).R , i U j i S j 7 , c = &._.5X5X6X8X9X<X3X(.R < J 3 A b i i i i i I i i 7 V                 ",
"                      B.i j j , 7 ( 2.I.}.@X[.G.&.W : , 7 j i i i I i i i i j _ 2.(.+X%X_.I.O.N i 7 i j i , i 7 i I i i I 7 u s                 ",
"                      ^.J 7 j I S , j j j u T P 3 1 i 7 I J i i i 7 i i i i , 7 7 u P I 5 5 ! U J 7 i j I i i i i i 7 i i i J s                 ",
"                      J.J : u i i i < t < 7 < < j j j i 7 F i 7 i I i i i i P P 7 7 i i j j i 7 S 7 i i i i I i 7 i i I i i 7 s                 ",
"                      | t J , J P i J J P P i I P J 7 i j j i i i 7 7 I i i , : < j i i J F 7 , 7 7 i g i u 7 i i i i i i i J x                 ",
"                      w < Y I j c b i < i i A : J F I I 7 1 i i i i i i i i c j j i i i i 7 i i i i i i i 7 i I i i i i i I 7 s                 ",
"                      x , < , 7 i i 7 7 7 i b b j j i i , 7 I 7 i i J i i i i u 3 P P u j j j i j j i i 7 J i i i 7 i I i 7 J s                 ",
"                      f J 3 j j i i u F 7 A i < 7 7 7 7 I j i i I 7 i i I i J 7 I i I < 7 ; i i i u u i i i i 7 i i i 7 i I J x                 ",
"                      # b I P 7 , i i j j j F F 7 I i i i j i i i i i i 7 i 7 i i i i i I i 7 i 7 I J J i j i i i I i i i 7 7 s                 ",
"                      w i i i i 7 i I 7 i i i i i I i i I i i I 7 i J i i i I i i i 7 i i i 7 I i i i 7 i 7 i I i i I i i i 7 s                 ",
"                      C i i i I i i i i i i 7 i 7 i i i 7 i i i i i i i i i i i i i I i 7 i i i i i i I i i i i i i 7 i I i 7 x                 ",
"                      ..g 7 i 7 i i i i 7 I 7 i i i 7 i i i i J i i i i i J i i i i 7 i I i i i i i i i i i 7 i i i 7 I 7 i 7 s                 ",
"                      o.i , i i I i 7 i i i i I i i I i i i i i i i i i i i i i J i I i i i i i J i i i i 7 i i I 7 i i i i J x                 ",
"                      o.j 7 I 7 i i i 7 I i i i i i i I I 7 i i I i i i i i 7 i i I i i i 7 J i i i i i 7 i i 7 i i i i I 7 J s                 ",
"                      ..i J i i i i i i i i i i i i i 7 i i i i 7 i i i i i i i i i i i i I i i i i i i I i i I i i i i i i 7 x                 ",
"                      C i 7 i i i i i i i i I i i 7 i i I i i J i i i J i i I i i 7 i I i i i i i i i i i i i i 7 i i i i i J s                 ",
"                      w i i i 7 i i i I 7 i 7 i i I i i 7 i i i i i i i i i i i i i i 7 i i i i i J i i i 7 I i I i i 7 I i 7 x                 ",
"                      3 j j j i i j j i i i j j j < , 7 u Y 7 f g I j < i j , 5 j j i I , i 7 i Y J 7 t j 7 I H I j < i i 1 , s                 ",
"                      3 < i Q 7 S : i , : I S 3 7 I I i < 7 Y I 5 , S S F F U 5 S , 7 7 i j f i 7 S 7 I P J , j J J i 7 J g J s                 ",
"                      u < I A 3 g j Y I i j Y J J I i u I , u : S I j j < j S Y j I J g i , P I 3 i j j t i 5 j j 3 A J j I J s                 ",
"                      e 7 7 i j j 7 7 7 u 7 f i 7 I P < I j J j k , 7 t j , f t < H P j i I i 7 7 u J , , j b 3 7 j Y b j , 7 s                 ",
"                      k i 7 7 I i i j U I < I , < j Y S 7 j J , f N Y Y I 7 J i j i , 5 j i S , b b i : : 5 S i j , j j 7 7 J x                 ",
"                      n 7 7 H j j , A e x % P J J j g J : j U S S c : : 0 & y 2 7 j a i i i i p a i 5 6 k h 6 7 i i , : J Y i d                 ",
"                      j.' $ r b i , j f f < S B S.  j.' $ r b i , j f f 1 S B S.    i i i i i i i i i i i i i i   j.' & r b i 5                 ",
"                        -Xm.W S i j J A Y < U [       -Xm.W S i j J A Y < U [       h.' * i a i i i i i i H v ,.    -Xm.W S i a                 ",
"                          8XX.K S f J P S < l           8XX.K S f J P S < l           -Xm.E S a j 7 D Y 1 U ]         8XX.K H i                 ",
"                              + j j , j r L                 + j j , j r L               8XX.K S f H P S < l               @ j a                 ",
"                              l.9 I 3 1 Z                   l.0 I 3 < Z                     @ j j , j r L                 k.y i                 ",
"                                z.m.(.                        z.m.(.                        l.9 I 3 < Z                     n.M.                ",
"                                                                                              z.m.(.                                            ",
"                                                                                                                                                ",
"                                                                                                                                                ",
"                                                                                                                                                "
};
