/* XPM */
static char * tree2_xpm[] = {
"64 64 151 2",
"  	c None",
". 	c #29772E",
"+ 	c #2A782F",
"@ 	c #318937",
"# 	c #3A9D41",
"$ 	c #3EA845",
"% 	c #40AB47",
"& 	c #399C3F",
"* 	c #318736",
"= 	c #338D39",
"- 	c #3CA543",
"; 	c #40AD47",
"> 	c #2B7C31",
", 	c #36953C",
"' 	c #349839",
") 	c #3DA844",
"! 	c #3FAC46",
"~ 	c #2E8133",
"{ 	c #38993E",
"] 	c #237E25",
"^ 	c #2C8A30",
"/ 	c #34933A",
"( 	c #3BA242",
"_ 	c #37993E",
": 	c #2D7F32",
"< 	c #35933B",
"[ 	c #359739",
"} 	c #359A3A",
"| 	c #28852A",
"1 	c #217B23",
"2 	c #41AE48",
"3 	c #399B40",
"4 	c #28852B",
"5 	c #3CA743",
"6 	c #309336",
"7 	c #3DA644",
"8 	c #2E8334",
"9 	c #41AB48",
"0 	c #3CA342",
"a 	c #34903A",
"b 	c #2B7930",
"c 	c #3CA343",
"d 	c #3EA844",
"e 	c #2F8434",
"f 	c #308535",
"g 	c #39A13F",
"h 	c #359A3B",
"i 	c #2C8B2F",
"j 	c #38A03E",
"k 	c #227D24",
"l 	c #3BA341",
"m 	c #319335",
"n 	c #2A772F",
"o 	c #43B14A",
"p 	c #2D7F33",
"q 	c #44B44B",
"r 	c #45B54C",
"s 	c #3BA141",
"t 	c #40A846",
"u 	c #44B34B",
"v 	c #328B37",
"w 	c #40A946",
"x 	c #36923C",
"y 	c #43AF49",
"z 	c #45B44C",
"A 	c #379D3C",
"B 	c #349539",
"C 	c #3DA743",
"D 	c #3DA443",
"E 	c #3B9E41",
"F 	c #42B049",
"G 	c #2A872D",
"H 	c #2E8E32",
"I 	c #2D8C31",
"J 	c #40AC46",
"K 	c #41AF48",
"L 	c #43B24A",
"M 	c #34993A",
"N 	c #227C23",
"O 	c #329537",
"P 	c #309134",
"Q 	c #2C8A2F",
"R 	c #309234",
"S 	c #389E3D",
"T 	c #2B8A2E",
"U 	c #258027",
"V 	c #369A3A",
"W 	c #3EA944",
"X 	c #29862C",
"Y 	c #2B892E",
"Z 	c #339738",
"` 	c #2D8A31",
" .	c #349739",
"..	c #328A38",
"+.	c #3BA542",
"@.	c #2C8B30",
"#.	c #3CA042",
"$.	c #247F26",
"%.	c #3B9F42",
"&.	c #38973E",
"*.	c #29752E",
"=.	c #456734",
"-.	c #367132",
";.	c #357131",
">.	c #476634",
",.	c #67583C",
"'.	c #766646",
").	c #656E43",
"!.	c #467739",
"~.	c #6F7749",
"{.	c #816E4C",
"].	c #84714F",
"^.	c #757149",
"/.	c #50733C",
"(.	c #327B33",
"_.	c #36933C",
":.	c #577940",
"<.	c #7E794F",
"[.	c #97825B",
"}.	c #947F58",
"|.	c #897651",
"1.	c #816F4D",
"2.	c #907B56",
"3.	c #957F59",
"4.	c #8E7A54",
"5.	c #7C6E4B",
"6.	c #607141",
"7.	c #4A733A",
"8.	c #50783D",
"9.	c #6B7B48",
"0.	c #8D7E56",
"a.	c #A79064",
"b.	c #A0895F",
"c.	c #8C7853",
"d.	c #917C57",
"e.	c #867250",
"f.	c #A48C62",
"g.	c #A99165",
"h.	c #A89064",
"i.	c #A38C61",
"j.	c #927E58",
"k.	c #907C56",
"l.	c #83704D",
"m.	c #69593D",
"n.	c #6F5F41",
"o.	c #726143",
"p.	c #6D5D3F",
"q.	c #7F6D4B",
"r.	c #7B6A49",
"s.	c #8D7853",
"t.	c #99835B",
"                                                            . + . .                                                             ",
"                                                        . @ # $ % & * .                                                         ",
"                                                  . + = - ; ; ; ; ; ; - = + .                                                   ",
"                                              . > , $ ; ; ' ) ; ; ! ; ; ; $ , > .                                               ",
"                                          . ~ { $ ; ; ; ; ' ] ; ^ / ( ! ; ; ; $ _ ~ .                                           ",
"                                      . : < $ ; ; ; ; ; ; ; [ } | 1 ( $ ; ; ; ; 2 ! # ~ .                                       ",
"                                  . @ 3 ( ( ! ; ; ; ; ; $ ! } 4 5 6 ; ; ; ; ; ; 2 ! 2 7 , 8 .                                   ",
"                              . = - ! 2 ! 9 ; ; ; ; ; $ # - ; ; ; ; ; ; ; ; ; ; ! 2 ! $ 7 # { @ .                               ",
"                        . + = $ ; ; ; ; ; ; ; ; ; ; ; ; $ ! ; ; ; ; ; ; ; $ 0 $ ; ; ; ; ; ; ; ; - a . .                         ",
"                    . b = $ ; ! ; ; ; ; ; ; ; ; ; ; ; ; ; ; ; ; ; ; ; ; ; ; c d ; ; ; ; ; ; ; ; ; 2 $ , : .                     ",
"                . e & c # 7 ; ; ; ; ; ; ; ; ; ; ; ; ; ; ; ; ; ; ; ; ; ; ; ; ; ; ; ; ; ; ; ; ; ; ; ; ; ; $ & f .                 ",
"            . @ c ; ; ; $ ! ; ; ; ; ; ; ; ; ; ; ; ; ; ; ; ; ; ; ; ; ; ; ; ; ; g h i ; ; ; ; ; ! $ ! ; ; ! $ $ - @ +             ",
"          . & ; 2 ! 2 ! 2 ; ; ; ; ! ! ; ; ; ; ; ; ; ; ; ; ; ' ) ; ; ; ; ; ; ; g j k l ; ; ; ; $ # ( $ ; ! ( - ; ! # .           ",
"          . * ( ! 2 ! 2 ; ; ; ; ; $ # ! ; ; ; ; m ; ; ; ; ; ' ) ; ; ; ; ! ; ; ; ; ; ; ; ; ; ; ; $ $ ; ; ; ; ; % { * n           ",
"          : ( e ~ _ ! ! ; ; ; ; ; ; $ ! ; ; ; ; m ; ; ; - ; ; ; ; ; ; $ # ( $ ; ; ; ; ; ; ; ; ; ; ; ; ; ; $ < * # o p           ",
"          : 2 ; - = 8 & ! ; ; ; ; ; ; ; ; ; ; ; ; ; ; ! - ! ; ; ; ; ; ! # # ( $ ; ; ; ; ; ; ; ; ; ; ; - @ * # q r r :           ",
"          : ; ; ; ; ! , e _ ! ; ; ; ; ; ; ; ; ; ; ; ; ; ; ; ; ; ; ; ; ; # # & s ; ; ; ; ; ; ; ; ; ( e @ t u q r r r p           ",
"          : ; ; ; ; ; ; $ _ v _ ! ; ; ; ; ; ; ; ! ! ; ; ; ; ; ; ; ; ; ; ; - - w ; ; ; ; ; ; ; c @ < ; q u r ' r r r :           ",
"          : ; ; ; ; ; ; ; ; ! # = , $ ; ; ; ; ; ( # ; ; ; ; ; ; ; ; ; ; ; ; ; ; ; ; ; ; ; - = x 2 q u t 2 r ' r r r ~           ",
"          : ; ; ; ; ; ; ! $ ; ; ; - , < $ ; ; ; ; $ ; ; ; ; ; ; ; ; ; ; ; ; ; ; ; ; ; - = { u r r u u t % r r r r y :           ",
"          : ; ; ; ; ; ; $ ( ; ; ; ; ; $ & - ! ; ; ; ; ; ; ; ; ; ; ; ; ; ; ; ; % ; c < & u r r r r r r z u r r r A B :           ",
"          : ; ; ; ; ; ; $ $ ; ; ; ; ; ; ; ! ! ; ; ; ; ; ; ; ; ; ; ; ; ; ; ; % c { t q q r r r r r r r r r C C r 2 D :           ",
"          : ; ; ; ; ; ; ; ; ; ; ; ; ; ; ; ; ; ; ; ; ! $ c ( $ ; ; ; ; ; ; % E ; r r r r u q r r r r r r F G l r z u :           ",
"          ~ ; ; ! ! ; ; ; ; ; ; ; ; ; ; ; ; ; ; ; ; $ # # # % ; ; ; ; ; u q r r r r r r u u r r r r r r F H I J r r 8           ",
"          ~ ! ! # c ; ; ; ; ; ; ; ; ; ; ; ; ; ; ; ; ! # # $ ; ; ; K q q r r r r r r r r % t q r r r r r z z J L r r ~           ",
"          : ; ! # - ; ; ; ; ; ; ; ; ; ; ; ; ; ; ; ; ! ( ( ! ; ; o q r r r r r r r r y r t t u r r r r r r y y u r r ~           ",
"          ~ ; ; $ ! ; ; ; ; ; ; ; ; ; ; ; ; ; ; ; ; ; ! ! ; ; ; q q r q r r r r r q 9 r u u r r r r r r u t t 9 r r ~           ",
"          ~ ; ; ; ; ; ; ; ; ; ; ; g g ; $ # $ ; ; ; ; ; ; ; ; ; q q y % r r r r r r r r u q r r r r u u u t t % r r ~           ",
"          : ; ; ; ; ; ; ; ; ; ; ; M N ; ( # c ; ; ; ; ; ; ; ; ; u r % % r r r r r r r r r r r r r r r r u 7 t u r r ~           ",
"          : ; ; ; ; ; ; ; ; ; ; ; ; ; ; ( # ( ! ; ; ; ; ; ; ; ; z u u u r r r r r r r r r r r r r r r r u t % r r r ~           ",
"          : ; ; ; ) ' ; ; ; ; ; ; ; ; ; $ ( # d ; ; ; ; ; ; ; ; z r r r r r r r r r r r r r r r r r r r r q q r r r ~           ",
"          : ; ; ; O O ; ; ; ; ; ; ; ; ; ; $ ( $ ; ; ; ; ; ; ; ; z r r r r r r r r r r r r u % u r r r r r r r r r r ~           ",
"          : ; ; ; ' k ) ; ; % 7 ; ; ; ; ; ; ; ; ; ; ; ; - ; ; ! u r r r r u r r r r r r r u t y q r r r r r r r r r :           ",
"          ~ ; ! ( - P ' ; ; c ( ; ; ; ; ; ; ; ; ; ; ; $ c ; ; - u r r r u y y r r r r r r u u r r r r r r r r r r r f           ",
"          : ; $ # # $ 2 ; ; $ - ; ; ; ; ; ; ; ; ; ; ; ; $ ; ; ( ; r r r 9 t 9 r Q R ' r r r r r r r r r r S S r r r 8           ",
"          : ; 7 # # $ ; ; ; ; ; ; ; ; ; ! ; ; ; ; ; ; ; ; ; ! & % r r r 2 t t r Q T J r r r r r r r r r r U V F r r :           ",
"          : ; $ # # $ ; ; ; ; ; ; ; ; $ # $ ; ; ; ; ; ; ; ; ; ( t r r r u t 9 r r J q r r r r r r r r r J W S F u y ~           ",
"          ~ ; ! 7 7 ! ; ; ; ; ; ; ; ; - ( ! ; ; ; ; ; ; ; ; ; ( c r r r r r r r r r r r r r r r r r 2 t H J r r % % ~           ",
"          ~ ; ; ; ; ; ; ; ; ; ; ; ; ; % ! ; ; ; ; ; ; ; ; ; ! ( E r r r r r r r r r r r r r r r r r y t 9 r r r y y 8           ",
"          ~ ; ; ; ; ; ; ; ; ; ; ; ; ; ; ; ; ; ; ; ! $ ; ; ; ! # c r r r r r r u y z r r r r r r r r u 9 y r r r r z 8           ",
"          . - ; ; ; ; $ $ ; ; ; ; g g ; ; ; ; ; ! # ( % ; ; ! ( E r r r r r r 2 t u z r r r r r r r r r r r r r r 9 .           ",
"            ~ $ ; ; ; $ 7 ; ; ; X Y Z ; ; ; ; ; ! # ( ; ; ; ! s E r r r r r r u ; u r r r r r r r r r r r r r r y f             ",
"              b , $ ; ; ; ; ; ; `  .g ; ; ; ; ; ; ! ! ; ; ; ; ( E r r r q r r r r r r r r r r r r r r r r r u { b               ",
"                  + ..- ; ; ; ! # # $ ; ; ; ; ; ; ; ; ; ; ; ; # c r r y o r r r r r r r r r r r r r r r 2 = +                   ",
"                      . e # ! $ # ( ! ; ; ; ; ; ! +.@.@.m ; ; # E r 2 t 9 z r r r r r r r r r r r z #.@ .                       ",
"                          . ~ { $ ! ; ; ; ; ; ; +.i $.@.; ; ; ( E r 9 t z r r r r r r r u u t 2 E 8 .                           ",
"                              . : _ ! ; ; ; ; ; ; ; ; ; ; ; ; & %.r 2 7 z r r r r r r u u t < b .                               ",
"                                  . + , ! ; ; ; ; ; ; ; ; - $ & #.r z z z o r r r r r u &.b *.                                  ",
"                                      . + = 7 ! 2 2 ! 2 $ # d & E r r r u % 2 q z 2 , b .                                       ",
"                                          . . @ 0 ! 2 ! ; - ! & E r r r u % u % = . .                                           ",
"                                              =.-.* # ! ; ; ; & E r r r u c * ;.>.                                              ",
"                                              ,.'.).-.~ _ ; ; & E r u E : !.~.{.,.                                              ",
"                                              ,.{.].].^./.(.< = _._.(.:.<.[.}.|.,.                                              ",
"                                              ,.1.2.3.4.].5.6.7.8.9.0.[.[.a.b.c.,.                                              ",
"                                              ,.1.2.[.d.[.|.e.].d.}.b.f.b.g.f.c.,.                                              ",
"                                              ,.1.3.[.4.[.2.3.d.f.f.h.h.i.f.f.c.,.                                              ",
"                                              ,.1.[.[.2.[.j.3.3.b.f.h.f.f.b.g.k.,.                                              ",
"                                              ,.1.d.[.2.j.[.3.4.[.a.h.f.h.b.h.c.,.                                              ",
"                                              ,.l.4.[.j.d.[.j.4.}.h.a.f.g.b.h.c.,.                                              ",
"                                              ,.l.4.[.[.4.3.4.4.d.f.f.b.g.h.b.c.m.                                              ",
"                                                n.1.[.[.4.[.4.|.0.i.f.i.g.h.k.o.                                                ",
"                                                  ,.p.q.4.[.2.|.4.i.h.b.c.o.,.                                                  ",
"                                                      ,.m.r.4.|.s.t.l.m.m.                                                      ",
"                                                            ,.m.m.,.                                                            "};
