/* XPM */
static char *pacman_mouth_half_open1661439906[] = {
/* columns rows colors chars-per-pixel */
"64 64 187 2 ",
"   c None",
".  c #080604",
"X  c #020902",
"o  c #04040C",
"O  c #120E06",
"+  c #030115",
"@  c #090417",
"#  c #13081B",
"$  c #2E1D00",
"%  c #2D2117",
"&  c #3B2F15",
"*  c #412F01",
"=  c #514316",
"-  c #6B5D15",
";  c #8A710F",
":  c #8B7516",
">  c #867A27",
",  c #BD9402",
"<  c #BB9B01",
"1  c #BC950B",
"2  c #B59A08",
"3  c #BF9310",
"4  c #BEA102",
"5  c #B8A11A",
"6  c #938223",
"7  c #9C8836",
"8  c #A1882B",
"9  c #B79F25",
"0  c #B59C39",
"q  c #B6A727",
"w  c #B6A531",
"e  c #CD8E0B",
"r  c #C29504",
"t  c #C89606",
"y  c #C49D01",
"u  c #C99C02",
"i  c #C49C0A",
"p  c #C69616",
"a  c #D09D10",
"s  c #C5A301",
"d  c #CCA303",
"f  c #C4AA00",
"g  c #CCAC01",
"h  c #C6A40A",
"j  c #CEA40A",
"k  c #D2A503",
"l  c #D9A603",
"z  c #D4AA03",
"x  c #DBAD03",
"c  c #D4A509",
"v  c #DAA70B",
"b  c #D3AA0A",
"n  c #D8AD09",
"m  c #CCB10C",
"M  c #D5B401",
"N  c #DDB202",
"B  c #DCB906",
"V  c #DDB40A",
"C  c #CAA719",
"Z  c #D6A912",
"A  c #D5B413",
"S  c #E3AE05",
"D  c #E3B503",
"F  c #E9B602",
"G  c #E6B902",
"H  c #EBBC03",
"J  c #E7B50A",
"K  c #E5BA0C",
"L  c #EBBB0A",
"P  c #F1BE04",
"I  c #F3BE0B",
"U  c #E8B417",
"Y  c #E4B914",
"T  c #EDBF16",
"R  c #E5BB1D",
"E  c #C99A26",
"W  c #CEA821",
"Q  c #CDB53B",
"!  c #DFBB36",
"~  c #E4BD27",
"^  c #E5BC33",
"/  c #EDC103",
"(  c #EEC20B",
")  c #F4C403",
"_  c #F9C604",
"`  c #F5CB05",
"'  c #FCCB05",
"]  c #F3C30B",
"[  c #FBC50B",
"{  c #F6CA0B",
"}  c #FDCD0B",
"|  c #FCD102",
" . c #FDD20C",
".. c #F5D207",
"X. c #EBCF1B",
"o. c #F4C512",
"O. c #FDC613",
"+. c #F6CC14",
"@. c #FDCD13",
"#. c #F6CD1B",
"$. c #FDCD1C",
"%. c #FED113",
"&. c #FDDB13",
"*. c #F4D418",
"=. c #FED21B",
"-. c #FED91D",
";. c #E9C229",
":. c #FDCD23",
">. c #F6CB29",
",. c #FCCE2C",
"<. c #F4C822",
"1. c #ECD12A",
"2. c #F6D424",
"3. c #FDD424",
"4. c #FDDA23",
"5. c #F5D62C",
"6. c #FED42B",
"7. c #F5DB2A",
"8. c #FDD92B",
"9. c #ECC632",
"0. c #EBC938",
"q. c #F4CD35",
"w. c #FBCD32",
"e. c #F4CD3B",
"r. c #FBCF3B",
"t. c #F7D334",
"y. c #FED634",
"u. c #FDDB35",
"i. c #F5D43E",
"p. c #FDD53A",
"a. c #FED93C",
"s. c #F6DD3A",
"d. c #FCE235",
"f. c #B7AE4A",
"g. c #BDA64E",
"h. c #BFA850",
"j. c #C4AC48",
"k. c #C9B44E",
"l. c #D2B449",
"z. c #D9BA58",
"x. c #C9AA6B",
"c. c #C5B168",
"v. c #D1B061",
"b. c #EAC746",
"n. c #F0CD49",
"m. c #EDD847",
"M. c #FBD543",
"N. c #FEDA43",
"B. c #F5D24D",
"V. c #FDD54A",
"C. c #F5DC4B",
"Z. c #FEDB4C",
"A. c #F4DC44",
"S. c #E4C856",
"D. c #E8CE5F",
"F. c #F5CC56",
"G. c #F6D552",
"H. c #F5DB54",
"J. c #FDDC54",
"K. c #F4D65A",
"L. c #FDDD5B",
"P. c #F9D856",
"I. c #FCE24A",
"U. c #FEE153",
"Y. c #FEE15C",
"T. c #ECCD68",
"R. c #EED764",
"E. c #F8D664",
"W. c #F7DB63",
"Q. c #FCDD64",
"!. c #FDDD6A",
"~. c #E6CE7C",
"^. c #F5DC77",
"/. c #F3D67B",
"(. c #FDDC7B",
"). c #FEE264",
"_. c #FFE269",
"`. c #FFE573",
"'. c #F6E275",
"]. c #F6DC87",
"[. c #F4D997",
"{. c #F7E288",
"}. c #F6E596",
"|. c #E4D1B2",
" X c #FBE2AD",
".X c #FAE4BB",
"XX c #F9E6C8",
/* pixels */
"                                                                                                                                ",
"                                                                                                                                ",
"                                                                                                                                ",
"                                                                                                                                ",
"                                                                                                                                ",
"                                                  XX{.C.d.*.*.2.6.6.2.6.5.u.t.a.(. X                                            ",
"                                                s.u.7.8.6.8.6.8.8.6.3.3.=.$.=.3.2.2.C.].                                        ",
"                                          }.m.*.t.6.y.6.6.y.6.8.6.6.6.6.8.8.3.=.*.=.%.O.1.^.                                    ",
"                                      [.a.*.3.y.y.y.y.y.a.y.y.y.y.a.y.6.6.y.a.=.3. .3.:.%.| X.                                  ",
"                                    ].7.*.N.V.6.y.y.p.a.a.a.a.y.N.N.y.6.y.3.=.6.>.-.>.=.' %.&.+./.                              ",
"                                .XK.*.t.a.=.4.V.a.p.a.N.N.N.N.N.Z.6.a.i.p.8.s.t.y.4.=.%.%.:.o.' +.F.                            ",
"                              .Xs.5.6.y.a.6.8.a.a.N.N.V.a.Z.Z.N.a.N.a.N.i.p.2.i.2.6.8.$.=.%.} $._ | i.                          ",
"                              Z.2.3.6.6.t.a.a.N.N.a.N.Z.Z.Z.Z.Z.N.Z.N.N.U.Y.U.H.I.Z.p.6.$.$.&.` @. .' b.                        ",
"                            C. .:.y.y.6.a.Z.Z.A.N.Z.Z.Z.Z.J.Z.Y.).J.Y.)._.).W.).)._.).a.3.=.=.%. .@.' _ b.                      ",
"                          E. .=.3.y.a.N.N.a.N.V.Z.J.U.U.L.L.L._._._._._._._._.)._.!.).N.:.&.=.=.|  .[ ' ` T.                    ",
"                        ].&.3.6.y.y.a.u.y.N.Z.J.U.J.J.L.).Y.L.).Q.Y._._._._._.T.k.6 $ : ~ 8.2.@.$.} ' ` { o.R.                  ",
"                        } y.1.=.y.y.a.a.M.Z.Z.J.J.Y.U.).Q.)._._.W.!._._._._._.z.= # @ @ % ! >.=.$. .` | ' ] F.                  ",
"                      H.:.:.6.3.y.y.a.a.N.Z.Z.J.L.L.).).Q._._._._._.W.W.W._.W.g.O + o X X ; 5.` } }  .' <.E.{ }                 ",
"                      =.y.#.6.6.y.y.a.N.Z.Z.Z.U.Y.).)._.)._._._.U.'._.)._._._.> o + X o . * ;.` { @.@.:.} } _ }                 ",
"                    H.$.:.=.6.y.a.a.a.N.Z.J.U.U.).).)._._._._._.Y.].!.)._._.Q.g.@ @ o @ X 8 / ` { p.} } } _ _ _                 ",
"                    *.$.#.4.3.t.y.p.y.N.Z.J.U.U.Q.).)._._._._._.)._.).`.!.).J.K.- . X . & 0./ ` ` #.} } ) ) ) _ _               ",
"                  ].$.%.*.4.=.6.y.y.a.N.N.J.Y.U.Q.).).)._._._._.).Y._._.F.Y.I.Z.C.j.7 0 e.{ ( ..#.=.} } _ ) ) _ )               ",
"                  t.%.%.=.:.8.8.u.y.a.N.Z.Z.L.L.L.).)._._._._._.`._._.U.L.V.U.J.e./ / / / / { ` t.y.O.} } _ ) ) /               ",
"                  +.| 8.} =.t.3.y.y.a.N.N.J.U.Z.).Q.).)._._._._.!.Y.Y.).U.U.I.s.+.` ` ` ` ` ` +.Z.a.$.} } ) ) H N               ",
"                  +.O.=. .6.3.6.y.y.a.N.N.V.J.J.Y.).).)._._._._.).Y.Q.E.).I.Z.H.p.M.M.i.t.#.3.V.Q.p.:.{ K                       ",
"                /.{ O.=.%.3.3.6.6.y.a.N.N.Z.J.J.L.L.).).).).).).).^.Q.Z.J.Y.Y.Z.J.L.L.J.J.,.p.Z.G.                              ",
"                F.' [ =.%.:.3.6.6.u.y.a.N.Z.Z.J.U.L.I.Q.).Q.Q.L.).Y.C.r.J.).L.Z.Q.).Q.M.e.R Y                                   ",
"                t.' ' %.@.:.=.2.6.u.y.a.N.N.Z.Z.J.J.L.L.L.U.L.L.U.Y.H.p.r.J.L.Q.).L.S.                                          ",
"                *.} } @.} $.=.4.6.6.y.y.a.a.N.Z.Z.U.Z.p.t.t.Z.L.Q.J.Q.V.:.P.L.P.K.                                              ",
"                [ ' '  .%.$.$.4.8.8.6.y.y.a.N.a.N.N.Z.I.Z.p.Z.L.Y._.Q.J.K.S.j.                                                  ",
"                ` [ } '  .%.$.4.3.3.6.y.y.a.a.a.a.N.N.Z.Z.N.Z.Z.L.L.P.H.                                                        ",
"                _ O.} `  .} @.=.3.3.8.6.y.u.a.a.a.N.N.N.N.N.V.Z.L.J.O.M.S.                                                      ",
"                X.[ _ ..} @. .:.=.=.3.3.6.y.y.u.y.a.a.a.a.N.N.a.J.Q.V.L.H.Q.B.                                                  ",
"                b._ _ } [ }  .=.$.%.$.3.6.y.y.y.y.t.a.a.a.a.a.a.Z.L.L.L.J.J.p.p.V.V.                                            ",
"                T.I ' ` O.' +. .$.=.=.3.3.6.6.y.u.8.y.y.p.p.y.a.8.a.Z.a.r.V.,.M.L.w.P.P.M.                                      ",
"                [.G _ ` O.' } | @.%.=.$.=.3.3.6.8.6.6.6.u.u.y.3.a.y.3.' $.M.r.,.V.p.p.J.Z.L.Z.<.                                ",
"                  G L ) O.} ' ' } @.@.%.=.=.=.3.3.3.3.8.6.6.6.6.=.6.6.6.r.J.J.M.Z.,.a.a.w.J.P.,.{                               ",
"                  0.L P _ O.` } } } }  .%.@.$.=.=.3.3.3.3.3.3.3.6.3.=.3.3.y.w.,.:.w.V.J.:.M.9.#.] / L                           ",
"                  ~.U / ] ] ' ' '  .} @.@.@.@.%.=.=.=.=.=.3.=.=.=.=.%.=.%. . .$.} p.B.F.p.q.Y ( N G L ( D / N                   ",
"                    U H H ) _ ' ' ' } } } } %.%.@.%.@.=.=.=.$.$.%.=.=.=.:.:.O.' +.r.n.0.~ K G ] ^ L N / G K j n V               ",
"                    l.J F H ) ) ' ` '  .| } } } %.%.%.%.@.@.%.%.%.%.@. . .} H } ' +.R V K o.L L K o.N D N N n N D               ",
"                    [.N L L H o.) _ ` ' ` } } } } }  .} } } %.} } } @.} } } H H ) / H D D G D N D K N G N n b K                 ",
"                        B U F I / ) ) _ _ ' ' }  .' ' } }  .}  .}  .} } } ` _ P H ) H H F F D N n x x D T n ]                   ",
"                        m G S F H H ) ) ` _ ` _ ' ' ' ' ' ' ' ' ' ` / D G H ] _ ) _ H H G G x x V g x c x K z.                  ",
"                          M J G D F H H ) _ ) ) _ _ _ _ ' ' ' _ H / P G G G P H _ H F G D D x x j g j p r s                     ",
"                          Q M v N G F G H H H / ) ) ) ) _ ) H G D H ) ) ) H H G G G D x x x v z g d e a 2 f.                    ",
"                            Q b v x x D G G G H H H H H H ) H N G P H H H G G G D D D x x z k d s a e s q                       ",
"                              A b v M N x N G G F F H H H G D G G G G G D D D x D x x l k d d d i 2 2 5                         ",
"                                W C b N l x B M N N N N D D D D D D D D N N x l l l v z d d i r t y w                           ",
"                                |.Q d Z Z d z z x x x D x x D S N N M k z z z z Z z y y d u , i < 0                             ",
"                                    v.d j j d x v v v l z z b Z z v z c k k d d 4 < C u , , h < f.                              ",
"                                        C y j d f f g g b l b c k k c j j j s y s h 3 3 < < q                                   ",
"                                          v.1 C u j j j i y s s f s s y y y 4 4 r r y < 2 c.                                    ",
"                                              x.E p t y d s s < i t t y y , 1 1 p 2 9                                           ",
"                                                      9 2 < 1 1 2 , < y < < 5 3 c.                                              ",
"                                                                                                                                ",
"                                                                                                                                ",
"                                                                                                                                ",
"                                                                                                                                ",
"                                                                                                                                ",
"                                                                                                                                ",
"                                                                                                                                ",
"                                                                                                                                ",
"                                                                                                                                "
};
