/* XPM */
static char *pacman_mouth_closed1661439905[] = {
/* columns rows colors chars-per-pixel */
"64 64 182 2 ",
"   c None",
".  c #080604",
"X  c #020902",
"o  c #04040C",
"O  c #120E06",
"+  c #030115",
"@  c #090417",
"#  c #13081B",
"$  c #2E1D01",
"%  c #2D2117",
"&  c #3B2F15",
"*  c #514316",
"=  c #6B5D15",
"-  c #8A710F",
";  c #8B7516",
":  c #867A27",
">  c #937E2D",
",  c #8C7D39",
"<  c #BD9402",
"1  c #BB9B01",
"2  c #BC950B",
"3  c #B59A08",
"4  c #BF9310",
"5  c #BEA102",
"6  c #B8A11A",
"7  c #938223",
"8  c #B79F25",
"9  c #AE993B",
"0  c #B49939",
"q  c #B6A727",
"w  c #B6A531",
"e  c #CD8E0B",
"r  c #C29504",
"t  c #C89606",
"y  c #C49D01",
"u  c #C99C02",
"i  c #C59D0A",
"p  c #C69616",
"a  c #D09D10",
"s  c #C5A301",
"d  c #CCA303",
"f  c #C4AA00",
"g  c #CCAC01",
"h  c #C6A40A",
"j  c #CEA40A",
"k  c #D2A503",
"l  c #D9A603",
"z  c #D4AA03",
"x  c #DBAD03",
"c  c #D3A509",
"v  c #DAA70B",
"b  c #D4AA0A",
"n  c #D8AD09",
"m  c #CCB10C",
"M  c #D5B401",
"N  c #DDB202",
"B  c #DCB906",
"V  c #DCB40C",
"C  c #CAA719",
"Z  c #D6A912",
"A  c #D5B413",
"S  c #E3AE05",
"D  c #E3B503",
"F  c #E9B602",
"G  c #E6B902",
"H  c #EBBC03",
"J  c #E5B509",
"K  c #E5B90C",
"L  c #ECBC0A",
"P  c #F1BE04",
"I  c #F3BE0B",
"U  c #E8B417",
"Y  c #E5B913",
"T  c #EDBF16",
"R  c #C99A26",
"E  c #CEA821",
"W  c #CDB53B",
"Q  c #DFBB36",
"!  c #E4BD27",
"~  c #E5BC33",
"^  c #EEC002",
"/  c #EEC10C",
"(  c #F4C303",
")  c #F9C503",
"_  c #F5CB04",
"`  c #FCCB05",
"'  c #F3C40A",
"]  c #FBC50B",
"[  c #F5CA0A",
"{  c #FDCD0B",
"}  c #FCD102",
"|  c #FDD20C",
" . c #F5D207",
".. c #EBCF1B",
"X. c #EEC517",
"o. c #F4C412",
"O. c #FDC613",
"+. c #F5CC14",
"@. c #FDCD13",
"#. c #F5CD1C",
"$. c #FDCD1C",
"%. c #FED113",
"&. c #FDDB13",
"*. c #F4D418",
"=. c #FED21B",
"-. c #FED91D",
";. c #FDCD23",
":. c #F6CB29",
">. c #FCCE2B",
",. c #ECD12A",
"<. c #F6D424",
"1. c #FDD424",
"2. c #FDDA23",
"3. c #F5D62C",
"4. c #FED42B",
"5. c #F5DB2A",
"6. c #FDD92B",
"7. c #ECC632",
"8. c #EAC93A",
"9. c #FBCD32",
"0. c #FBCF3A",
"q. c #F2CB39",
"w. c #F7D334",
"e. c #FED534",
"r. c #F7DF37",
"t. c #FDDB35",
"y. c #F5D43E",
"u. c #FDD53B",
"i. c #FED93C",
"p. c #F4DA3C",
"a. c #FCE235",
"s. c #B7AE4A",
"d. c #BDA64B",
"f. c #BFA850",
"g. c #C9B44E",
"h. c #D2B449",
"j. c #D6BE57",
"k. c #DCB659",
"l. c #C9AA6B",
"z. c #C5B168",
"x. c #D1B061",
"c. c #EAC746",
"v. c #F0CD49",
"b. c #EDD847",
"n. c #FCD543",
"m. c #FEDA43",
"M. c #FCD54B",
"N. c #F5DC4B",
"B. c #FEDA4B",
"V. c #F4D74A",
"C. c #E8CE5F",
"Z. c #F5CC56",
"A. c #F5DB54",
"S. c #FDDC54",
"D. c #F3D55A",
"F. c #FEDE5B",
"G. c #F7D654",
"H. c #FCE24A",
"J. c #FEE153",
"K. c #FEE15C",
"L. c #ECCD67",
"P. c #EED662",
"I. c #F8D663",
"U. c #F5DA65",
"Y. c #FCDE63",
"T. c #FDDD6A",
"R. c #E6CE7C",
"E. c #F5DC77",
"W. c #F3D67B",
"Q. c #FDDC7B",
"!. c #FEE164",
"~. c #FFE269",
"^. c #FFE573",
"/. c #F6E275",
"(. c #F6DC87",
"). c #F4D997",
"_. c #F7E288",
"`. c #F6E596",
"'. c #E4D1B2",
"]. c #FBE2AD",
"[. c #FAE4BB",
"{. c #F9E6C8",
/* pixels */
"                                                                                                                                ",
"                                                                                                                                ",
"                                                                                                                                ",
"                                                                                                                                ",
"                                                                                                                                ",
"                                                  {._.N.a.*.*.<.4.4.<.4.3.t.w.i.Q.].                                            ",
"                                                a.e.5.6.4.6.6.6.6.4.1.1.=.$.=.;.<.<.N.(.                                        ",
"                                          `.b.*.w.4.e.4.4.e.4.6.4.6.4.4.6.6.1.=.*.=.%.O.,.E.                                    ",
"                                      ).i.*.1.e.e.e.e.e.i.e.e.e.e.i.e.4.4.e.i.=.2.| 1.;.%.} ..                                  ",
"                                    (.5.*.n.n.4.e.e.i.i.e.i.i.i.n.m.t.6.e.1.=.4.:.=.:.=.` %.&.+.W.                              ",
"                                [.A.*.w.i.=.2.M.e.i.i.m.m.m.m.m.B.6.i.y.e.6.i.w.e.2.=.%.%.;.o.` +.Z.                            ",
"                              [.p.3.4.i.i.4.6.i.i.n.m.M.m.B.B.m.i.m.i.n.y.i.<.w.<.4.6.$.=.%.{ $.` } y.                          ",
"                              B.<.1.6.4.w.m.i.i.m.m.m.B.B.B.B.B.m.B.B.m.J.J.A.A.H.B.u.4.$.$.&._ @.| ` c.                        ",
"                            N.| 1.e.e.4.i.B.B.N.m.B.B.B.B.S.S.J.!.S.K.!.!.~./.~.~.~.!.i.1.=.=.%.| @.` ) c.                      ",
"                          U.| =.1.e.i.m.m.i.m.M.B.S.J.J.S.F.K.~.~.~.~.~.~.~.~.~.~.!.!.m.;.&.=.=.} | ] ` _ L.                    ",
"                        (.&.1.4.e.e.e.e.e.m.B.J.J.B.S.F.!.K.F.!.Y.!.!.T.!.~.~.~.~.~.~.B.i.1.<.@.$.{ ` _ ' o.P.                  ",
"                        { e.,.=.e.e.i.i.n.B.B.S.S.K.J.!.Y.!.~.~.U.T.!.~.~.~.~.~.T.Y.D.i.1.&.:.$.$.| _ } ` I Z.                  ",
"                      A.;.;.4.1.e.e.i.i.m.B.B.S.F.F.!.!.Y.~.~.~.~.!.!.U.U.~.T.U.C.g.7 $ ; ! 4.$.{ { | ` <.I.) `                 ",
"                      =.e.#.4.4.e.e.i.m.B.B.S.H.K.!.!.~.~.~.~.~.J./.~.~.~.~.~.Y.j.* # @ @ % Q >.>.{ @.;.] ` ) `                 ",
"                    A.$.;.=.4.e.i.i.i.m.B.S.J.J.!.!.!.~.~.~.~.~.K.(.T.!.Y.~.~.P.f.O + o X X - 4.m.n.{ { ` ) ) )                 ",
"                    *.$.#.2.1.w.e.i.i.m.B.S.J.J.Y.!.!.~.~.~.~.~.!.~.!.^.T.F.F.F.: o + X o . $ e.u.>.{ [ ) ( ) ) )               ",
"                  (.$.%.*.2.=.6.e.e.e.m.m.J.F.J.Y.!.!.!.~.~.~.~.!.K.~.~.Z.F.H.m.f.@ @ o @ X > m.n.$.{ ` ) ( P ) (               ",
"                  w.%.%.=.;.6.6.e.e.i.m.B.B.F.F.F.!.!.~.~.~.~.~.^.~.~.J.J.S.S.S.D.= . X . & 8.i.B.e.O.{ ` ) ) P H               ",
"                  +.} 6.{ =.w.1.e.e.e.m.m.J.S.S.!.!.!.!.~.~.~.~.T.K.K.!.J.S.H.m.m.N.d., 9 q.$.w.B.i.$.{ { ) ( H P H             ",
"                  +.O.=.| 4.1.4.e.e.i.m.m.B.S.J.F.!.!.!.~.~.~.~.!.K.!.I.!.H.B.A.n.B.S.F.S.i.4.M.Y.u.;.{ { [ P ( ) )             ",
"                W.[ O.=.%.1.1.4.4.e.i.m.m.B.S.B.F.F.!.!.!.~.!.!.Y./.Y.B.S.K.S.S.S.F.F.S.S.>.e.M.S.e.i.;.{ { ' H ) ) (           ",
"                Z.` ] =.%.;.1.4.4.t.e.i.m.B.B.S.J.F.J.!.!.Y.!.Y.~.K.N.0.F.Y.F.B.F.!.!.n.u.;.$.e.4.e.i.@.{ { { ) H ( )           ",
"                w.` ` %.@.;.=.<.4.t.e.i.m.m.B.B.S.S.F.S.S.S.F.K.J.K.G.u.0.S.F.!.!.!.!.i.e.;.e.i.i.M.B.1.{ { { { H ) )           ",
"                #.` { @.{ $.=.2.4.4.e.e.i.m.m.B.B.J.B.u.w.w.S.S.U.S.F.S.;.S.F.F.Y.!.F.n.m.B.F.B.B.0.4.1.1.{ { [ P ) (           ",
"                ] ` ` | %.$.$.2.6.6.4.e.e.i.m.m.m.m.B.H.B.u.B.S.K.~.Y.S.G.Y.!.S.F.!.F.S.F.F.B.w.e.$.=.1.1.=.{ ` ( ( H           ",
"                _ ] { ` | %.$.2.2.1.4.e.e.i.i.i.m.m.m.B.B.m.B.B.S.Y.G.F.!.!.Y.F.S.!.S.F.M.>.o.] ` ` { $.$.1.@.( G H H G         ",
"                ` O.{ _ | { @.=.2.1.4.4.t.e.e.i.i.m.m.m.m.m.M.B.K.S.O.0.F.F.S.M.m.m.B.S.i.O.;.O.O.{ @.1.2.4.=.P D G H           ",
"                ..] )  .{ @.| ;.=.=.1.1.4.e.e.e.e.i.i.i.i.n.m.i.B.Y.M.F.F.F.M.y.n.S.S.Y.i.;.1.4.>.{ @.2.6.6.#.) H G H G         ",
"                c.] ) [ ] { | =.$.=.$.1.4.e.e.e.e.w.i.i.i.i.i.i.B.K.Y.S.M.F.u.u.M.n.F.F.i.$.$.;.$.{ { 1.<.<./ G D G F H         ",
"                L.I ` ` O.` +.| $.=.=.1.2.4.4.e.e.6.e.i.e.i.e.i.6.i.B.u.0.M.>.n.F.9.S.S.B.n.i.4.1.{ [ o.X./ D N G ( H           ",
"                ).G ) _ @.` { } @.%.=.$.=.1.1.4.6.4.6.4.t.e.e.4.i.e.2.{ ;.n.0.>.S.0.n.S.B.S.B.;.{ [ [ G / G G G b G G           ",
"                  G L ) O.{ ` ` { @.@.%.=.=.=.2.2.1.1.6.4.4.4.4.=.4.e.1.0.S.S.n.S.>.e.i.e.S.G.>.{ ' ' ' [ N N D n N             ",
"                  7.L H ] O._ | { { { | %.@.$.=.=.1.1.1.1.1.2.1.4.1.=.1.1.e.e.>.;.>.S.M.$.M.7.#./ ( L L ( G N D j i b           ",
"                  R.U ^ ( ' [ ` ` { { @.@.@.@.%.=.=.=.=.=.1.=.=.=.=.%.=.@.| { $.{ i.D.v.0.q.Y ' D G L ^ G ^ B V i b             ",
"                    U L H ( ( ` ` ` { { { { %.%.@.%.@.=.=.=.$.$.%.=.=.=.;.;.@.` O.0.v.8.! K K I ~ G N / G L j n V n             ",
"                    h.J F H ) ) ` _ ` | } { { { %.%.%.| @.@.%.%.%.%.@.| | ] ^ ` ` +.Y V K X.P G G T N D N N z N D               ",
"                    ).N L L H o.) [ _ ` _ | { { { { { | { { @.{ { { @.{ { [ ^ / ( ^ G J D F D N J G V G N b n K                 ",
"                        B U F I ^ ) ( ( ) ` ` { | ` ` { { | { | { | { ` [ ` ) P H ( ( G H G N S n N x D X.n '                   ",
"                        m F S F H H ( ( _ ) _ ) ` ` ` } ` ` ` ` ` [ ^ D H G ' ) ( ( ( H G D N x V d x c x K k.                  ",
"                          M J D D F H ^ ( ( ) ( ) ( ) ) ` ` ` ) ^ ^ P G G G P H ( H G G D D x x j g j p r s                     ",
"                          W M v B D F G H H ^ ^ ) ' ) ( ) ( H G D H ( ( ( H H G G H D x x x v z g d e a 3 s.                    ",
"                            W b v x x D D G D H H H H P H ( H N G H H H H G G D D D D x x z k d s a e s q                       ",
"                              A z v M N N N G G F F H H H D D G G G H G D D D N D x x l k d d d i 3 3 6                         ",
"                                E C b N l x B M N N x N D D D D D D D D N N x l l l n z d d i r t y w                           ",
"                                '.W d Z Z d z z x x N D x x D S x N M z z z z n Z z y y d u < i 1 0                             ",
"                                    x.d j j d x v v v l z z b Z z v k c k k d d 1 1 C u < < h 1 s.                              ",
"                                        C y j d f f g g b l b c k k c j j j s y s h 4 4 1 1 q                                   ",
"                                          x.2 C u j j j i y s s f s s y y y 5 5 r r y 1 3 z.                                    ",
"                                              l.R p t y d s s 1 i t t y y 2 2 2 p 3 q                                           ",
"                                                      8 3 1 2 2 3 < 1 y 1 1 3 p z.                                              ",
"                                                                                                                                ",
"                                                                                                                                ",
"                                                                                                                                ",
"                                                                                                                                ",
"                                                                                                                                ",
"                                                                                                                                ",
"                                                                                                                                ",
"                                                                                                                                ",
"                                                                                                                                "
};
