/* XPM */
static char * pacman_xpm[] = {
"64 64 179 2",
"  	c None",
". 	c #F9E6C8",
"+ 	c #F7E288",
"@ 	c #F5DC4B",
"# 	c #FCE235",
"$ 	c #F4D418",
"% 	c #F6D424",
"& 	c #FED42B",
"* 	c #F5D62C",
"= 	c #FDDB35",
"- 	c #F7D334",
"; 	c #FED93C",
"> 	c #FDDC7B",
", 	c #FBE2AD",
"' 	c #F7DF37",
") 	c #F5DB2A",
"! 	c #FDD92B",
"~ 	c #FDD424",
"{ 	c #FED21B",
"] 	c #FDCD1C",
"^ 	c #FECD23",
"/ 	c #F6DC87",
"( 	c #F6E596",
"_ 	c #EDD847",
": 	c #FED634",
"< 	c #FED113",
"[ 	c #FDC613",
"} 	c #ECD12A",
"| 	c #F5DC77",
"1 	c #F4D997",
"2 	c #FED63A",
"3 	c #FDD20C",
"4 	c #FCD102",
"5 	c #EBCF1B",
"6 	c #FBD643",
"7 	c #FDD44A",
"8 	c #FEDA43",
"9 	c #F6CB29",
"0 	c #FED91D",
"a 	c #FCCB05",
"b 	c #FDDB13",
"c 	c #F5CC14",
"d 	c #F3D67B",
"e 	c #FAE4BB",
"f 	c #F5D958",
"g 	c #FDDA23",
"h 	c #FEDB4B",
"i 	c #F5D43E",
"j 	c #F5C512",
"k 	c #F6CC57",
"l 	c #F4DA3C",
"m 	c #FDCD0B",
"n 	c #FAC503",
"o 	c #F8E049",
"p 	c #F4DC44",
"q 	c #FFE32A",
"r 	c #F5CB04",
"s 	c #FECD13",
"t 	c #EAC746",
"u 	c #FEDD53",
"v 	c #FEE164",
"w 	c #CDC045",
"x 	c #645713",
"y 	c #2A1900",
"z 	c #54480E",
"A 	c #B49939",
"B 	c #F5CE1C",
"C 	c #F8D866",
"D 	c #FEE153",
"E 	c #FEDE5B",
"F 	c #FEE15C",
"G 	c #DEC65C",
"H 	c #13081B",
"I 	c #090417",
"J 	c #A99648",
"K 	c #FBC50B",
"L 	c #ECCD67",
"M 	c #FDDE62",
"N 	c #F5DB54",
"O 	c #978241",
"P 	c #080604",
"Q 	c #030115",
"R 	c #04040C",
"S 	c #020902",
"T 	c #F4C40A",
"U 	c #EDD664",
"V 	c #FFE269",
"W 	c #FDDB6B",
"X 	c #7A6F1F",
"Y 	c #F4BD0C",
"Z 	c #FBE765",
"` 	c #AA9850",
" .	c #645627",
"..	c #F4E277",
"+.	c #FFE573",
"@.	c #EACC5E",
"#.	c #282015",
"$.	c #FFCD33",
"%.	c #FEE54E",
"&.	c #8B7C39",
"*.	c #93853A",
"=.	c #F5D207",
"-.	c #FDD653",
";.	c #EAC733",
">.	c #F6E5D4",
",.	c #FCF3CD",
"'.	c #F8E6B8",
").	c #F6CB0B",
"!.	c #F9D8A6",
"~.	c #E9D55A",
"{.	c #F6E5A6",
"].	c #EDE6D7",
"^.	c #FDEBD5",
"/.	c #F3EDE3",
"(.	c #EBE3AC",
"_.	c #E6B801",
":.	c #F0DDBC",
"<.	c #ECBB0A",
"[.	c #F4C403",
"}.	c #EEC000",
"|.	c #FACD41",
"1.	c #F4EEEB",
"2.	c #E6CE7C",
"3.	c #E8B417",
"4.	c #ECBC02",
"5.	c #DCD3A8",
"6.	c #D2B449",
"7.	c #E7B50A",
"8.	c #E9B602",
"9.	c #E3B402",
"0.	c #DDB202",
"a.	c #DCB906",
"b.	c #CAA719",
"c.	c #D9C773",
"d.	c #F0BD05",
"e.	c #DAA70B",
"f.	c #DBAD03",
"g.	c #D4AA02",
"h.	c #CDA30A",
"i.	c #CCB10C",
"j.	c #E3AE05",
"k.	c #D5B413",
"l.	c #CCA303",
"m.	c #D3A409",
"n.	c #C99C02",
"o.	c #BC950B",
"p.	c #C9AA6B",
"q.	c #D5B401",
"r.	c #CCAC01",
"s.	c #C69616",
"t.	c #C29504",
"u.	c #BB9B01",
"v.	c #CDB53B",
"w.	c #CD8E0B",
"x.	c #D09D10",
"y.	c #B59A08",
"z.	c #B7AE4A",
"A.	c #D3AA0A",
"B.	c #D2A503",
"C.	c #C5A301",
"D.	c #B6A727",
"E.	c #D9A603",
"F.	c #C49C0A",
"G.	c #B8A11A",
"H.	c #CEA821",
"I.	c #C89606",
"J.	c #C49D01",
"K.	c #B6A531",
"L.	c #E4D1B2",
"M.	c #D6A912",
"N.	c #BD9402",
"O.	c #D1B061",
"P.	c #BEA102",
"Q.	c #C6A40A",
"R.	c #C4AA00",
"S.	c #BF9310",
"T.	c #C5B168",
"U.	c #C99A26",
"V.	c #B79F25",
"                                                                                                                                ",
"                                                                                                                                ",
"                                                                                                                                ",
"                                                                                                                                ",
"                                                                                                                                ",
"                                                  . + @ # $ $ % & & % & * = - ; > ,                                             ",
"                                                ' = ) ! & ! & ! ! & ~ ~ { ] { ^ % % @ /                                         ",
"                                          ( _ $ - & : & & : & ! & & & & ! ! ~ { $ { < [ } |                                     ",
"                                      1 ; $ ~ : : : : : 2 : : : : 2 : & & : 2 { ~ 3 ~ ^ < 4 5                                   ",
"                                    / ) $ 6 7 ! : : 2 2 2 ; 2 2 6 8 = ! : ~ { & 9 0 9 { a < b c d                               ",
"                                e f $ - 2 { g 7 2 2 ; 8 8 8 8 8 h & ; i 2 ! ; - : g { < < ^ j a c k                             ",
"                              e l * & 2 2 ! ! 2 ; 8 8 7 8 h h 8 2 8 ; 8 i 2 % - % & ! ] { < m ] n 4 i                           ",
"                              h % ~ ! & - 6 ; 8 8 8 8 h h h h h 8 h 8 = o o p p q : ^ ~ ] { b r s 3 a t                         ",
"                            @ 3 ^ : : & 2 h h p 8 h h h h u u u v 6 @ @ w x y z A 6 B & ~ { { < 3 s a n t                       ",
"                          C 3 { ~ : ; 8 8 ; 8 7 h u D D u E E E E u F G y H I I I J # & ^ b { { 4 3 K a r L                     ",
"                        / b ~ & : : 2 = : 8 h u D u u E v F E M f D N O P Q R S S z } 0 : ~ % s ] m a r T j U                   ",
"                        m : } { : : 2 ; 6 h h u u F D v M v V V C W F X R Q S R P y t : ~ b 9 ] ] 3 r 4 a Y L                   ",
"                      N ^ ^ & ~ : : ; ; 8 h h u E E v v M V V V Z v f ` I I R I S  .l ! & { ! ] m m 3 a } (                     ",
"                      { : B & & : : 2 8 h h u D F v v V V V V V D ..+.@.x P S P #.w * $.: ^ & ] ] m c C                         ",
"                    N ] ^ { & : 2 2 ; 8 h u D D v v v V V V V V F / W %.U J &.*.G l 6 : g : ^ b =.-.                            ",
"                    B ] B g ~ - : 2 2 8 h u D D M v v V V V V V Z V M +.W E @ u # ; 7 # & * b ;.d >.                            ",
"                  / ] < $ g { & : : 2 8 8 u E D M v v V V V V V Z E V W k F o 8 6 = : ~ : - _ ,.                                ",
"                  - < < { ^ ! ! = : 2 8 h h E E E v v V V V V V +.V V D u -.u u f ' = i E +                                     ",
"                  c 4 ! m { - ~ : : 2 8 8 u u u v M v v V V V V W F F v D u %.8 8 # p d .                                       ",
"                  c [ { 3 & ~ & : : ; 8 6 h u u E v v v V V V V Z F v C Z o D N ; W '.                                          ",
"                d ).[ { < ~ ~ & & : 2 8 8 h u u E E v v v V v v M | V D 8 u h l !.                                              ",
"                k a K { < ^ ~ & & = : ; 8 h h u D E D v v M M M Z F @ E -.h | ,.                                                ",
"                - a a < s ^ { % & = : ; 8 8 h h u u E E E F E E D E E D ~.{.                                                    ",
"                B a m s m ] { g & & : : ; 8 8 h h D u u u u u u C 8 o ..,.                                                      ",
"                K a a 3 < ] ] g ! ! & : : 2 8 8 8 8 h %.u u u u D ..{.].                                                        ",
"                r K m a 3 < ] g ~ ~ & : : 2 ; ; 8 8 8 h h h h h ; d ^.                                                          ",
"                n [ m r 3 m s { ~ ~ ! & = : 2 ; ; 8 8 8 8 8 7 8 o # l + /.                                                      ",
"                5 K n =.m s 3 ^ { { ~ ~ & : : : : 2 ; ; ; 8 8 ; ; ' ! : M (.                                                    ",
"                t K n ).K m 3 { ] { ] ~ & : : : : - ; ; ; ; 2 2 ; ; 6 : g # ..                                                  ",
"                L Y a r [ a c 3 ] { { ~ ~ & & : = ! : 2 2 2 : 2 ! ! : 2 $.~ % ! 1                                               ",
"                1 _.n r [ a m 4 s < { ] { ~ ~ & ! & ! & = = : & 2 : ! 0 { & & { g U :.                                          ",
"                  _.<.[.[ m a a m s s < { { { ~ ~ ~ ~ ! & & & & { & : & ~ 9 ~ ^ ] < & d                                         ",
"                  ;.<.}.K [ r m m m m 3 < s ] { { ~ ~ ~ ~ ~ ~ ~ & ~ { ~ g { < ] s ] < < |.!.1.                                  ",
"                  2.3.}.T T r a a m m s s s s < { { { { { ~ { { { { < { < 3 3 ] m m c B m K L                                   ",
"                    3.<.4.[.[.a a a m m m m < < s < s { { { ] ] < { { { ^ ^ s a a a a a r j Y Y 5.                              ",
"                    6.7.8.4.[.[.r r a 3 4 m m m < < < < s s < < < < s 3 3 m m a a a m n T T Y <.9.t                             ",
"                    1 0.<.<.4.j [.K r a r m m m m m m m m m s m m m s m m m a a a r n T [.4._.8.7.a.b.c.                        ",
"                        a.3.8.Y }.[.[.[.n a a m 3 a a m m 3 m 3 m 3 m m m a K n [.[.[.d.4.8.9.9.e.f.g.h.6.                      ",
"                        i._.j.8.4.4.[.[.r n r n a a a 4 a a a a a a m a m r ).n [.[.}.4._.9.0.f.k.l.e.m.n.o.p.                  ",
"                          q.7.9.9.8.4.}.}.[.[.[.n [.n n a a a a a r n r r Y [.4.[.4._._.9.9.f.f.h.r.h.s.t.u.                    ",
"                          v.q.e.a.9.8._.4.4.}.}.[.T [.[.n [.[.[.n n [.[.[.4.4._._.8.9.0.f.f.e.g.r.l.w.x.y.z.                    ",
"                            v.A.e.f.f.9.9._._.4.4.4.4.d.4.[.[.4.4.d.4.4.4._._.9.9.9.9.f.f.g.B.l.C.x.w.C.D.                      ",
"                              k.A.e.q.0.0.0._._.8.8.4.4.4._._._._._._._.9.9.9.0.9.f.f.E.B.l.l.l.F.y.y.G.                        ",
"                                H.b.A.0.E.f.a.q.0.0.0.0.9.9.9.9.9.9.9.9.0.0.f.E.E.E.e.g.l.l.F.t.I.J.K.                          ",
"                                L.v.l.M.M.l.g.g.f.f.0.9.f.f.9.j.0.0.q.g.g.g.g.g.M.g.J.J.l.n.N.F.u.A                             ",
"                                    O.l.h.h.l.f.e.e.e.E.g.g.A.M.g.e.g.m.B.B.l.l.P.u.b.n.N.N.Q.u.z.                              ",
"                                        b.J.h.l.R.R.r.r.A.E.A.m.B.B.m.h.h.h.C.J.C.Q.S.S.u.u.D.                                  ",
"                                          O.o.b.n.h.h.h.F.J.C.C.R.C.C.J.J.J.P.P.t.t.J.u.y.T.                                    ",
"                                              p.U.s.I.J.l.C.C.u.F.I.I.J.J.N.o.o.s.y.V.                                          ",
"                                                      V.y.u.o.o.y.N.u.J.u.u.G.S.T.                                              ",
"                                                                                                                                ",
"                                                                                                                                ",
"                                                                                                                                ",
"                                                                                                                                ",
"                                                                                                                                ",
"                                                                                                                                ",
"                                                                                                                                ",
"                                                                                                                                ",
"                                                                                                                                "};
