/* XPM */
static char *pacman_down_mouth_closed1661440106[] = {
/* columns rows colors chars-per-pixel */
"66 66 189 2 ",
"   c None",
".  c #000003",
"X  c #020902",
"o  c #03030C",
"O  c #0A0B03",
"+  c #0E1104",
"@  c #161206",
"#  c #020116",
"$  c #080417",
"%  c #07001B",
"&  c #210B00",
"*  c #3A2904",
"=  c #2E2217",
"-  c #4A3C15",
";  c #6B5D14",
":  c #8B710F",
">  c #8B7516",
",  c #897B23",
"<  c #BD9403",
"1  c #B59A04",
"2  c #BB9B02",
"3  c #BC950B",
"4  c #B59A09",
"5  c #BE9411",
"6  c #BEA102",
"7  c #B8A11A",
"8  c #99832E",
"9  c #8F803A",
"0  c #B79F25",
"q  c #B39B3B",
"w  c #B6A727",
"e  c #B6A531",
"r  c #CD8E0B",
"t  c #C29504",
"y  c #C89606",
"u  c #C49D01",
"i  c #C99C02",
"p  c #C49C0A",
"a  c #C69616",
"s  c #CF9D10",
"d  c #C69618",
"f  c #D09D10",
"g  c #C5A301",
"h  c #CCA303",
"j  c #C4AA00",
"k  c #CCAC01",
"l  c #C5A30A",
"z  c #CDA30A",
"x  c #D2A503",
"c  c #D9A603",
"v  c #D4AA03",
"b  c #DBAD03",
"n  c #D3A509",
"m  c #DAA70B",
"M  c #D4AA0A",
"N  c #D9AD09",
"B  c #CCB10C",
"V  c #D5B401",
"C  c #DDB202",
"Z  c #DCB906",
"A  c #DCB30C",
"S  c #CCA716",
"D  c #CAA719",
"F  c #D6A912",
"G  c #D5B413",
"H  c #E3AE05",
"J  c #E2B503",
"K  c #E9B602",
"L  c #E6B903",
"P  c #EBBC03",
"I  c #E5B50A",
"U  c #E4B90D",
"Y  c #EBBC0A",
"T  c #F1BE04",
"R  c #F3BE0B",
"E  c #E8B416",
"W  c #E5BA14",
"Q  c #EDBF16",
"!  c #E8B419",
"~  c #F4BF17",
"^  c #C99B2A",
"/  c #CDB53B",
"(  c #DFBB36",
")  c #E4BD27",
"_  c #E5BC33",
"`  c #EEC002",
"'  c #EEC10C",
"]  c #F4C303",
"[  c #F9C503",
"{  c #F5CB04",
"}  c #FCCB05",
"|  c #F4C409",
" . c #FBC50B",
".. c #F5CA0A",
"X. c #FDCD0B",
"o. c #FCD102",
"O. c #FDD20C",
"+. c #F5D207",
"@. c #ECCF1A",
"#. c #EEC416",
"$. c #F3C412",
"%. c #FDC613",
"&. c #F5CC14",
"*. c #FDCD13",
"=. c #F5CD1D",
"-. c #FDCD1B",
";. c #F4D417",
":. c #FED113",
">. c #FDDB12",
",. c #F4D41A",
"<. c #FED21B",
"1. c #FED91D",
"2. c #EAC62F",
"3. c #FDCD23",
"4. c #F6CB29",
"5. c #FCCE2B",
"6. c #ECD22C",
"7. c #F6D424",
"8. c #FDD424",
"9. c #FDDA23",
"0. c #F5D62D",
"q. c #FED42B",
"w. c #F5DB2A",
"e. c #FDD92B",
"r. c #EECF39",
"t. c #EBC435",
"y. c #FBCD32",
"u. c #FBCF3A",
"i. c #F3CC39",
"p. c #F7D334",
"a. c #FED534",
"s. c #F7DF37",
"d. c #FDDB35",
"f. c #F6D43D",
"g. c #FDD53B",
"h. c #FED93C",
"j. c #F4DA3C",
"k. c #FCE234",
"l. c #BCA54F",
"z. c #B7AE4A",
"x. c #BDA647",
"c. c #CAB447",
"v. c #D2B345",
"b. c #D8B958",
"n. c #C9AA6B",
"m. c #C5B167",
"M. c #D1B061",
"N. c #EAC745",
"B. c #F0CD49",
"V. c #EDD843",
"C. c #FCD543",
"Z. c #FEDA43",
"A. c #FCD54B",
"S. c #F5DC4B",
"D. c #FEDA4B",
"F. c #F4D74A",
"G. c #E7CD5E",
"H. c #F5CC55",
"J. c #F6CC59",
"K. c #F5DA54",
"L. c #FDDC54",
"P. c #F2D45A",
"I. c #FEDE5B",
"U. c #F9D552",
"Y. c #FCE24A",
"T. c #FEE153",
"R. c #FEE15C",
"E. c #ECCD66",
"W. c #EED662",
"Q. c #F8D663",
"!. c #FCDE64",
"~. c #FDDD6A",
"^. c #F5D965",
"/. c #E6CE7B",
"(. c #F5DC77",
"). c #F3D67B",
"_. c #FDDC7E",
"`. c #FEE164",
"'. c #FFE269",
"]. c #FFE573",
"[. c #F6E275",
"{. c #F6DC87",
"}. c #F4D996",
"|. c #F7E284",
" X c #F6E595",
".X c #E4D1B2",
"XX c #FBE2AD",
"oX c #FAE4BA",
"OX c #F9E6C7",
/* pixels */
"                                                                                                                                    ",
"                                                                                                                                    ",
"                                                                                                                                    ",
"                                                                                                                                    ",
"                                                                                                                                    ",
"                                                                                                                                    ",
"                                                                                                                                    ",
"                                                                                                                                    ",
"                                                                                                                                    ",
"                                                          }.E.N.@.[ {  .=.p.J.).                                                    ",
"                                                    /.2.L L R  . .%. .} } } } ..&.&.g.{.                                            ",
"                                              }.v.E ! Y Y [ } [ [ X.X.} X.} X.%.%.o.:.*.7.K.                                        ",
"                                              A I Y T ] | { { X.+.{ } O.*.:.<.<.<.e.:.:.-.-.<.K.                                    ",
"                                          B Z Y K P |  .%.%.%. .X.O.O.:.X.*.:.:.:.X.<.;.=.3.a.3.-.{.                                ",
"                                      / V L E Y P ] | %.X.} } X.*.X.:.-.-.3.3.8.e.<.3.9.9.-.=.3.d.>.Q.                              ",
"                                    / V I H K P [ ] { { } X.&.O.O.*.-.-.<.<.8.8.8.p.e.<.8.e.e.q.6.8.O.S.                            ",
"                                  G M m J K R $.[ } } X.} o.O.<.3.<.9.9.9.7.q.e.e.8.e.e.p.a.e.8.<.e.-.O.L.oX                        ",
"                              .XS M m Z J P ` [ { } } X.O.*.-.-.<.8.8.e.q.q.q.q.a.a.d.a.a.a.a.a.a.a.8.3.7.j.oX                      ",
"                              v.D m b J K P [  .} } O.X.*.:.<.<.<.8.8.e.q.d.d.d.a.a.a.a.g.g.a.d.d.a.a.a.8.0.K.                      ",
"                            M.h M V b K P ] ] { } X.X.X.*.<.<.-.8.e.q.q.a.a.a.g.h.g.g.g.g.h.h.h.a.g.h.a.e.q.;.{.                    ",
"                            z F C C J L ` ] ] } O.X.*.O.:.-.8.8.8.q.a.a.d.h.h.Z.Z.Z.Z.Z.Z.Z.Z.h.h.d.Z.e.q.g.p.w.}.                  ",
"                          D z F c C J P ` { [ { o.X.*.:.<.<.8.q.e.d.a.a.h.Z.h.Z.C.Z.D.Z.D.D.D.Z.C.a.Z.h.p.g.g.;.d.                  ",
"                        M.u z h b C L P [ [ } X.X.X.*.*.<.8.q.a.a.a.g.g.Z.Z.D.D.D.L.D.L.L.L.D.D.D.Z.h.D.C.e.<.C.,. X                ",
"                        5 z h v Z L L ` ] { } X.X.:.*.-.<.8.e.a.d.g.h.Z.Z.D.D.L.T.L.L.I.Y.T.L.D.D.D.Z.D.h.e.9.A.8.V.                ",
"                      n.S h b x V L P ` [ [ X.X.O.:.:.<.8.q.a.a.a.h.h.Z.D.D.L.T.L.L.T.T.T.T.T.L.L.L.C.S.Z.g.A.e.a.,.                ",
"                      ^ i j m b C K P ] [ } O.X.:.*.<.<.8.e.d.a.a.h.Z.Z.D.L.Y.I.I.`.I.!.!.`.R.I.T.T.D.h.Z.h.g.a.a.p.k.              ",
"                      a z j m b C K P | [ } } X.:.:.<.8.8.e.e.p.a.Z.Z.Z.T.L.I.I.`.!.`.`.`.`.`.I.R.L.L.D.Z.Z.a.d.a.q.h.OX            ",
"                      y z k m C C P P [ [ } } X.:.*.<.8.8.e.a.h.h.Z.Z.D.D.I.T.`.`.`.`.'.`.`.`.`.T.L.T.D.Z.Z.h.g.a.a.w.|.            ",
"                    0 u z k c J C P P [ [ o.X.X.:.<.<.8.e.e.g.h.h.Z.D.Y.g.L.`.`.'.`.'.'.'.'.`.`.`.I.T.D.D.C.Z.g.a.q.e.S.            ",
"                    4 h p M v b J P P [ } } X.O.*.<.<.8.e.d.a.h.h.Z.D.D.p.I.`.`.'.'.'.'.'.'.'.`.R.`.L.D.D.Z.Z.h.g.q.e.k.            ",
"                    2 g u c v b J J ] ] } } O.X.*.<.8.8.q.d.g.h.Z.Z.Z.g.p.L.!.'.'.'.'.'.'.'.'.'.`.R.I.L.D.D.Z.g.a.a.e.,.            ",
"                    3 g g M M J J K L P } } X.*.:.-.<.8.q.a.a.g.Z.A.D.L.D.I.!.`.'.'.'.'.'.'.'.'.'.I.R.L.D.D.Z.g.a.e.q.,.            ",
"                    3 2 g n F H J L C P { } O.X.:.-.<.8.q.e.g.g.h.Z.D.T.L.I.!.`.'.'.'.'.'.'.'.'.'.`.'.I.D.Z.Z.a.d.e.e.7.            ",
"                    4 p j x v C K L L J P X.X.X.:.:.<.e.<.g.e.D.D.R.L.R.~.T.`.!.'.~.].`.`.R.T.`.^.`.'.`.Z.g.D.C.a.q.e.q.            ",
"                    < y g x m C J K P P ` } O.X.:.<.<.8.q.a.h.I.!.L.!.~.L.I.R.(.R.R.'.I.'.|.[.'.~.`.'.L.D.Z.e.C.g.q.q.q.            ",
"                    2 y g n v V C L P ] P ' } *.*.<.:.<.a.8.D.!.D.%.U.`.I.L.D.`.`.R.'.'.`.'.'.`.`.`.'.`.Z.h.g.d.a.e.8.7.            ",
"                    u u u z n v J L P ] L L ..O.O.<.<.8.3.X.g.L.L.u.I.L.L.u.u.A.^.`.T.~.].`.'.~.'.~.'.`.Z.C.j.e.q.q.8.q.            ",
"                    2 u u z x v C J K ] L Y X.X.O.3.:.9.u.-.u.L.I.I.`.L.=.u.L.L.`.T.T.H.'.^.'.^.'.'.'.'.T.j.g.a.e.e.<.0.            ",
"                    2 < u z x v C J L P L L } X.} 3.O.a.L.A.A.L.!.I.`.`.L.L.!.I.Y.L.L.R.R.~.'.'.'.'.'.`.R.j.e.8.a.e.-.d.            ",
"                    7 3 2 g h v b J L P ] | | P Y %.O.q.L.u.5.u.A.L.!.!.I.I.I.I.L.Y.L.Y.K.'.'.!.'.'.'.'.K.7.h.<.g.8.<.p.            ",
"                    t 3 6 u h v c C J K P [ T ` [ } -.y.g.y.C.u.f.L.L.L.I.R.D.L.U.Z.L.Z.I.W.~.^.'.'.'.~.L.p.p.q.<.<.3.h.            ",
"                    m.d t g 6 F c J J K ] ] P ] } %.X.8.A.L.L.A.D.C.L.!.!.`.I.L.C.Z.P.l., l.b.G.'.'.`.'.Y.7.a.4.8.;.7._.            ",
"                      4 t l 2 v c b J K P ] ] { &.f.f.5.5.g.y.A.L.Z.!.`.`.`.`.I.D.S.; # . . - z.!.'.'.'.D.q.9.1.O.<.7.XX            ",
"                      0 u 5 D u m b J J L ` ` L W B.U.L.a.C.L.I.L.D.L.L.R.!.I.!.L.x.@ $ # # $ 8 P.'.`.'.g.e.<.4.8.:.S.              ",
"                        2 5 i u v c b C L P K L A t.H.D.h.D.L.!.`.L.I.L.Z.Z.C.L.I.9 + o X o % & a.D.h.h.e.-.:.<.3. .{.              ",
"                        1 2 < h h x b b J K L J U ) f.3.a.D.D.g.h.a.A.I.Z.a.g.L.L.q @ $ o X # > 8.g.3.8.-.<.:.} :.6.                ",
"                        m.2 < i h h v b J J K L $.W y.C.L.L.C.<.8.%.5.I.Z.3.3.5.a.i.- + O + = ) >.8.>.<.<.:.3.:.o.(.                ",
"                          w l < u h x m b C C J P K W t.U.L.h.-.3.-.&.L.L.a.-.g.a.-.r.8 * : ( e.4.7.<.<.>.X.$.>.@.                  ",
"                            2 p t h h v b b J J Y Y ' =.q.3.5.8.5.-.[ y.A.h.a.D.D.y.h.h.q.a.3.-.-.*.<.:.{ -.} &.                    ",
"                            z.2 y p g k z A b I K _ C | X.X.-.-.5.-.[ a.D.g.q.L.I.L.A.Z.u.D.5.X.-.-.o.O.*.[ &.).                    ",
"                              q u 4 f h k x C Z #.P L ' | X.X.X.X.X. .-.g.A.a.u.g.g.a.-.5.C.*.X.O.X.O.*.O.o.J.                      ",
"                                e 4 r r z b b Z C C Y Y | ..X.:.*.*.X.-.8.D.a.h.3.-.*.X.X.} &.O.{ }  .} } C.                        ",
"                                  7 g f a n I L J Y ' L ..J #.7.8.8.*.8.e.8.*.8.X.X.X.X.X.X.3.} o.{ } [ N.                          ",
"                                    w 4 t v Q J C L L | ..' #.8.9.8.-.9.<.:.X.X.X.X.} [ ]  .X.7.} | ..N.                            ",
"                                      z.l L M v C L ` L C L ' 7.e.8.e.<.*.X.X.X.} [ [ ] [ [ [ P.$.$.E.                              ",
"                                          b.$.A N z U C C L C ' =.8.*.X.X.X.X.| T [ [ T [ [ [ [ H.W.                                ",
"                                              U C v A J J L C L ] ] ] [ X.} | ` ] P ] [ [ [ } X.                                    ",
"                                                C I l z N v L J P J J ] ] P P [ [ P P [ [                                           ",
"                                                  M n p Z J ] K P L P [ [ [ ] [ [ P                                                 ",
"                                                      M   P P K K K P P T [ [ ]                                                     ",
"                                                              L L   L                                                               ",
"                                                                                                                                    ",
"                                                                                                                                    ",
"                                                                                                                                    ",
"                                                                                                                                    ",
"                                                                                                                                    "
};
