/* XPM */
static char *pacman_down_mouth_half_open1661440106[] = {
/* columns rows colors chars-per-pixel */
"64 64 187 2 ",
"   c None",
".  c #080604",
"X  c #020902",
"o  c #04040C",
"O  c #120E06",
"+  c #030115",
"@  c #090417",
"#  c #13081B",
"$  c #2E1D00",
"%  c #2D2117",
"&  c #3B2F15",
"*  c #412F01",
"=  c #514316",
"-  c #6B5D15",
";  c #8A710F",
":  c #8B7516",
">  c #867A27",
",  c #BD9402",
"<  c #BB9B01",
"1  c #BC950B",
"2  c #B59A08",
"3  c #BF9310",
"4  c #BEA102",
"5  c #B8A11A",
"6  c #938223",
"7  c #9C8836",
"8  c #A1882B",
"9  c #B79F25",
"0  c #B59C39",
"q  c #B6A727",
"w  c #B6A531",
"e  c #CD8E0B",
"r  c #C29504",
"t  c #C89606",
"y  c #C49D01",
"u  c #C99C02",
"i  c #C49C0A",
"p  c #C69616",
"a  c #D09D10",
"s  c #C5A301",
"d  c #CCA303",
"f  c #C4AA00",
"g  c #CCAC01",
"h  c #C6A40A",
"j  c #CEA40A",
"k  c #D2A503",
"l  c #D9A603",
"z  c #D4AA03",
"x  c #DBAD03",
"c  c #D4A509",
"v  c #DAA70B",
"b  c #D3AA0A",
"n  c #D8AD09",
"m  c #CCB10C",
"M  c #D5B401",
"N  c #DDB202",
"B  c #DCB906",
"V  c #DDB40A",
"C  c #CAA719",
"Z  c #D6A912",
"A  c #D5B413",
"S  c #E3AE05",
"D  c #E3B503",
"F  c #E9B602",
"G  c #E6B902",
"H  c #EBBC03",
"J  c #E7B50A",
"K  c #E5BA0C",
"L  c #EBBB0A",
"P  c #F1BE04",
"I  c #F3BE0B",
"U  c #E8B417",
"Y  c #E4B914",
"T  c #EDBF16",
"R  c #E5BB1D",
"E  c #C99A26",
"W  c #CEA821",
"Q  c #CDB53B",
"!  c #DFBB36",
"~  c #E4BD27",
"^  c #E5BC33",
"/  c #EDC103",
"(  c #EEC20B",
")  c #F4C403",
"_  c #F9C604",
"`  c #F5CB05",
"'  c #FCCB05",
"]  c #F3C30B",
"[  c #FBC50B",
"{  c #F6CA0B",
"}  c #FDCD0B",
"|  c #FCD102",
" . c #FDD20C",
".. c #F5D207",
"X. c #EBCF1B",
"o. c #F4C512",
"O. c #FDC613",
"+. c #F6CC14",
"@. c #FDCD13",
"#. c #F6CD1B",
"$. c #FDCD1C",
"%. c #FED113",
"&. c #FDDB13",
"*. c #F4D418",
"=. c #FED21B",
"-. c #FED91D",
";. c #E9C229",
":. c #FDCD23",
">. c #F6CB29",
",. c #FCCE2C",
"<. c #F4C822",
"1. c #ECD12A",
"2. c #F6D424",
"3. c #FDD424",
"4. c #FDDA23",
"5. c #F5D62C",
"6. c #FED42B",
"7. c #F5DB2A",
"8. c #FDD92B",
"9. c #ECC632",
"0. c #EBC938",
"q. c #F4CD35",
"w. c #FBCD32",
"e. c #F4CD3B",
"r. c #FBCF3B",
"t. c #F7D334",
"y. c #FED634",
"u. c #FDDB35",
"i. c #F5D43E",
"p. c #FDD53A",
"a. c #FED93C",
"s. c #F6DD3A",
"d. c #FCE235",
"f. c #B7AE4A",
"g. c #BDA64E",
"h. c #BFA850",
"j. c #C4AC48",
"k. c #C9B44E",
"l. c #D2B449",
"z. c #D9BA58",
"x. c #C9AA6B",
"c. c #C5B168",
"v. c #D1B061",
"b. c #EAC746",
"n. c #F0CD49",
"m. c #EDD847",
"M. c #FBD543",
"N. c #FEDA43",
"B. c #F5D24D",
"V. c #FDD54A",
"C. c #F5DC4B",
"Z. c #FEDB4C",
"A. c #F4DC44",
"S. c #E4C856",
"D. c #E8CE5F",
"F. c #F5CC56",
"G. c #F6D552",
"H. c #F5DB54",
"J. c #FDDC54",
"K. c #F4D65A",
"L. c #FDDD5B",
"P. c #F9D856",
"I. c #FCE24A",
"U. c #FEE153",
"Y. c #FEE15C",
"T. c #ECCD68",
"R. c #EED764",
"E. c #F8D664",
"W. c #F7DB63",
"Q. c #FCDD64",
"!. c #FDDD6A",
"~. c #E6CE7C",
"^. c #F5DC77",
"/. c #F3D67B",
"(. c #FDDC7B",
"). c #FEE264",
"_. c #FFE269",
"`. c #FFE573",
"'. c #F6E275",
"]. c #F6DC87",
"[. c #F4D997",
"{. c #F7E288",
"}. c #F6E596",
"|. c #E4D1B2",
" X c #FBE2AD",
".X c #FAE4BB",
"XX c #F9E6C8",
/* pixels */
"                                                                                                                                ",
"                                                                                                                                ",
"                                                                                                                                ",
"                                                                                                                                ",
"                                                                                                                                ",
"                                                                                                                                ",
"                                                                                                                                ",
"                                                                                                                                ",
"                                                        [.T.b.X._ ` [ #.t.F.^.                                                  ",
"                                                  ~.9.D F I [ [ O.[ ' ' ' ' { +.+.t.].                                          ",
"                                            [.l.U U L L _ ' _ _ } } ' } ' [ O.O.| %.$.#.H.                                      ",
"                                            N J L / ) ) ` ` { ..` '  .@.%.=.=.=.8.%.%.$.$.=.H.                                  ",
"                                        m B L F H ] [ O.O.O.[  . . .%.} @.%.%. .} =.*.*.:.p.:.} ].                              ",
"                                    Q M G U L H ) ] O.} ' ' } @.} %.$.$.:.:.3.6.=.:.4.4.=.#.:.y.&.E.                            ",
"                                  Q M J S F H _ ) ` ` ' } +. . .@.$.$.=.=.3.3.3.t.8.=.3.6.6.6.1.3. .C.                          ",
"                                A b v D F I { ) ' ' } ' |  .=.:.=.4.4.4.2.6.6.6.3.8.6.t.y.6.3.=.6.=. .Z..X                      ",
"                            |.W b v B D H H ) ` ' ' } } @.$.$.=.3.3.8.6.6.6.3.y.y.u.y.y.a.y.y.y.y.3.3.2.s..X                    ",
"                            Q C v x D F H _ [ ` ' } } @.%.=.=.=.3.3.8.6.u.u.y.y.y.y.y.p.a.y.y.y.y.y.y.3.5.H.                    ",
"                          v.d b M x F H ) ) ` ' }  .} @.=.=.$.3.8.6.8.y.y.y.a.a.a.y.y.a.a.a.a.y.p.a.y.8.6.*.].                  ",
"                          d Z N N D D / ) ) '  .} @. .%.$.3.3.3.6.y.y.y.a.a.N.N.N.N.N.N.N.M.a.a.u.N.6.6.p.t.7.[.                ",
"                        C j Z l N D H ) ` _ ` | } @.%.=.=.3.6.3.u.y.y.a.N.N.N.M.N.Z.N.Z.Z.Z.N.M.y.N.a.t.p.p.*.a.                ",
"                      v.y j d x N G H ) _ ' } } } @.@.=.3.6.y.y.y.a.a.M.N.Z.Z.Z.J.Z.J.U.J.Z.Z.Z.N.a.Z.M.8.=.M.*.}.              ",
"                      1 j d z B D G H ) ` '  .} %.@.=.=.3.6.y.y.y.a.N.N.Z.Z.Z.J.J.Y.L.U.U.U.Z.Z.Z.N.Z.a.8.4.V.3.m.              ",
"                    x.C d x z M G H ) ) _ } } } %.%.=.3.6.y.y.y.a.a.N.Z.Z.J.U.J.J.L.U.U.U.U.Z.J.J.V.A.N.a.V.8.y.*.              ",
"                    E u f v x N F H _ _ '  .} %.@.=.=.3.8.u.y.y.a.N.N.Z.U.U.L.L._.L.Q.L._.Y.L.J.U.Z.N.N.a.a.y.y.t.s.            ",
"                    p j f v x N F H ) ) ' ' } %.%.=.3.3.6.8.t.a.N.N.N.U.J.Y.L.).).).).).).).L.Y.J.U.Z.N.M.p.y.y.6.u.XX          ",
"                    t j g v N x H H ) _ ' ' } %.%.=.3.3.8.y.a.a.N.N.Z.J.L.I.).).).).).).).).).U.J.U.Z.a.N.a.a.y.y.7.{.          ",
"                  9 y j g l D N H P ) _ | } } %.=.=.3.8.6.p.a.a.N.Z.I.t.J.).).).)._._._._._.).Q.Y.U.Z.Z.V.N.p.y.6.8.C.          ",
"                  2 d i b z x D P H ) ' ' }  .@.=.=.3.6.u.y.a.a.M.Z.Z.y.L._.)._._._._._._._.Q.L.).J.Z.Z.N.N.a.y.6.6.d.          ",
"                  < s y l z x D D ) ) ' '  .} @.=.3.3.6.u.p.a.N.M.N.i.t.J.Q._._._._._._._._._._.Y.L.Z.Z.Z.N.a.y.y.8.*.          ",
"                  1 s s b b D D F G H ' ' } @.%.$.=.3.6.y.y.p.N.Z.Z.Z.J.L.L.)._._._._._._._._._.L.L.U.Z.Z.N.a.y.6.6.*.          ",
"                  1 < s c Z S D D D G ' '  .} %.$.=.3.6.6.a.p.a.Z.Z.J.J.L.Q.)._._._._._._._._._._._.U.Z.N.N.p.y.8.8.2.          ",
"                  2 i f k z N D G G N ) ' } } %.%.=.6.=.a.8.Z.Z.Y.J.Y.W.U.).).).!.`.).).Y.U.).W.Q._.).Z.a.Z.M.y.6.8.6.          ",
"                  , t s k v N D D P H / '  .} %.=.=.3.6.y.a.L.).J._._.J.L.Y.^.Y.Y._.L._.{.'._.!.)._.J.Z.M.8.a.a.6.6.6.          ",
"                  < r s c l M D G H ) P / { @.@.=.%.=.y.3.Z.Q.V.O.P.Y.L.P.V.).).Y._._.Q.!._.)._.)._.Y.A.a.a.u.y.6.3.2.          ",
"                  y y y j c l D G H ) G D { }  .=.=.3.3.[ p.J.P.r.P.J.P.i.r.Z.W.).U.!.`.Y.).W._._._.).M.M.i.8.6.6.3.6.          ",
"                  < y y j k z M D P ) G L { }  .:.%.4.p.:.r.P.L.S.  P.<.r.J.Z.).U.J.F.!._._.W._._._._.U.i.i.y.6.8.=.7.          ",
"                  < , y j k z N D G G F G _ ` } :. .6.L.M.M.J.Q.    S.H.J.Q.Y.I.J.P.Y.)._._._._._._.).Y.p.7.3.y.8.=.y.          ",
"                  5 1 4 s d z x D F H ) { ] H L @. .y.J.r.,.p.B.    k.L.L.L.L.J.I.J.I.H._._.W._._._.).U.2.a.=.p.3.=.t.          ",
"                  3 1 4 y d z l N D G H _ P ) _ ' $.,.r.,.M.p.        P.Q.Z.J.Z.a.J.A.K.g.> h.z.T.)._.H.t.t.6.=.=.:.a.          ",
"                  c.p r s 4 Z l D D G ) ) H ) ' +.[ 3.Z.V.L.M.        K.Q.Q.J.M.{ t.C.- @ o O = k._._.I.2.y.>.3.*.2.(.          ",
"                    2 r h < z l x D F H ) ) ) @.M.r.,.,.p.r.M.          L.).L.M.` ( g.. @ + + # 6 _._.Z.6.4.-. .=.2. X          ",
"                    9 y 3 C y v x D D D / / G Y n.G.P.p.p.P.            S.L.L.p.../ 7 X o X o @ $ _.).p.8.=.>.3.%.C.            ",
"                      < 3 u y z l x N F H L D V 0.B.V.p.J.P.              V.J.i.` / 0 . @ o X @ : M.M.3.$.%.=.:.O.].            ",
"                      2 < , d d k x x D G G D K ~ e.:.y.Z.V.              e.P.t.` / e.& X . X % ~ :.3.$.=.%.' %.1.              ",
"                      c.< , u d d z x D D F G o.K q.M.J.J.                ~ ,.#.` / { 0.8 & ; ! 8.&.=.=.%.:.%.| ^.              ",
"                        q h , i d k v x N D D P K Y 9.P.Z.                Y p.3.` ` ( / / ;.4.>.2.=.=.&.} o.&.X.                ",
"                          < i r d d z x x N N L I I #.6.<.                  Z.V.*.` ` ` ` ` ` =.@.=.%.` $.} +.                  ",
"                          f.< t i s g c V n G G ^ B ] ]                     P.L.V.y.#.` { +.} $.$.|  .@._ +./.                  ",
"                            0 y 2 a d g d x B T L G )                         i.p.y.=.+.p.} }  .}  .@. .| F.                    ",
"                              w 2 e e j N N V N N L L                         :.$.@. .} } {  .` ' [ ' ' i.                      ",
"                                5 s a p c D K D L (                           { @.} ' [ } ,.' | ` ' _ b.                        ",
"                                  q 2 r z o.N N H B                           K } { _ ) { } 2.' ] ` b.                          ",
"                                    f.s K n z N G H                             ) ' ) ) ' [ E.I +.T.                            ",
"                                        z.I b n j N                             ) _ ) _ _ _ ' F.R.                              ",
"                                            K V M                               L ) _ _ _ ' {                                   ",
"                                              D D                               x ) ) _                                         ",
"                                                                                                                                ",
"                                                                                                                                ",
"                                                                                                                                ",
"                                                                                                                                ",
"                                                                                                                                ",
"                                                                                                                                ",
"                                                                                                                                "
};
