/* XPM */
static char *pacman_up_mouth_closed1661440052[] = {
/* columns rows colors chars-per-pixel */
"68 68 193 2 ",
"   c None",
".  c #000002",
"X  c #020902",
"o  c #03030C",
"O  c #090604",
"+  c #1A0000",
"@  c #0F1102",
"#  c #141305",
"$  c #1C1807",
"%  c #020116",
"&  c #080417",
"*  c #02001B",
"=  c #3E2D05",
"-  c #2E2217",
";  c #463810",
":  c #4F4018",
">  c #6B5D14",
",  c #8B710F",
"<  c #8C791B",
"1  c #827625",
"2  c #BD9402",
"3  c #B59A03",
"4  c #BB9B01",
"5  c #BC950B",
"6  c #B59A09",
"7  c #BB9B09",
"8  c #BE9412",
"9  c #BEA102",
"0  c #B8A11A",
"q  c #9B852E",
"w  c #90813A",
"e  c #B79F25",
"r  c #B49B3B",
"t  c #B6A727",
"y  c #B6A531",
"u  c #CD8E0B",
"i  c #C29504",
"p  c #C89606",
"a  c #C49D01",
"s  c #C99C02",
"d  c #C49C0A",
"f  c #C69616",
"g  c #CB9A15",
"h  c #D09D10",
"j  c #C5A301",
"k  c #CCA303",
"l  c #C4AA00",
"z  c #CCAC01",
"x  c #C5A30A",
"c  c #CDA30A",
"v  c #D2A503",
"b  c #D9A603",
"n  c #D4AA03",
"m  c #DBAD03",
"M  c #D3A509",
"N  c #DAA70B",
"B  c #D4AA0A",
"V  c #D9AD09",
"C  c #CCB10C",
"Z  c #D5B401",
"A  c #DDB202",
"S  c #DCB906",
"D  c #DCB40B",
"F  c #CBA714",
"G  c #CAA719",
"H  c #D6A912",
"J  c #D9B312",
"K  c #E3AE05",
"L  c #E2B503",
"P  c #E9B602",
"I  c #E6B902",
"U  c #EBBC03",
"Y  c #E5B50A",
"T  c #E4B90D",
"R  c #EBBC0A",
"E  c #F1BE04",
"W  c #F3BE0B",
"Q  c #E8B416",
"!  c #E5BA13",
"~  c #EDBF16",
"^  c #E8B41A",
"/  c #F4BF1A",
"(  c #C99B2B",
")  c #CDB53B",
"_  c #DFBB36",
"`  c #E4BD27",
"'  c #E5BC33",
"]  c #EEC002",
"[  c #EEC10C",
"{  c #F4C303",
"}  c #F9C503",
"|  c #F5CB04",
" . c #FCCB05",
".. c #F4C409",
"X. c #FBC50B",
"o. c #F5CA0B",
"O. c #FDCC0B",
"+. c #FCD102",
"@. c #FDD20C",
"#. c #F9D70B",
"$. c #ECCF1A",
"%. c #EEC416",
"&. c #F3C412",
"*. c #FDC613",
"=. c #F5CC14",
"-. c #FDCD13",
";. c #F5CD1C",
":. c #FDCD1C",
">. c #F4D416",
",. c #FED113",
"<. c #FDDB13",
"1. c #F4D41A",
"2. c #FED21B",
"3. c #FED91D",
"4. c #EAC62D",
"5. c #F5CD20",
"6. c #FDCD23",
"7. c #F6CB29",
"8. c #FCCE2B",
"9. c #ECD129",
"0. c #F6D424",
"q. c #FDD424",
"w. c #FDDA23",
"e. c #F5D62D",
"r. c #FED42B",
"t. c #F5DB2A",
"y. c #FDD92B",
"u. c #EBC435",
"i. c #FBCD32",
"p. c #FBCF3A",
"a. c #F4CD39",
"s. c #EED135",
"d. c #F7D334",
"f. c #FED534",
"g. c #F7DF37",
"h. c #FDDB35",
"j. c #F6D43D",
"k. c #FDD53B",
"l. c #FED93C",
"z. c #F4DA3C",
"x. c #FCE233",
"c. c #BCA54F",
"v. c #B7AE4A",
"b. c #BDA647",
"n. c #CAB347",
"m. c #D2B343",
"M. c #D8B958",
"N. c #C9AA6B",
"B. c #C5B167",
"V. c #D1B061",
"C. c #EAC745",
"Z. c #F0CD49",
"A. c #EDD841",
"S. c #FCD543",
"D. c #F5DC46",
"F. c #FEDA43",
"G. c #FCD54B",
"H. c #F5DC4C",
"J. c #FEDA4B",
"K. c #F3D14F",
"L. c #E7CD5E",
"P. c #F5CC55",
"I. c #F6CC5A",
"U. c #F4D454",
"Y. c #F5DA53",
"T. c #FDDC54",
"R. c #FEDE5B",
"E. c #F7D557",
"W. c #FCE24A",
"Q. c #FEE153",
"!. c #FEE15C",
"~. c #ECCD66",
"^. c #EED662",
"/. c #F8D663",
"(. c #FCDE64",
"). c #FDDD6A",
"_. c #F5D965",
"`. c #E6CE7B",
"'. c #F5DC77",
"]. c #F3D67B",
"[. c #FDDC7F",
"{. c #FEE164",
"}. c #FFE269",
"|. c #FFE573",
" X c #F6E275",
".X c #F6DC87",
"XX c #F4D996",
"oX c #F7E283",
"OX c #F6E595",
"+X c #E4D1B2",
"@X c #FBE2AD",
"#X c #FAE4BA",
"$X c #F9E6C7",
/* pixels */
"                                                                                                                                        ",
"                                                                                                                                        ",
"                                                                                                                                        ",
"                                                                                                                                        ",
"                                                                                                                                        ",
"                                                                                                                                        ",
"                                                                I   L L                                                                 ",
"                                                      { { } { U U U U U U U   B                                                         ",
"                                                  U } } } } } { U L U U { I D x M B                                                     ",
"                                            } } E U } } U U E { L L U L I B n c x Y L                                                   ",
"                                       . .{ } } { U { U ..O.O. .{ { { L A U L I A m A T                                                 ",
"                                  ^.P.} } } } E } } { ..O.O.O.O.-.q.2.[ A U A A A c V B &.M.                                            ",
"                                ~.=./ /.} } { E } .. .O.O.O.O.2.q.y.y.q.R L L I [ I A B V I x v.                                        ",
"                              C.o... .5.O. .{ } } O.O.O.O.-.q.q.:.q.q.0.%.[ | [ I U A A ~ m i 6 t                                       ",
"                            C.}  .| +.O.6.O.O.O.O.O.O.q.-.q.r.q.=.2.q.q.%.L o.U [ [ S L L M f h j 0                                     ",
"                          j.O. .X. .| @.-. .O.O.-.2.6.k.f.J.q.-.-.-.-.,.o.o...R U A A A A V c u u 6 y                                   ",
"                        I.+.@.-.@.O.@.O.-.S.8.:.f.k.k.k.f.G.k.:.} O.O.O.O.O.....T U %.I m k z k h 6 a r                                 ",
"                      ].o.} -.@.+.:.:.O.8.F.k.F.S.T.R.T.r.k.J.k.} :.8.:.:.O.O.R S ' L Y A D c z j d p 7 v.                              ",
"                      5. .:.| ,.2.-.:.:.6.f.f.k.k.f.G.J.f.k.J.i.} :.r.8.8.q.8.;.[ ..R A A m m b k k i d 4                               ",
"                    $.<.=.O.<.2.2.0.7.y.' , = q s.:.f.f.:.8.R.J.*.;.q.:.k.J.T.u.! I E L A A m N v k d 2 x t                             ",
"                  '.+.,.6.,.2.2.<.q.<.` - @ O # : Z.f.r.6.q.J.R.8.*.q.2.k.R.T.k.a.T %.L P L L m n k k s 2 7 B.                          ",
"                  s.@. .,.2.:.q.6.f.q.< * X o & $ r T.J.k.f.F.R.G.k.l.k.J.G.f.6.p.` T L U L L m m v k k 2 4 3                           ",
"                .XX.6.2.,.:.r.k.F.F.k.+ & o X o # w R.R.S.l.F.T.R.T.{.R.R.J.j.G.U.u.Y L U U L A m b n a s f 3                           ",
"                H.,.q.7.2.y.k.{.{.{.E.< * % % & # b.T.R.R.{.{.T.J.J.R.R.T.F.f.T.U.Z.! I { U U L L m N a G 5 a e                         ",
"              @X0.2.@.3.w.r.J.}.}.}.).n.; . o % > H.G.R.{.{.{.{.(.F.T.S.i.k.8.8.k.k.&.{ ] { U P L m b n 4 x i 6                         ",
"              [.1.1.q.7.h.0.W.}.}.}.).L.M.c.1 c.^.l.S.T.R.{.(.R.R.F.G.S.R.G.T.6.O.-.O.{ ] { { U L L b H 9 j i f B.                      ",
"              F.6.2.2.r.d.d.Y.}.}.}.}._.(._.R.D.T.F.T.T.J.(.R.T.T.J.j.k.S.i.p.i.:. ...{ { { U L L A b n k a j 5 i                       ",
"              d.2.q.k.2.l.0.Y.}.}.}.}._.}.).Y.W.T.W.J.R.R.R.R.{.(.T.G.k.8.k.T.r.@.-.] R ..o.{ U L L m n k j 4 5 0                       ",
"              h.:.y.f.w.y.k.!.{.}.}.}.}.}.}.(.!.T.T.W.!.{.T.E.(.(.R.(.T.G.S.T.i.@.6.o.O.| I L I I L A n v c a 2 4                       ",
"              e.2.y.r.f.k.j.Q.}.}.}.}._.}.).).P.T.Q.{.J.R.p.5.R.(.R.R.T.p.6.k.y.,.6.@.O.O.U U { U L A n v c a a 4                       ",
"              r.q.r.r.y.j.F.F.{.}.}.}.).{.{.|.).Q.{./.J.p.p.E.T.R.p.T.R.k.O.6.q.2.2.@.O.o.I U { U L L n M c a a a                       ",
"              0.q.r.f.h.l.l.F.!.}.}.{.{.}.).{.{.}.!.{.{.G.T.R.!.T.*.J.(.F.q.f.2.,.2.-.-.o.] E { U P L Z n M j p 4                       ",
"              r.r.r.k.F.r.F.J.T.{.{.}.}. XoX}.!.}.!.!.'.!.R.T.}.(.T.{.R.l.f.r.q.2.2.,.O.@. .] R R I L A N v j p 2                       ",
"              r.y.r.f.F.J.k.F.{.}.{._.}.Q.!.{.}.|.).{.(.{.Q.(.!.R.R.J.F.f.l.2.r.2.,.,.O.O. .] L I I L A n v l d 6                       ",
"              q.y.y.f.f.F.F.J.!.{.{.}.}.}.}.}.}.}.}.}.{.{.R.T.T.J.J.l.k.k.r.r.q.2.:.,.O.@. . .I L L L K H M j 4 5                       ",
"              1.r.r.f.l.F.J.J.T.{.!.}.}.}.}.}.}.}.}.{.{.(.R.J.T.J.G.F.k.f.f.r.w.2.2.,.-.O. . .I U P L L B M j j 5                       ",
"              1.y.f.f.l.F.J.J.W.R.!.{.{.}.}.}.}.}.}.}.}.(.R.d.d.F.F.F.l.l.h.r.q.q.2.-.O.@. . .{ { L L m n b a j 4                       ",
"              x.r.r.k.l.F.F.J.J.T.{.{.(.}.}.}.}.}.}.}.{.{.T.d.J.J.F.l.l.f.h.r.q.2.2.-.O.|  . . .U U L m n B d k 6                       ",
"              D.y.r.f.l.F.G.J.J.Q.R.{.{.}.}.}.}.}.{.{.{.{.T.h.W.J.F.l.l.l.r.y.q.2.2.,.O.O.+.} { E U A L b z c a e                       ",
"              oXt.f.f.f.l.F.F.J.Q.T.Q.{.}.{.{.{.{.{.{.{.Q.R.J.J.F.F.l.l.f.y.q.q.2.,.,.O. . .} { U U A A N z c p                         ",
"              $Xl.r.f.f.l.F.F.J.T.T.!.!.{.{.{.{.{.R.{.R.R.T.Q.F.F.F.l.d.y.r.q.q.2.,.,.O. . .} ..U P A m N l c f                         ",
"                g.d.f.f.f.l.F.F.J.Q.T.!.!.{.(.R.!.{.R.R.Q.T.J.F.F.l.f.f.h.y.q.2.2.-.,.O.@. .} { U P A m N l s (                         ",
"                  1.f.y.G.k.F.D.S.T.T.T.Q.Q.Q.Q.R.T.T.T.T.J.J.F.l.l.f.f.h.r.q.2.,.,.O.@.@.} { U U I Z n m k G N.                        ",
"                  A.q.G.w.y.l.J.F.J.J.J.T.Q.Q.R.!.T.T.J.J.J.F.F.l.l.f.f.r.q.2.:.-.,.O.O. .| { ] U L S n k c 8                           ",
"                  OX1.S.2.y.F.J.l.F.J.J.J.T.T.T.J.Q.J.J.J.F.F.k.f.f.h.f.r.q.2.-.-.O.O.O. .} } U L A m k c a V.                          ",
"                    h.1.f.k.d.l.F.f.F.F.J.J.J.F.J.F.F.F.F.F.l.f.f.h.r.r.q.2.2.,.-.O.+.| } | ] U L A b N c G                             ",
"                    XXt.d.k.r.r.F.h.l.l.F.F.l.F.F.F.F.F.l.l.f.f.f.r.q.q.q.:.,.@.-.@.@. .} { ] U L A A H F                               ",
"                      .X1.r.y.f.l.k.k.l.f.l.l.l.k.k.l.k.f.h.h.r.r.y.q.:.2.2.-.O.O.O. .| } { U L m Z B k V.                              ",
"                        Y.e.q.f.f.f.f.f.f.l.k.f.f.f.f.f.h.h.r.y.q.q.2.2.2.,.-.O.O. .| X.} U P L m N F n.                                ",
"                        #Xz.0.6.q.f.f.f.f.f.f.f.h.h.f.r.r.r.r.y.q.q.2.:.:.-.O.O. . .| } ] U L S N B F +X                                ",
"                          #XT.@.2.r.2.q.r.h.d.r.y.q.r.r.r.0.w.w.w.2.6.2.@.+. .O. . .{ &.W P L N B J                                     ",
"                              D.@.q.9.r.r.r.q.2.y.d.q.q.q.2.2.:.:.-.@.@.=.O. .| | { } U P K Y Z )                                       ",
"                                ).<.f.6.;.2.w.w.6.2.r.q.6.6.:.:.,.O.-.O. . .O.*.o.{ U U ^ I Z )                                         ",
"                                  .X:.:.f.6.;.1.2.O.@.,.,.-.O.,.@.@.O.O.*.*.*.X...U P R S C                                             ",
"                                      Y.q.-.:.,.,.y.2.2.2.,.,.@. .| | o.| | { E E R Y J                                                 ",
"                                          Y.0.-.,.+.*.*.X. .O. .O.O.}  . .} R R ^ Q m.XX                                                ",
"                                              .Xj.=.=.|  . . . .X.*.X.X.W I I 4.`.                                                      ",
"                                                      ].I.d.;.X. .} $.C.~.XX                                                            ",
"                                                                                                                                        ",
"                                                                                                                                        ",
"                                                                                                                                        ",
"                                                                                                                                        ",
"                                                                                                                                        ",
"                                                                                                                                        ",
"                                                                                                                                        ",
"                                                                                                                                        ",
"                                                                                                                                        ",
"                                                                                                                                        "
};
