/* XPM */
static char *pacman_up_mouth_half_open1662811513[] = {
/* columns rows colors chars-per-pixel */
"64 64 184 2 ",
"   c None",
".  c #080604",
"X  c #020902",
"o  c #04040C",
"O  c #120E06",
"+  c #030115",
"@  c #090417",
"#  c #13081B",
"$  c #2E1D00",
"%  c #2D2117",
"&  c #3B2F15",
"*  c #412F01",
"=  c #514316",
"-  c #6B5D15",
";  c #8A710F",
":  c #8B7516",
">  c #867A27",
",  c #BD9402",
"<  c #BB9B01",
"1  c #BC950B",
"2  c #B59A08",
"3  c #BF9310",
"4  c #BEA102",
"5  c #B8A11A",
"6  c #938223",
"7  c #9C8836",
"8  c #B79F25",
"9  c #B59C39",
"0  c #B6A727",
"q  c #B6A531",
"w  c #CD8E0B",
"e  c #C29504",
"r  c #C89606",
"t  c #C49D01",
"y  c #C99C02",
"u  c #C49C0A",
"i  c #C69616",
"p  c #D09D10",
"a  c #C5A301",
"s  c #CCA303",
"d  c #C4AA00",
"f  c #CCAC01",
"g  c #C6A40A",
"h  c #CEA40A",
"j  c #D2A503",
"k  c #D9A603",
"l  c #D4AA03",
"z  c #DBAD03",
"x  c #D4A509",
"c  c #DAA70B",
"v  c #D3AA0A",
"b  c #D8AD09",
"n  c #CCB10C",
"m  c #D5B401",
"M  c #DDB202",
"N  c #DCB906",
"B  c #DDB40A",
"V  c #CAA719",
"C  c #D6A912",
"Z  c #D5B413",
"A  c #E3AE05",
"S  c #E3B503",
"D  c #E9B602",
"F  c #E6B902",
"G  c #EBBC03",
"H  c #E7B50A",
"J  c #E5BA0C",
"K  c #EBBB0A",
"L  c #F1BE04",
"P  c #F3BE0B",
"I  c #E8B417",
"U  c #E4B914",
"Y  c #EDBF16",
"T  c #E5BB1D",
"R  c #C99A26",
"E  c #CDB53B",
"W  c #DFBB36",
"Q  c #E4BD27",
"!  c #E5BC33",
"~  c #EDC103",
"^  c #EEC20B",
"/  c #F4C403",
"(  c #F9C604",
")  c #F5CB05",
"_  c #FCCB05",
"`  c #F3C30B",
"'  c #FBC50B",
"]  c #F6CA0B",
"[  c #FDCD0B",
"{  c #F5D207",
"}  c #FCD102",
"|  c #FDD20C",
" . c #EBCF1B",
".. c #F4C512",
"X. c #FDC613",
"o. c #F6CC14",
"O. c #FDCD13",
"+. c #F6CD1B",
"@. c #FDCD1C",
"#. c #FED113",
"$. c #FDDB13",
"%. c #F4D418",
"&. c #FED21B",
"*. c #FED91D",
"=. c #E9C229",
"-. c #F4C822",
";. c #FDCD23",
":. c #F6CB29",
">. c #FCCE2C",
",. c #ECD12A",
"<. c #F6D424",
"1. c #FDD424",
"2. c #FDDA23",
"3. c #F5D62C",
"4. c #FED42B",
"5. c #F5DB2A",
"6. c #FDD92B",
"7. c #ECC632",
"8. c #EBC938",
"9. c #F4CD35",
"0. c #FBCD32",
"q. c #F4CD3B",
"w. c #FBCF3B",
"e. c #F7D334",
"r. c #FED634",
"t. c #FDDB35",
"y. c #F5D43E",
"u. c #FDD53A",
"i. c #F6DD3A",
"p. c #FED93C",
"a. c #FCE235",
"s. c #BDA64E",
"d. c #B7AE4A",
"f. c #BFA850",
"g. c #C4AC48",
"h. c #C9B44E",
"j. c #D2B449",
"k. c #D9BA58",
"l. c #C9AA6B",
"z. c #C5B168",
"x. c #D1B061",
"c. c #EAC746",
"v. c #F0CD49",
"b. c #EDD847",
"n. c #FBD543",
"m. c #F4DC44",
"M. c #FEDA43",
"N. c #FDD54A",
"B. c #F5DC4B",
"V. c #FEDB4C",
"C. c #E4C856",
"Z. c #E8CE5F",
"A. c #F5CC56",
"S. c #F6D552",
"D. c #F5DB54",
"F. c #F9D856",
"G. c #FDDC54",
"H. c #F4D65A",
"J. c #FDDD5B",
"K. c #FCE24A",
"L. c #FEE153",
"P. c #FEE15C",
"I. c #ECCD68",
"U. c #EED764",
"Y. c #F8D664",
"T. c #F7DB63",
"R. c #FCDD64",
"E. c #FDDD6A",
"W. c #E6CE7C",
"Q. c #F5DC77",
"!. c #F3D67B",
"~. c #FDDC7B",
"^. c #FEE264",
"/. c #FFE269",
"(. c #F6E275",
"). c #FFE573",
"_. c #F6DC87",
"`. c #F4D997",
"'. c #F7E288",
"]. c #F6E596",
"[. c #E4D1B2",
"{. c #FBE2AD",
"}. c #FAE4BB",
"|. c #F9E6C8",
/* pixels */
"                                                                                                                                ",
"                                                                                                                                ",
"                                                                                                                                ",
"                                                                                                                                ",
"                                                                                                                                ",
"                                                                                                                                ",
"                                                                                                                                ",
"                                        ( ( ~ z                               B S                                               ",
"                                  [ [ ( _ ( / F                               l M J                                             ",
"                              U.A.( _ ( ( / ( /                             B x l b ` k.                                        ",
"                            I...P Y.( / / / ( /                             ~ F M l b J a d.                                    ",
"                          c.) ` _ <.[ [ / ( ' O.J                           N G B S Y z e 2 0                                   ",
"                        c._ _ ) } [ ;.[ [ [ [ [ ]                           ~ K N H S x i p a 5                                 ",
"                      y._ _ ' _ ) | o.[ [ [ #.@.;.                        K K M M B z z h w w 2 q                               ",
"                    A.} | O.| [ | [ [ u.+.@.e.u.u.                        ^ F G ..N z j f s p 2 t 9                             ",
"                  !.o.( O.| } @.@.[ ] ] ) o.u.V.^.S.                    ] ` M ! F J z B h f a u r < d.                          ",
"                  o._ @.) #.&.O.&.) ) ) { ) ) o.N.B.                  -.0.+.^ P G M M z z l s s e u <                           ",
"                 .$...[ $.&.&.<.:.6.=.~ ~ ^ ) ) 1.u.U                 V.F.7.U F P M S M z c j s u , g 0                         ",
"              Q.} #.;.#.&.&.$.6.W ; * 7 8.] ^ ) +.>.T                 G.G.n.9.J ..F D S S z l s s y , < z.                      ",
"              ,.#._ #.&.@.1.;.Q % X . X & 9.~ { e.F.q.              N.V.e.;.w.Q J S F F S z z j s s , < 2                       ",
"            _.X.;.&.#.@.1.n.M.: @ X o @ o q ~ ) u.G.n.              F.G.u.N.A.8.H S F G F M z k l t y 1 <                       ",
"            B.#.1.:.&.6.u.^.^.$ @ o X o X 7 ~ ) n.J.J.C.            G.n.r.F.S.v.U F L ~ F S S z c t V i t 8                     ",
"          {.<.&.| *.2.4.V./.E.6 # + + @ . s.~ / n.P.^.T.          n.0.u.>.>.u.n.+./ / / G D S z k l < g e 2                     ",
"          ~.<.%.1.:.r.<.K././.h.= O o @ - m.e.o.M.G.J.^.H.        n.G.G.N.;.[ O._ / G / / F S S k C < a e i z.                  ",
"          p.;.&.&.4.e.e.L././.Z.k.f.> s.H.M.G.p.F.G.V.R.J.        w.n.>.u.>.@._ _ ~ L ( G D S M k l s t 4 1 3                   ",
"          r.&.1.p.&.p.<.D.E./././.E././.D.K.G.K.V.P.J.J.J.g.    N.w.>.w.F.r.| O.K G ` ] / G S S z l s a 4 1 5                   ",
"          t.@.6.r.1.6.r.L././././././.E.R.P.G.G.K.J.^.G.S.C.    T.G.n.n.F.r.| ;.] [ _ F G F S S z l j h t , <                   ",
"          3.&.6.4.r.u.y.L././././.T./.R.E.A.G.L.^.V.J.w.-.J.  C.J.G.u.;.u.1.#.;.| [ [ F F / G S M l j h t t <                   ",
"          4.1.4.4.6.y.M.m.^./././.T./.^.).E.L.^.Y.B.w.w.F.G.H.w.G.J.u.' 1.1.&.&.| [ ] S S / G F S l x h t t t                   ",
"          <.1.4.r.t.p.p.M.R./.^./.^./.E.R././.P.^.R.N.G.J.P.G.X.V.J.M.1.r.&.#.&.O.O._ ~ / / G F S m l x a r <                   ",
"          4.4.4.p.M.4.M.V.G./.^.E.^.(._./.P./.P.P.Q.P.P.G.^.R.G.^.^.p.r.4.1.&.&.#.[ | _ / G L D S M c j a r ,                   ",
"          4.6.4.r.n.V.u.M.^./.R.T.^.L.P.^.^.)./.^.^.^.L.R.P.J.P.G.M.6.u.&.4.&.#.#.[ [ _ G S F F S M l j d u 2                   ",
"          <.6.6.r.u.M.M.V.J./.^./././././././././.^.R.J.G.G.V.V.p.r.p.4.4.1.&.@.#.[ | _ ( G M F S A C x a < 1                   ",
"          %.4.4.r.p.M.V.V.G.P.J./././././././././.^.R.J.V.V.V.N.M.u.r.r.4.1.&.@.#.O.[ _ ( G F F S S x v a a 1                   ",
"          %.6.r.r.p.M.V.V.G.P.P.^./././././././././.R.L.e.y.M.M.M.p.u.t.4.1.1.&.O.[ | _ _ / / F S z l k t a <                   ",
"          a.4.4.p.r.M.M.V.V.G.^.R.^./././././././.^.^.J.e.V.V.M.p.p.u.t.4.1.&.&.O.[ [ _ _ _ G G S z l v u s 2                   ",
"          B.6.4.r.u.M.N.V.V.L.G.^.^.^././././.^.^.^.^.G.u.K.V.M.p.p.p.4.6.1.&.&.#.[ [ } ( ( L G M S k f h t 8                   ",
"          '.5.r.r.u.p.M.M.V.L.G.L.^.^.^.^.^.^.R.^.R.L.J.V.V.M.M.p.p.r.6.1.1.&.O.#.| _ _ ( / G G M M c f h r                     ",
"          |.t.4.r.r.p.M.M.V.L.G.P.J.^.^.^.^.^.J.^.J.J.G.L.M.M.M.p.e.6.4.1.1.&.#.#.[ _ _ / / G D M z c d h i                     ",
"            a.e.r.r.r.p.M.M.V.L.L.J.P.^.R.R.J.^.J.J.L.G.V.M.M.p.r.r.t.6.1.&.&.#.#.[ | _ ( / F D M z c d y R                     ",
"              %.r.6.N.u.M.m.N.G.G.G.L.L.L.L.J.L.G.L.G.M.V.M.p.p.r.r.r.4.1.&.#.#.[ [ _ ( / / G F m l z s V l.                    ",
"              b.1.N.2.6.p.V.M.V.V.V.G.L.L.P.J.G.G.G.V.V.M.M.p.p.r.r.4.1.&.@.O.#.[ [ _ ) / G F F N l s h 1                       ",
"              ].%.n.&.6.M.V.p.M.V.V.V.L.G.G.M.G.V.V.V.M.M.r.u.r.r.r.4.1.&.O.O.[ [ [ _ ( / G S S z s h t x.                      ",
"                p.%.p.u.e.u.M.r.n.p.V.V.V.M.V.M.n.M.M.M.p.r.r.t.4.4.1.&.&.#.O.[ } ) ( ) / G S M k C h V                         ",
"                `.5.e.u.1.4.M.r.p.p.M.M.M.M.M.M.M.M.p.p.r.r.r.4.1.1.1.@.#.| O.[ | ( / ( / S S M S C s                           ",
"                  _.%.4.6.r.p.p.p.p.p.p.r.u.p.u.p.p.r.r.r.4.4.6.1.@.&.&.O.[ | [ ) ) / ( G D z m v h x.                          ",
"                    H.3.1.r.r.r.r.r.r.u.p.r.r.r.r.r.t.t.4.6.1.1.&.&.&.#.O.[ [ _ ) [ ( F D S z c V E                             ",
"                    }.i.<.;.1.r.r.r.r.u.r.r.t.r.r.4.4.6.4.6.1.1.&.@.@.O.[ [ _ _ ) / L G S N c v V [.                            ",
"                      }.V.| &.4.&.1.4.r.r.4.6.<.4.4.4.<.2.2.2.&.;.&.| } _ [ _ _ ( ..P D S c v Z                                 ",
"                          B.| 1.,.4.4.4.1.&.6.e.1.1.1.&.&.@.@.O.| | o.[ _ ) ) / / G D A H m E                                   ",
"                            T.$.r.;.%.&.2.2.;.&.4.<.;.;.@.@.#.[ O.[ _ _ [ X.` ( G K I F m E                                     ",
"                              _.[ ;.u.;.+.%.&.[ | #.#.O.[ #.| | _ ' X.X.X.' ` G D K N n                                         ",
"                                  D.&.@.@.#.#.6.&.&.&.#.O.| _ ) { [ ) ) / ~ ~ K H M                                             ",
"                                      D.+.@.#.} X.X.' _ [ _ [ [ ( ( _ ( K K I I j.`.                                            ",
"                                          _.e.o.o.] _ _ _ _ ' X.' ' P D F 7.W.                                                  ",
"                                                  !.A.r.&.' ) (  .c.I.`.                                                        ",
"                                                                                                                                ",
"                                                                                                                                ",
"                                                                                                                                ",
"                                                                                                                                ",
"                                                                                                                                ",
"                                                                                                                                ",
"                                                                                                                                ",
"                                                                                                                                "
};
