/* XPM */
static char *pacman_up_mouth_half_open1661440052[] = {
/* columns rows colors chars-per-pixel */
"64 64 187 2 ",
"   c None",
".  c #080604",
"X  c #020902",
"o  c #04040C",
"O  c #120E06",
"+  c #030115",
"@  c #090417",
"#  c #13081B",
"$  c #2E1D00",
"%  c #2D2117",
"&  c #3B2F15",
"*  c #412F01",
"=  c #514316",
"-  c #6B5D15",
";  c #8A710F",
":  c #8B7516",
">  c #867A27",
",  c #BD9402",
"<  c #BB9B01",
"1  c #BC950B",
"2  c #B59A08",
"3  c #BF9310",
"4  c #BEA102",
"5  c #B8A11A",
"6  c #938223",
"7  c #9C8836",
"8  c #A1882B",
"9  c #B79F25",
"0  c #B59C39",
"q  c #B6A727",
"w  c #B6A531",
"e  c #CD8E0B",
"r  c #C29504",
"t  c #C89606",
"y  c #C49D01",
"u  c #C99C02",
"i  c #C49C0A",
"p  c #C69616",
"a  c #D09D10",
"s  c #C5A301",
"d  c #CCA303",
"f  c #C4AA00",
"g  c #CCAC01",
"h  c #C6A40A",
"j  c #CEA40A",
"k  c #D2A503",
"l  c #D9A603",
"z  c #D4AA03",
"x  c #DBAD03",
"c  c #D4A509",
"v  c #DAA70B",
"b  c #D3AA0A",
"n  c #D8AD09",
"m  c #CCB10C",
"M  c #D5B401",
"N  c #DDB202",
"B  c #DCB906",
"V  c #DDB40A",
"C  c #CAA719",
"Z  c #D6A912",
"A  c #D5B413",
"S  c #E3AE05",
"D  c #E3B503",
"F  c #E9B602",
"G  c #E6B902",
"H  c #EBBC03",
"J  c #E7B50A",
"K  c #E5BA0C",
"L  c #EBBB0A",
"P  c #F1BE04",
"I  c #F3BE0B",
"U  c #E8B417",
"Y  c #E4B914",
"T  c #EDBF16",
"R  c #E5BB1D",
"E  c #C99A26",
"W  c #CEA821",
"Q  c #CDB53B",
"!  c #DFBB36",
"~  c #E4BD27",
"^  c #E5BC33",
"/  c #EDC103",
"(  c #EEC20B",
")  c #F4C403",
"_  c #F9C604",
"`  c #F5CB05",
"'  c #FCCB05",
"]  c #F3C30B",
"[  c #FBC50B",
"{  c #F6CA0B",
"}  c #FDCD0B",
"|  c #FCD102",
" . c #FDD20C",
".. c #F5D207",
"X. c #EBCF1B",
"o. c #F4C512",
"O. c #FDC613",
"+. c #F6CC14",
"@. c #FDCD13",
"#. c #F6CD1B",
"$. c #FDCD1C",
"%. c #FED113",
"&. c #FDDB13",
"*. c #F4D418",
"=. c #FED21B",
"-. c #FED91D",
";. c #E9C229",
":. c #FDCD23",
">. c #F6CB29",
",. c #FCCE2C",
"<. c #F4C822",
"1. c #ECD12A",
"2. c #F6D424",
"3. c #FDD424",
"4. c #FDDA23",
"5. c #F5D62C",
"6. c #FED42B",
"7. c #F5DB2A",
"8. c #FDD92B",
"9. c #ECC632",
"0. c #EBC938",
"q. c #F4CD35",
"w. c #FBCD32",
"e. c #F4CD3B",
"r. c #FBCF3B",
"t. c #F7D334",
"y. c #FED634",
"u. c #FDDB35",
"i. c #F5D43E",
"p. c #FDD53A",
"a. c #FED93C",
"s. c #F6DD3A",
"d. c #FCE235",
"f. c #B7AE4A",
"g. c #BDA64E",
"h. c #BFA850",
"j. c #C4AC48",
"k. c #C9B44E",
"l. c #D2B449",
"z. c #D9BA58",
"x. c #C9AA6B",
"c. c #C5B168",
"v. c #D1B061",
"b. c #EAC746",
"n. c #F0CD49",
"m. c #EDD847",
"M. c #FBD543",
"N. c #FEDA43",
"B. c #F5D24D",
"V. c #FDD54A",
"C. c #F5DC4B",
"Z. c #FEDB4C",
"A. c #F4DC44",
"S. c #E4C856",
"D. c #E8CE5F",
"F. c #F5CC56",
"G. c #F6D552",
"H. c #F5DB54",
"J. c #FDDC54",
"K. c #F4D65A",
"L. c #FDDD5B",
"P. c #F9D856",
"I. c #FCE24A",
"U. c #FEE153",
"Y. c #FEE15C",
"T. c #ECCD68",
"R. c #EED764",
"E. c #F8D664",
"W. c #F7DB63",
"Q. c #FCDD64",
"!. c #FDDD6A",
"~. c #E6CE7C",
"^. c #F5DC77",
"/. c #F3D67B",
"(. c #FDDC7B",
"). c #FEE264",
"_. c #FFE269",
"`. c #FFE573",
"'. c #F6E275",
"]. c #F6DC87",
"[. c #F4D997",
"{. c #F7E288",
"}. c #F6E596",
"|. c #E4D1B2",
" X c #FBE2AD",
".X c #FAE4BB",
"XX c #F9E6C8",
/* pixels */
"                                                                                                                                ",
"                                                                                                                                ",
"                                                                                                                                ",
"                                                                                                                                ",
"                                                                                                                                ",
"                                                                                                                                ",
"                                                                                                                                ",
"                                              D V                               x / _ _                                         ",
"                                            K N z                               G ) _ ' _ } }                                   ",
"                                        z.] n z c V                             ) _ ) _ _ ' _ F.R.                              ",
"                                    f.s K n z N G /                             ) _ ) ) ) _ E.I o.T.                            ",
"                                  q 2 r x T D V H B                           K @.[ _ ) } } 2.' ] ` b.                          ",
"                                5 s a p c D J B L /                           { } } } } } :.} | ` ' ' b.                        ",
"                              w 2 e e j x x V N N L L                         :.$.%.} } } +. .` ' [ ' ' i.                      ",
"                            0 y 2 a d g k x B o.H G (                         p.p.t.$.#.p.} }  .}  .@. .| F.                    ",
"                          f.< t i s g j V x K G ^ N ] {                     G.).Z.p.+.` { { } $.$.|  .@._ +./.                  ",
"                          < i r d d z x x N N H I ( #.w.<.                  C.V.+.` ` ..` ` ` =.@.=.%.` $.' +.                  ",
"                        q h , i d k v x N D N I G Y 9.P.Z.                Y p.3.` ` ( / / ;.8.>.2.=.=.&.} o.&.X.                ",
"                      c.< , u d d z x D D F G o.K q.M.J.J.                R ,.#.` ( { 0.7 * ; ! 8.&.=.=.%.:.%.| ^.              ",
"                      2 < , d d k x x D G G D K ~ r.:.t.Z.V.              e.P.t.../ q.& X . X % ~ :.3.$.=.%.' %.1.              ",
"                      < 1 u y z l x N G H G D J 0.F.V.p.J.P.              M.J.p.` / w o @ o X @ : N.M.3.$.%.=.:.O.].            ",
"                    9 y p C y v x D D G / P G Y n.G.P.y.M.J.            S.L.L.M.` / 7 X o X o @ $ ).).p.8.=.>.3.%.C.            ",
"                    2 r h < z l x D F H ) ) ) #.M.p.,.,.p.w.M.          W.).Y.M.) / g.. @ + + # 6 !._.Z.6.4.-. .=.2. X          ",
"                  c.p r s < Z l D D G ) ) H ) ' @.} :.V.J.J.M.        K.).L.J.N.+.t.A.- @ o O = k._._.I.2.y.>.3.*.2.(.          ",
"                  3 1 4 y d z l N D F H _ P / ' ' $.,.p.,.M.r.        L.Q.Z.J.P.a.J.N.K.g.> h.z.D._._.U.t.t.6.=.=.:.a.          ",
"                  5 1 4 s d z x D D H ) { ] H L @. .y.P.r.,.r.V.    j.L.L.L.Y.Z.I.J.I.H._._.!._._._.!.H.2.a.=.a.3.=.y.          ",
"                  < , y j k z x D D G H G ' } { :. .y.P.M.M.J.W.    S.G.J.).L.I.J.J.Y.Q.!._._._._._._.U.y.8.3.y.8.$.u.          ",
"                  < y y j k z N D H ) G G } }  .:.%.3.p.:.p.J.L.S.  L.<.r.L.Z.).U.J.F.!.Q._.W._._._._.U.i.p.y.6.8.=.5.          ",
"                  y y y j c z D G H ) D D { }  .=.=.3.3.[ p.L.J.r.K.J.P.r.r.C.E.).U.!.`.)._.W._._._.).A.N.i.8.6.6.3.6.          ",
"                  < t s c z M D G H ) ) / ' @.@.=.%.=.y.3.N.L.Z.O.J.Y.L.J.V.Q.).Y._._.Q.!._.)._.)._.Q.N.a.a.u.y.6.3.2.          ",
"                  , t s k v N D F P H ) '  .} %.=.=.3.6.y.a.).).J.Q.).J.Y.Y.^.Y.Y._.Y._.].'.).!.)._.J.Z.N.6.N.a.6.6.6.          ",
"                  2 i f k z N D G G D H ' } } %.%.=.6.=.p.8.N.J.Y.L.Y.Q.U.).).)._.`.).).Y.U.).W.Q._.).N.p.Z.M.y.6.8.6.          ",
"                  1 < s c Z S D G N H _ '  .} %.$.=.3.6.6.a.y.a.Z.Z.J.J.L.Q.)._._._._._._._._._.)._.L.Z.N.N.p.y.8.8.2.          ",
"                  1 s s b c D D G G H _ ' } @.%.$.=.3.6.y.y.p.N.V.Z.Z.Z.L.Q.)._._._._._._._._._.L.Y.J.Z.Z.N.a.y.6.6.*.          ",
"                  < s y l z x D G ) ) ' '  .} @.=.3.3.6.u.p.a.N.N.N.i.t.U.Q._._._._._._._._._.).Y.Y.J.Z.Z.N.a.y.y.8.*.          ",
"                  2 d i b z x D H H ' ' ' } } @.=.=.3.6.u.p.a.a.N.Z.Z.t.L.).)._._._._._._._.).Q.).J.Z.Z.N.N.y.a.6.6.d.          ",
"                  9 y j g l D N H P _ _ | } } %.=.=.3.8.6.a.a.a.N.Z.I.p.J.).).).)._._._._.).).).J.U.Z.Z.V.N.p.y.6.8.C.          ",
"                    t j g v N N H H ) _ ' '  .%.@.=.3.3.8.y.a.a.N.N.Z.Z.L.U.Q.).Q.).).).).).).U.J.U.Z.N.N.a.p.y.y.7.{.          ",
"                    p j f v x N F H ) ) ' ' } %.%.=.3.3.6.8.t.a.N.N.N.U.J.L.L.).L.).).).).).L.Y.J.U.Z.N.N.a.y.y.6.u.XX          ",
"                    E u f v x N F G ) _ '  .} %.%.=.=.3.8.u.y.y.a.N.N.Z.J.U.L.L.).L.Q.Q.).Y.L.U.U.Z.N.N.a.y.y.y.t.d.            ",
"                    x.C d x z M G H ) ) _ ' } } %.%.=.3.6.y.y.y.a.a.N.Z.N.J.U.J.U.L.U.U.U.U.J.J.J.V.A.N.p.V.8.y.*.              ",
"                      1 j d z B G G H ) ` ' } } %.@.$.=.3.6.y.y.a.a.N.N.Z.Z.J.J.J.L.Y.U.U.J.Z.Z.Z.N.Z.a.8.4.V.3.m.              ",
"                      v.y j d x D D H ) _ ' } } } @.@.=.3.6.y.y.y.p.y.N.N.Z.Z.Z.J.N.J.J.U.Z.Z.Z.N.a.Z.N.8.=.M.*.}.              ",
"                        C j Z l N D H ) ` _ ` | } @.%.=.=.3.6.6.u.y.y.a.N.N.N.M.N.Z.N.Z.Z.Z.a.M.y.N.p.t.p.a.*.a.                ",
"                          d Z D N D D ) _ ) _  .} @. .%.$.3.3.3.6.y.y.y.a.a.N.N.N.N.N.N.N.N.a.a.y.N.6.3.p.t.7.[.                ",
"                          v.j b M x F H _ ) ` ` }  .} @.=.=.$.3.8.6.6.y.y.y.a.a.p.a.p.y.a.a.a.a.a.a.y.8.6.*.].                  ",
"                            Q C v x D F G _ } ` ' } } @.%.=.=.=.3.3.8.6.u.u.y.y.y.y.y.a.p.y.y.y.y.y.y.3.5.K.                    ",
"                            |.C b v B D H P ) ` ' ' } } @.$.$.=.3.3.8.6.8.6.6.y.y.u.y.y.p.y.y.y.y.3.:.2.s..X                    ",
"                                A b v D F I o._ ' ' } ' |  .=.:.=.4.4.4.2.6.6.6.2.8.6.y.y.6.3.=.6.=. .Z..X                      ",
"                                  Q M J S F H ) ) ` ` ' } +. . .@.$.$.=.=.3.3.3.t.8.=.3.6.6.6.1.3. .C.                          ",
"                                    Q M G U L H _ ] O.} ' ' } @.} %.$.$.:.:.2.6.=.:.4.4.=.*.:.y.&.W.                            ",
"                                        m B L F H ] [ O.O.O.[ '  . .%.} @.%.%. .} =.*.#.:.p.:.} ].                              ",
"                                            N J L / / ) ` ` } ..` '  .@.%.=.=.=.8.%.%.$.$.=.H.                                  ",
"                                            [.l.U U L L _ ' _ _ } } ' } ' [ O.O.| %.$.#.H.                                      ",
"                                                  ~.9.G F I [ [ O.[ ' ' ' ' { +.+.t.].                                          ",
"                                                        [.T.b.X._ ` [ =.y.F./.                                                  ",
"                                                                                                                                ",
"                                                                                                                                ",
"                                                                                                                                ",
"                                                                                                                                ",
"                                                                                                                                ",
"                                                                                                                                ",
"                                                                                                                                ",
"                                                                                                                                "
};
