/* XPM */
static char *pacman_left_mouth_half_open1661439983[] = {
/* columns rows colors chars-per-pixel */
"64 64 187 2 ",
"   c None",
".  c #080604",
"X  c #020902",
"o  c #04040C",
"O  c #120E06",
"+  c #030115",
"@  c #090417",
"#  c #13081B",
"$  c #2E1D00",
"%  c #2D2117",
"&  c #3B2F15",
"*  c #412F01",
"=  c #514316",
"-  c #6B5D15",
";  c #8A710F",
":  c #8B7516",
">  c #867A27",
",  c #BD9402",
"<  c #BB9B01",
"1  c #BC950B",
"2  c #B59A08",
"3  c #BF9310",
"4  c #BEA102",
"5  c #B8A11A",
"6  c #938223",
"7  c #9C8836",
"8  c #A1882B",
"9  c #B79F25",
"0  c #B59C39",
"q  c #B6A727",
"w  c #B6A531",
"e  c #CD8E0B",
"r  c #C29504",
"t  c #C89606",
"y  c #C49D01",
"u  c #C99C02",
"i  c #C49C0A",
"p  c #C69616",
"a  c #D09D10",
"s  c #C5A301",
"d  c #CCA303",
"f  c #C4AA00",
"g  c #CCAC01",
"h  c #C6A40A",
"j  c #CEA40A",
"k  c #D2A503",
"l  c #D9A603",
"z  c #D4AA03",
"x  c #DBAD03",
"c  c #D4A509",
"v  c #DAA70B",
"b  c #D3AA0A",
"n  c #D8AD09",
"m  c #CCB10C",
"M  c #D5B401",
"N  c #DDB202",
"B  c #DCB906",
"V  c #DDB40A",
"C  c #CAA719",
"Z  c #D6A912",
"A  c #D5B413",
"S  c #E3AE05",
"D  c #E3B503",
"F  c #E9B602",
"G  c #E6B902",
"H  c #EBBC03",
"J  c #E7B50A",
"K  c #E5BA0C",
"L  c #EBBB0A",
"P  c #F1BE04",
"I  c #F3BE0B",
"U  c #E8B417",
"Y  c #E4B914",
"T  c #EDBF16",
"R  c #E5BB1D",
"E  c #C99A26",
"W  c #CEA821",
"Q  c #CDB53B",
"!  c #DFBB36",
"~  c #E4BD27",
"^  c #E5BC33",
"/  c #EDC103",
"(  c #EEC20B",
")  c #F4C403",
"_  c #F9C604",
"`  c #F5CB05",
"'  c #FCCB05",
"]  c #F3C30B",
"[  c #FBC50B",
"{  c #F6CA0B",
"}  c #FDCD0B",
"|  c #FCD102",
" . c #FDD20C",
".. c #F5D207",
"X. c #EBCF1B",
"o. c #F4C512",
"O. c #FDC613",
"+. c #F6CC14",
"@. c #FDCD13",
"#. c #F6CD1B",
"$. c #FDCD1C",
"%. c #FED113",
"&. c #FDDB13",
"*. c #F4D418",
"=. c #FED21B",
"-. c #FED91D",
";. c #E9C229",
":. c #FDCD23",
">. c #F6CB29",
",. c #FCCE2C",
"<. c #F4C822",
"1. c #ECD12A",
"2. c #F6D424",
"3. c #FDD424",
"4. c #FDDA23",
"5. c #F5D62C",
"6. c #FED42B",
"7. c #F5DB2A",
"8. c #FDD92B",
"9. c #ECC632",
"0. c #EBC938",
"q. c #F4CD35",
"w. c #FBCD32",
"e. c #F4CD3B",
"r. c #FBCF3B",
"t. c #F7D334",
"y. c #FED634",
"u. c #FDDB35",
"i. c #F5D43E",
"p. c #FDD53A",
"a. c #FED93C",
"s. c #F6DD3A",
"d. c #FCE235",
"f. c #B7AE4A",
"g. c #BDA64E",
"h. c #BFA850",
"j. c #C4AC48",
"k. c #C9B44E",
"l. c #D2B449",
"z. c #D9BA58",
"x. c #C9AA6B",
"c. c #C5B168",
"v. c #D1B061",
"b. c #EAC746",
"n. c #F0CD49",
"m. c #EDD847",
"M. c #FBD543",
"N. c #FEDA43",
"B. c #F5D24D",
"V. c #FDD54A",
"C. c #F5DC4B",
"Z. c #FEDB4C",
"A. c #F4DC44",
"S. c #E4C856",
"D. c #E8CE5F",
"F. c #F5CC56",
"G. c #F6D552",
"H. c #F5DB54",
"J. c #FDDC54",
"K. c #F4D65A",
"L. c #FDDD5B",
"P. c #F9D856",
"I. c #FCE24A",
"U. c #FEE153",
"Y. c #FEE15C",
"T. c #ECCD68",
"R. c #EED764",
"E. c #F8D664",
"W. c #F7DB63",
"Q. c #FCDD64",
"!. c #FDDD6A",
"~. c #E6CE7C",
"^. c #F5DC77",
"/. c #F3D67B",
"(. c #FDDC7B",
"). c #FEE264",
"_. c #FFE269",
"`. c #FFE573",
"'. c #F6E275",
"]. c #F6DC87",
"[. c #F4D997",
"{. c #F7E288",
"}. c #F6E596",
"|. c #E4D1B2",
" X c #FBE2AD",
".X c #FAE4BB",
"XX c #F9E6C8",
/* pixels */
"                                                                                                                                ",
"                                                                                                                                ",
"                                                                                                                                ",
"                                                                                                                                ",
"                                                                                                                                ",
"                                             X(.a.t.y.5.6.2.6.6.2.*.*.d.C.{.XX                                                  ",
"                                        ].C.2.2.3.=.$.=.3.3.6.8.8.6.8.6.8.7.u.d.                                                ",
"                                    ^.1.O.%.=.*.=.3.8.8.6.6.6.6.8.6.y.6.6.y.6.t.*.m.}.                                          ",
"                                  X.| %.:.3. .3.=.p.y.6.6.y.p.y.y.y.y.a.y.y.y.y.y.3.*.a.[.                                      ",
"                              /.+.&.%.' =.>.-.>.6.=.3.y.8.u.N.M.a.p.a.p.p.p.y.y.8.V.N.*.7.].                                    ",
"                            F.+.' o.:.%.%.=.4.y.t.a.8.a.i.a.6.Z.N.N.N.N.N.a.p.a.V.4.=.y.t.*.H..X                                ",
"                          i.| _ $.} %.=.$.8.6.2.t.2.p.i.N.a.N.y.N.Z.Z.N.V.N.N.a.p.8.8.p.p.6.5.s..X                              ",
"                        b.'  .@.` &.=.$.2.p.C.I.U.H.U.U.A.Z.Z.N.Z.Z.Z.Z.Z.a.a.N.N.a.N.t.6.8.3.2.Z.                              ",
"                      b._ ' @. .%.=.=.3.M._._.).).!._._.).L.J._.U.J.J.Z.Z.Z.Z.N.A.Z.Z.p.6.y.y.:. .C.                            ",
"                    T.` ' [  .| =.=.&.:.N._.).)._._._._._._._._._.L.L.J.U.U.J.Z.V.N.a.N.N.a.y.3.=. .W.                          ",
"                  W.o.] ` ' } $.@.2.6.~ : $ 6 k.T._._._._.).).!.).L.Y._.Y.J.U.U.J.Z.N.y.y.a.y.y.6.3.&.].                        ",
"                  F.I ' ' `  .$.$.>.! % @ @ # = z._._._._.)._.W._._._.Q.).U.Y.J.J.Z.Z.N.a.y.y.y.=.1.y.}                         ",
"                } _ E.2.`  .} } ` 4.; X X o + O h.W._.W.W.).).)._._._.L.)._.L.J.Z.Z.Z.N.a.a.y.y.3.6.:.:.H.                      ",
"                } _ { } :.+.} +.` ;.* . o X + o > _._._._._.'.U._._._._._.).).Y.U.U.Z.Z.N.p.y.y.6.6.#.y.=.                      ",
"                _ _ _ } } } p.{ ` / 8 X @ o @ @ g._._.!.).!.].Y._.)._._._.).).).U.U.J.Z.N.a.a.p.y.6.=.:.$.H.                    ",
"              _ _ _ ) ) } } +.` ../ 0.& . X . - K.H.Y.!.`.)._.)._._._._._.).).Q.U.U.J.Z.N.a.p.y.t.3.4.*.:.#.                    ",
"              _ _ ) ) _ [ } $.#.` ( ..e.0 7 j.C.N.I.Y.F.!._.Y.)._._._._._.).).Q.U.L.J.N.N.a.y.y.6.=.4.*.%.$.].                  ",
"              / ) _ _ } } @.y.t.` ..( / / / / q.J.J.P.U.U.)._.`._._._._._.).).L.J.Y.Z.Z.N.y.y.u.8.8.:.=.%.%.t.                  ",
"              x H ) ] } } =.p.Z.#.` ` ` ` ` ` +.N.I.J.U.).Y.Y.!._._._._.)._.L._.J.J.U.N.N.a.y.y.3.t.=.} 8.| +.                  ",
"                      K { :.p.).M.2.#.t.i.M.M.M.J.J.I.).E.).Y.)._._._._.).).Q.L.J.Z.Z.N.N.a.y.y.6.3.6. .=.O.+.                  ",
"                              G.C.p.,.J.J.L.L.J.Z.L.Y.Z.Z.).^.Q.).)._.).).).L.L.J.U.Z.N.N.a.y.6.6.3.3.%.=.O.} /.                ",
"                                  U R e.Z.L.).Y.V.L.).J.r.V.Y.).).Q.Q._.).U.L.U.J.Z.Z.N.a.y.y.6.6.3.:.%.=.[ ' F.                ",
"                                          S.K._._.L.J.r.r.J.Y.U.Y.L.U.J.J.Y.J.J.Z.Z.N.N.a.y.u.6.2.=.:.@.%.' ' t.                ",
"                                              K.K.L.J.:.J.L.J.W.J.Z.t.t.t.Z.U.Z.Z.N.N.a.y.y.6.6.4.=.$.} @.} ' #.                ",
"                                                  j.S.K.P.L._.Y.J.Z.p.Z.I.Z.N.Z.N.N.p.y.y.6.8.8.4.=.$.%. .' ' [                 ",
"                                                        P.J.Q.L.J.Z.N.Z.Z.N.N.N.a.a.a.y.y.6.3.3.4.$.%. .' } [ `                 ",
"                                                      S.i.O.P.L.Z.V.N.N.N.N.N.a.a.p.y.u.6.8.3.3.=.@.}  .` } O._                 ",
"                                                  B.Q.P.J.V.).Z.a.N.N.a.a.a.a.y.y.y.y.6.3.3.=.=.:. .@.} .._ [ X.                ",
"                                            M.M.p.r.L.J.L.).Y.Z.a.y.a.a.a.a.t.y.y.y.y.6.3.=.=.$.=. .} [ { _ [ b.                ",
"                                      B.P.L.w.L.M.:.N.p.p.Z.a.8.p.y.p.p.y.y.8.u.y.6.6.3.3.=.=.$. .+.' O.` ' I T.                ",
"                                <.Z.J.Z.Z.M.p.J.w.r.M.$.[ 3.y.a.6.y.u.u.6.8.6.8.6.3.3.=.$.=.%.@.| } ' O.` _ H [.                ",
"                              { ,.P.J.y.p.y.6.V.M.P.L.r.:.t.6.=.6.6.6.6.8.3.3.3.3.=.=.=.%.@.@.} ' ' } O.) L G                   ",
"                          L / ] #.9.M.:.V.P.,.:.,.6.y.4.3.=.3.6.3.3.3.3.3.3.3.=.=.$.@.%. .} }  .} ` o.} ) L 9.                  ",
"                  V H D ( L G N L Y q.r.F.G.i.} $. .} %.=.%.=.=.=.=.3.=.=.=.=.=.%.@.@.@.@.} ' ' ' ' _ ] H U ~.                  ",
"              V z b K G / B G ^ o.G J ~ 0.n.p.@.' @.:.:.=.=.=.%.$.$.=.=.=.@.%.@.%.%.} }  .} ' ' ' ) ) H L U                     ",
"              D N z N N D N ( K L P ( Y V U +.} _ H }  . .@.%.%.%.%.%.@.%.%.%.%.} } } |  .' ` ' ) ) H F J l.                    ",
"                K n z N K V K J N D H D D G ) ) / H } } } @.} } } @.} } } } } } } } } ` ' ` [ ) o.H L L N [.                    ",
"                  ] n T D x x x N D G F H H / / P [ ' { { }  .}  .}  .} } ' '  .} ' ' _ ) ) ) P I F U B                         ",
"                  z.K x z n k V x N D G H / ) ) ) { G H G H ' ' ' ' ' ' | ' ' ' _ ' _ ` ) ) H H F S G m                         ",
"                    s r p j g c x x D D H G H ) H ) G G G P / H ' ' ' ' _ _ ) _ ) ) ) H ) H F D G J M                           ",
"                    f.2 a e d g x v x x N D F G F H H P ) ) H D G H ) _ ) ) ) _ / / H H G F D B v M Q                           ",
"                      q s e a s d k z x x D D D D G F H H H P G N G ) H P H H H H G G G D x x v b Q                             ",
"                        5 2 2 i d u u k l x x D N D D D G G G G G G G H H H F F H G N x x M v b A                               ",
"                          w y t r i d d z v l l l x N N D D D D D D D D N N N N M B x l N b C W                                 ",
"                            0 < i , u d y y z Z z z z z z M N N S D x x D N x x z z d Z Z d Q |.                                ",
"                              f.< h , , u C < 4 d d k k c z v z Z c z z l v v v x d j j d v.                                    ",
"                                  q < < 3 3 h s y s j j j c k k c b l b g g f f d j y C                                         ",
"                                    c.2 < y r r < 4 y y y s s f s s y i j j j u C 1 v.                                          ",
"                                          9 2 p 1 1 , y y t t i < s s d y t p E x.                                              ",
"                                              c.1 5 < < y < , 2 1 1 < 2 9                                                       ",
"                                                                                                                                ",
"                                                                                                                                ",
"                                                                                                                                ",
"                                                                                                                                ",
"                                                                                                                                ",
"                                                                                                                                ",
"                                                                                                                                ",
"                                                                                                                                ",
"                                                                                                                                "
};
