/* XPM */
static char *pacman_left_mouth_closed1661440012[] = {
/* columns rows colors chars-per-pixel */
"64 64 182 2 ",
"   c None",
".  c #080604",
"X  c #020902",
"o  c #04040C",
"O  c #120E06",
"+  c #030115",
"@  c #090417",
"#  c #13081B",
"$  c #2E1D01",
"%  c #2D2117",
"&  c #3B2F15",
"*  c #514316",
"=  c #6B5D15",
"-  c #8A710F",
";  c #8B7516",
":  c #867A27",
">  c #937E2D",
",  c #8C7D39",
"<  c #BD9402",
"1  c #BB9B01",
"2  c #BC950B",
"3  c #B59A08",
"4  c #BF9310",
"5  c #BEA102",
"6  c #B8A11A",
"7  c #938223",
"8  c #B79F25",
"9  c #AE993B",
"0  c #B49939",
"q  c #B6A727",
"w  c #B6A531",
"e  c #CD8E0B",
"r  c #C29504",
"t  c #C89606",
"y  c #C49D01",
"u  c #C99C02",
"i  c #C59D0A",
"p  c #C69616",
"a  c #D09D10",
"s  c #C5A301",
"d  c #CCA303",
"f  c #C4AA00",
"g  c #CCAC01",
"h  c #C6A40A",
"j  c #CEA40A",
"k  c #D2A503",
"l  c #D9A603",
"z  c #D4AA03",
"x  c #DBAD03",
"c  c #D3A509",
"v  c #DAA70B",
"b  c #D4AA0A",
"n  c #D8AD09",
"m  c #CCB10C",
"M  c #D5B401",
"N  c #DDB202",
"B  c #DCB906",
"V  c #DCB40C",
"C  c #CAA719",
"Z  c #D6A912",
"A  c #D5B413",
"S  c #E3AE05",
"D  c #E3B503",
"F  c #E9B602",
"G  c #E6B902",
"H  c #EBBC03",
"J  c #E5B509",
"K  c #E5B90C",
"L  c #ECBC0A",
"P  c #F1BE04",
"I  c #F3BE0B",
"U  c #E8B417",
"Y  c #E5B913",
"T  c #EDBF16",
"R  c #C99A26",
"E  c #CEA821",
"W  c #CDB53B",
"Q  c #DFBB36",
"!  c #E4BD27",
"~  c #E5BC33",
"^  c #EEC002",
"/  c #EEC10C",
"(  c #F4C303",
")  c #F9C503",
"_  c #F5CB04",
"`  c #FCCB05",
"'  c #F3C40A",
"]  c #FBC50B",
"[  c #F5CA0A",
"{  c #FDCD0B",
"}  c #FCD102",
"|  c #FDD20C",
" . c #F5D207",
".. c #EBCF1B",
"X. c #EEC517",
"o. c #F4C412",
"O. c #FDC613",
"+. c #F5CC14",
"@. c #FDCD13",
"#. c #F5CD1C",
"$. c #FDCD1C",
"%. c #FED113",
"&. c #FDDB13",
"*. c #F4D418",
"=. c #FED21B",
"-. c #FED91D",
";. c #FDCD23",
":. c #F6CB29",
">. c #FCCE2B",
",. c #ECD12A",
"<. c #F6D424",
"1. c #FDD424",
"2. c #FDDA23",
"3. c #F5D62C",
"4. c #FED42B",
"5. c #F5DB2A",
"6. c #FDD92B",
"7. c #ECC632",
"8. c #EAC93A",
"9. c #FBCD32",
"0. c #FBCF3A",
"q. c #F2CB39",
"w. c #F7D334",
"e. c #FED534",
"r. c #F7DF37",
"t. c #FDDB35",
"y. c #F5D43E",
"u. c #FDD53B",
"i. c #FED93C",
"p. c #F4DA3C",
"a. c #FCE235",
"s. c #B7AE4A",
"d. c #BDA64B",
"f. c #BFA850",
"g. c #C9B44E",
"h. c #D2B449",
"j. c #D6BE57",
"k. c #DCB659",
"l. c #C9AA6B",
"z. c #C5B168",
"x. c #D1B061",
"c. c #EAC746",
"v. c #F0CD49",
"b. c #EDD847",
"n. c #FCD543",
"m. c #FEDA43",
"M. c #FCD54B",
"N. c #F5DC4B",
"B. c #FEDA4B",
"V. c #F4D74A",
"C. c #E8CE5F",
"Z. c #F5CC56",
"A. c #F5DB54",
"S. c #FDDC54",
"D. c #F3D55A",
"F. c #FEDE5B",
"G. c #F7D654",
"H. c #FCE24A",
"J. c #FEE153",
"K. c #FEE15C",
"L. c #ECCD67",
"P. c #EED662",
"I. c #F8D663",
"U. c #F5DA65",
"Y. c #FCDE63",
"T. c #FDDD6A",
"R. c #E6CE7C",
"E. c #F5DC77",
"W. c #F3D67B",
"Q. c #FDDC7B",
"!. c #FEE164",
"~. c #FFE269",
"^. c #FFE573",
"/. c #F6E275",
"(. c #F6DC87",
"). c #F4D997",
"_. c #F7E288",
"`. c #F6E596",
"'. c #E4D1B2",
"]. c #FBE2AD",
"[. c #FAE4BB",
"{. c #F9E6C8",
/* pixels */
"                                                                                                                                ",
"                                                                                                                                ",
"                                                                                                                                ",
"                                                                                                                                ",
"                                                                                                                                ",
"                                            ].Q.i.w.t.3.4.<.6.4.<.*.*.a.N._.{.                                                  ",
"                                        (.N.<.<.;.=.$.=.1.1.4.6.6.4.6.4.6.5.t.a.                                                ",
"                                    E.,.O.%.=.*.=.1.6.6.4.4.4.4.6.4.e.4.4.e.4.w.*.b.`.                                          ",
"                                  ..} %.;.1.| 1.=.i.e.4.4.e.u.e.e.e.e.u.e.e.e.e.e.1.*.i.).                                      ",
"                              W.+.&.%.` =.>.-.:.4.=.1.e.6.t.m.n.i.u.i.i.u.u.e.e.6.M.m.*.5.(.                                    ",
"                            Z.+.` o.;.%.%.=.2.e.w.i.6.u.y.i.6.B.m.m.m.m.m.i.i.e.M.2.=.e.w.*.A.[.                                ",
"                          y.} ) $.{ %.=.$.6.4.<.w.<.u.y.m.i.m.u.m.B.B.m.M.m.m.i.u.6.6.u.i.4.3.p.[.                              ",
"                        c.` | @._ &.=.$.4.u.N.H.S.A.J.J.m.m.B.m.B.B.B.B.B.m.m.m.m.i.m.w.4.6.1.<.B.                              ",
"                      c.) ` @.| @.=.=.1.i.Y.~.~.!.~.~.~.!.K.S.~.J.S.S.B.B.B.B.m.N.B.B.i.4.e.e.;.| N.                            ",
"                    L._ ` ] | } -.=.&.;.n.!.~.~.~.~.~.~.~.~.~.~.!.F.F.S.J.J.S.B.n.m.i.m.m.i.e.2.=.| U.                          ",
"                  P.O.' _ ` { $.@.<.1.e.B.~.~.~.~.~.~.~.~.~.!.Y.!.F.K.!.K.S.J.J.S.B.m.e.e.e.e.e.4.1.&.(.                        ",
"                  Z.' ) } _ | $.$.:.&.1.u.D.T.!.~.~.~.~.~.~.~.U.~.~.!.Y.!.J.K.S.S.B.B.m.i.i.e.e.=.,.e.{                         ",
"                { ) I.<.) | { { $.6.! ; $ 7 g.C.U.U.~.U.U.!.!.!.~.~.!.Y.!.!.F.F.J.B.B.m.i.i.e.e.1.4.;.;.A.                      ",
"                ) ) ) { 1.@.{ 4.>.Q % + @ # * j.Y.~.~.~.~.~./.J.~.~.~.~.~.!.!.K.J.S.B.B.i.u.e.e.4.4.#.e.=.                      ",
"                ) ) ) ] { { n.n.e.- X X o + . g.U.~.T.Y.!.~.(.K.~.~.~.~.~.!.!.!.H.J.S.B.m.i.u.i.e.4.-.;.$.A.                    ",
"              ) ) ) ( ) ` { >.u.e.$ . o X + o : F.S.!.T.^.!.^.!.~.~.~.~.~.!.!.Y.J.J.S.B.m.i.u.e.w.1.2.#.$.#.                    ",
"              ( ) P P ) ` { $.n.n.> X @ o @ @ f.m.H.K.Z.T.!.K.!.~.~.~.~.~.!.!.Y.J.F.S.m.m.e.e.e.4.=.2.*.%.$.(.                  ",
"              H ( ) ) ` { @.e.n.i.8.& . X . = D.J.S.G.J.J.~.!.^.~.~.~.~.~.!.!.F.K.F.B.B.m.i.e.t.6.6.;.=.%.%.e.                  ",
"            H P H ) ) { { $.u.S.4.$.q.9 , d.N.n.m.H.S.J.!.K.K.T.~.~.~.~.!.!.F.!.S.S.J.m.m.i.e.e.1.w.=.{ 6.} +.                  ",
"            ) ) P ( [ { @.1.u.F.M.4.e.S.F.S.B.n.S.S.H.!.I.!.K.!.~.~.~.~.!.!.!.F.S.S.B.m.m.i.e.e.4.1.4.| -.O.+.                  ",
"          ( ) ) P ) { { ;.i.w.S.B.u.4.S.S.F.Y.S.B.F.K.B.B.T.E.Y.!.!.~.!.!.!.F.F.S.J.B.m.m.e.e.4.4.1.1.%.=.O.[ W.                ",
"          ( ) H ' { { { @.e.e.e.e.$.;.n.m.Y.Y.F.M.Y.!.S.0.B.K.!.!.!.Y.!.!.J.F.J.S.B.B.i.i.e.t.4.4.1.;.%.=.] { Z.                ",
"          ) ) H { { { { ;.B.M.e.u.>.1.e.i.F.!.!.!.F.S.0.0.S.K.J.F.F.S.S.S.K.S.S.B.B.m.m.i.e.t.4.<.=.;.@.%.` ) w.                ",
"          ( ) P { { @.-.6.1.u.M.B.F.B.m.m.F.!.!.F.F.S.#.S.F.S.U.S.B.w.w.u.S.J.B.B.m.m.i.e.e.4.4.2.=.$.{ @.{ ` =.                ",
"          H ( ( ) { =.1.1.$.$.u.w.M.F.F.S.S.!.F.S.!.Y.F.S.F.!.F.S.B.u.B.H.B.m.m.m.m.i.e.e.4.6.6.2.$.$.%.| ` ` ]                 ",
"        G H H D ( @.1.$.$.{ [ ) ) $.>.M.F.S.!.F.F.Y.!.!.F.G.T.F.S.B.m.B.B.m.m.m.i.i.i.e.e.6.1.1.2.$.%.| ` { ] _                 ",
"          H F D ( 1.2.1.=.@.{ $.O.;.O.u.S.B.m.m.B.G.F.F.0.O.S.F.m.M.m.m.m.m.m.i.i.u.e.t.4.6.1.1.=.@.{ | _ { O.)                 ",
"        F H H H ( #.4.4.1.@.{ 1.w.=.;.i.Y.S.S.M.y.M.F.F.S.M.Y.H.i.m.m.i.i.i.e.e.e.e.e.4.1.1.=.=.;.| @.{  .) ] ..                ",
"        G G H N G / 1.<.1.@.{ $.;.=.$.i.F.F.n.n.0.0.F.S.F.!.K.B.u.i.i.i.i.i.e.e.e.e.e.6.1.=.=.$.=.| { ] [ ) ] c.                ",
"          H ( F N D / ../ { { =.4.i.m.B.F.S.9.F.n.>.n.u.u.B.i.6.u.e.i.i.i.e.6.t.e.4.4.1.1.=.=.$.| @.` O._ ` I L.                ",
"          H K z G G G K G [ { { ;.M.S.M.B.n.u.S.>.0.n.;.` 1.e.u.4.e.e.t.4.6.4.6.4.1.1.=.$.=.%.@.} { ` O._ ) G ).                ",
"            V z G N B [ ' ( ' { 4.F.S.9.i.u.>.M.n.S.S.0.1.e.4.=.4.4.4.4.6.1.1.1.1.=.=.=.%.@.@.{ _ ` { O.( L G                   ",
"          b i c G N G ' H / / / #.7.n.;.M.S.>.;.>.e.e.4.1.=.1.4.2.1.1.1.1.1.1.=.=.$.@.%.| { { | { _ O.] ( L 7.                  ",
"            d j V D H G ^ K G N ' Y q.0.Z.V.u.| =.| | @.=.%.=.=.=.=.1.=.=.=.=.=.%.@.@.@.@.{ { ` ` _ ' ' ^ U R.                  ",
"            n V z j K H / N L ~ I G J ! 8.v.y.@.) O.;.;.=.=.=.%.$.$.=.=.=.@.%.@.%.%.{ | { { ` ` ` ( ( ^ L U                     ",
"              D N z N N D N X.G K I o.K V Y $._ ] H { | | @.%.%.%.%.@.@.%.%.%.%.{ ` { } | ` _ _ ( ( H F J h.                    ",
"                K n z N G V B J D N G D D G ( ( ^ H [ { { @.{ { { @.{ { { { { { { | { _ ` _ ` ( o.H L L D ).                    ",
"                  ' n T J N x N N N F H H ^ ( H ( ' _ { [ { | { | | | { | ` ` | { ` ` ) ( ( ( H I F U B                         ",
"                  k.K x c x d V x N D G H ^ ( ( ) [ G G G ^ ) [ ` ` ` ` } ` ` ` ) _ ) _ ( ( H H F S G m                         ",
"                    s r p c g j x x D D G F H ( H ^ G G G ( ^ ^ ) ` ` ` ) ) ( ) ( ( ( H ^ H F D F J M                           ",
"                    s.3 a e d g l v x x N D F G F H H ( ( ( H D G H ( ) ( ( ' ( ^ ( H H G F D B v M W                           ",
"                      q s e a s d d z x x D D D D F G H H H H G D G ( H P H H H H G H D F x x v b W                             ",
"                        6 3 3 i d d d k l x x D N D D D G G F F G G G H H H F F G G N N N M v b A                               ",
"                          w y t r i d d z v l l l x N N D D D D D D D D N N N N M B x l N b C E                                 ",
"                            0 1 i < u d y y z Z z z z z z M x N S D x x D N x x z z d Z Z d W '.                                ",
"                              s.1 h < < u C 1 5 d d k k c z v z v b k z l v v v x d j j d x.                                    ",
"                                  q 1 1 4 4 h s y s j j j c k k c b l b g g f f d j y C                                         ",
"                                    z.3 1 y r r 1 5 y y y s s f s s y i j j j u C 2 x.                                          ",
"                                          8 3 p 2 2 < y y t t i 1 s s d y t p R l.                                              ",
"                                              z.2 6 1 1 y 1 < 3 2 2 1 3 8                                                       ",
"                                                                                                                                ",
"                                                                                                                                ",
"                                                                                                                                ",
"                                                                                                                                ",
"                                                                                                                                ",
"                                                                                                                                ",
"                                                                                                                                ",
"                                                                                                                                ",
"                                                                                                                                "
};
