/* XPM */
static char * pacmanLeft_xpm[] = {
"64 64 179 2",
"  	c None",
". 	c #FBE2AD",
"+ 	c #FDDC7B",
"@ 	c #FED93C",
"# 	c #F7D334",
"$ 	c #FDDB35",
"% 	c #F5D62C",
"& 	c #FED42B",
"* 	c #F6D424",
"= 	c #F4D418",
"- 	c #FCE235",
"; 	c #F5DC4B",
"> 	c #F7E288",
", 	c #F9E6C8",
"' 	c #F6DC87",
") 	c #FECD23",
"! 	c #FED21B",
"~ 	c #FDCD1C",
"{ 	c #FDD424",
"] 	c #FDD92B",
"^ 	c #F5DB2A",
"/ 	c #F7DF37",
"( 	c #F5DC77",
"_ 	c #ECD12A",
": 	c #FDC613",
"< 	c #FED113",
"[ 	c #FED634",
"} 	c #EDD847",
"| 	c #F6E596",
"1 	c #EBCF1B",
"2 	c #FCD102",
"3 	c #FDD20C",
"4 	c #FED63A",
"5 	c #F4D997",
"6 	c #F3D67B",
"7 	c #F5CC14",
"8 	c #FDDB13",
"9 	c #FCCB05",
"0 	c #F6CB29",
"a 	c #FED91D",
"b 	c #FEDA43",
"c 	c #FBD643",
"d 	c #FDD44A",
"e 	c #F6CC57",
"f 	c #F5C512",
"g 	c #FDDA23",
"h 	c #F5D43E",
"i 	c #FEDB4B",
"j 	c #F5D958",
"k 	c #FAE4BB",
"l 	c #FAC503",
"m 	c #FDCD0B",
"n 	c #F4DA3C",
"o 	c #EAC746",
"p 	c #FECD13",
"q 	c #F5CB04",
"r 	c #FFE32A",
"s 	c #F4DC44",
"t 	c #F8E049",
"u 	c #F5CE1C",
"v 	c #B49939",
"w 	c #54480E",
"x 	c #2A1900",
"y 	c #645713",
"z 	c #CDC045",
"A 	c #FEE164",
"B 	c #FEDD53",
"C 	c #ECCD67",
"D 	c #FBC50B",
"E 	c #A99648",
"F 	c #090417",
"G 	c #13081B",
"H 	c #DEC65C",
"I 	c #FEE15C",
"J 	c #FEDE5B",
"K 	c #FEE153",
"L 	c #F8D866",
"M 	c #EDD664",
"N 	c #F4C40A",
"O 	c #020902",
"P 	c #04040C",
"Q 	c #030115",
"R 	c #080604",
"S 	c #978241",
"T 	c #F5DB54",
"U 	c #FDDE62",
"V 	c #F4BD0C",
"W 	c #7A6F1F",
"X 	c #FDDB6B",
"Y 	c #FFE269",
"Z 	c #645627",
"` 	c #AA9850",
" .	c #FBE765",
"..	c #FFCD33",
"+.	c #282015",
"@.	c #EACC5E",
"#.	c #FFE573",
"$.	c #F4E277",
"%.	c #FDD653",
"&.	c #F5D207",
"*.	c #93853A",
"=.	c #8B7C39",
"-.	c #FEE54E",
";.	c #F6E5D4",
">.	c #EAC733",
",.	c #FCF3CD",
"'.	c #F8E6B8",
").	c #F9D8A6",
"!.	c #F6CB0B",
"~.	c #F6E5A6",
"{.	c #E9D55A",
"].	c #EDE6D7",
"^.	c #FDEBD5",
"/.	c #F3EDE3",
"(.	c #EBE3AC",
"_.	c #F0DDBC",
":.	c #E6B801",
"<.	c #F4C403",
"[.	c #ECBB0A",
"}.	c #F4EEEB",
"|.	c #FACD41",
"1.	c #EEC000",
"2.	c #E8B417",
"3.	c #E6CE7C",
"4.	c #DCD3A8",
"5.	c #ECBC02",
"6.	c #E3B402",
"7.	c #E9B602",
"8.	c #E7B50A",
"9.	c #D2B449",
"0.	c #D9C773",
"a.	c #CAA719",
"b.	c #DCB906",
"c.	c #DDB202",
"d.	c #CDA30A",
"e.	c #D4AA02",
"f.	c #DBAD03",
"g.	c #DAA70B",
"h.	c #F0BD05",
"i.	c #C9AA6B",
"j.	c #BC950B",
"k.	c #C99C02",
"l.	c #D3A409",
"m.	c #CCA303",
"n.	c #D5B413",
"o.	c #E3AE05",
"p.	c #CCB10C",
"q.	c #BB9B01",
"r.	c #C29504",
"s.	c #C69616",
"t.	c #CCAC01",
"u.	c #D5B401",
"v.	c #B7AE4A",
"w.	c #B59A08",
"x.	c #D09D10",
"y.	c #CD8E0B",
"z.	c #CDB53B",
"A.	c #B6A727",
"B.	c #C5A301",
"C.	c #D2A503",
"D.	c #D3AA0A",
"E.	c #B8A11A",
"F.	c #C49C0A",
"G.	c #D9A603",
"H.	c #B6A531",
"I.	c #C49D01",
"J.	c #C89606",
"K.	c #CEA821",
"L.	c #BD9402",
"M.	c #D6A912",
"N.	c #E4D1B2",
"O.	c #C6A40A",
"P.	c #BEA102",
"Q.	c #D1B061",
"R.	c #BF9310",
"S.	c #C4AA00",
"T.	c #C5B168",
"U.	c #B79F25",
"V.	c #C99A26",
"                                                                                                                                ",
"                                                                                                                                ",
"                                                                                                                                ",
"                                                                                                                                ",
"                                                                                                                                ",
"                                            . + @ # $ % & * & & * = = - ; > ,                                                   ",
"                                        ' ; * * ) ! ~ ! { { & ] ] & ] & ] ^ $ /                                                 ",
"                                    ( _ : < ! = ! { ] ] & & & & ] & [ & & [ & # = } |                                           ",
"                                  1 2 < ) { 3 { ! 4 [ & & [ 4 [ [ [ [ 4 [ [ [ [ [ { = @ 5                                       ",
"                              6 7 8 < 9 ! 0 a 0 & ! { [ ] $ b c 4 4 @ 4 4 4 [ [ ] d c = ^ '                                     ",
"                            e 7 9 f ) < < ! g [ # @ ] 4 h @ & i b b b b b @ 4 4 d g ! 4 # = j k                                 ",
"                          h 2 l ~ m < ! ~ ] & * # * 4 h b @ b 4 b i i b d b b @ 4 ] ] 4 4 & % n k                               ",
"                        o 9 3 p q 8 ! ~ { ) [ r s s t t $ b i b i i i i i b b b b @ c # & ] { * i                               ",
"                      o l 9 p 3 < ! ! { & u c v w x y z ; ; c A B B B i i i i b s i i 4 & [ [ ) 3 ;                             ",
"                    C q 9 D 3 2 ! ! 8 ) & - E F F F G x H I B J J J J B K K B i d b @ b b @ [ { ! 3 L                           ",
"                  M f N q 9 m ~ p * { [ a _ w O O P Q R S T K j U J I A J B B K B i b [ $ 4 [ [ & { 8 '                         ",
"                  C V 9 2 q 3 ~ ~ 0 8 { [ o x R P O Q P W I X L Y Y A U A K I B B i i c @ 4 [ [ ! _ [ m                         ",
"                    | _ 9 3 m m ~ ] ! & ] n Z O F P F F ` j A  .Y Y Y U A A J J B i i b @ @ [ [ { & ) ) T                       ",
"                        L 7 m ~ ~ & ) [ ..% z +.R O R y @.#.$.K Y Y Y Y Y A A I K B i i b 4 [ [ & & u [ !                       ",
"                            %.&.8 ) [ g [ c n H *.=.E M -.X ' I Y Y Y Y Y A A A K K B i b @ 4 4 [ & ! ) ~ T                     ",
"                            ;.6 >.8 % & - d @ - B ; J X #.U Y  .Y Y Y Y Y A A U K K B i b 4 4 [ # { g u ~ u                     ",
"                                ,.} # [ { [ $ c b t I e X Y J  .Y Y Y Y Y A A U K J B b b 4 [ [ & ! g = < ~ '                   ",
"                                    > J h $ / j B B %.B K Y Y #.Y Y Y Y Y A A J J J i i b 4 [ $ ] ] ) ! < < #                   ",
"                                      , 6 s - b b -.B K A I I X Y Y Y Y A A U A B B B b b 4 [ [ { # ! m ] 2 7                   ",
"                                          '.X @ T K t  .L A I  .Y Y Y Y A A A J B B i c b @ [ [ & { & 3 ! : 7                   ",
"                                              ).n i B b K Y ( U A A Y A A A J J B B i b b 4 [ & & { { < ! : !.6                 ",
"                                                ,.( i %.J ; I  .U U U A A K J K B i i b @ [ $ & & { ) < ! D 9 e                 ",
"                                                    ~.{.K J J K J J I J J J B B i i b b @ [ $ & * ! ) p < 9 9 #                 ",
"                                                      ,.$.t b L B B B B B B K i i b b @ [ [ & & g ! ~ m p m 9 u                 ",
"                                                        ].~.$.K B B B B -.i b b b b 4 [ [ & ] ] g ~ ~ < 3 9 9 D                 ",
"                                                          ^.6 @ i i i i i b b b @ @ 4 [ [ & { { g ~ < 3 9 m D q                 ",
"                                                      /.> n - t b d b b b b b @ @ 4 [ $ & ] { { ! p m 3 q m : l                 ",
"                                                    (.U [ ] / @ @ b b @ @ @ 4 [ [ [ [ & { { ! ! ) 3 p m &.l D 1                 ",
"                                                  $.- g [ c @ @ 4 4 @ @ @ @ # [ [ [ [ & { ~ ! ~ ! 3 m D !.l D o                 ",
"                                              5 ] * { ..4 [ ] ] 4 [ 4 4 4 [ ] $ [ & & { { ! ! ~ 3 7 9 : q 9 V C                 ",
"                                          _.M g ! & & ! a ] [ 4 & [ $ $ & ] & ] & { { ! ~ ! < p 2 m 9 : q l :.5                 ",
"                                        6 & < ~ ) { 0 { & [ & ! & & & & ] { { { { ! ! ! < p p m 9 9 m : <.[.:.                  ",
"                                  }.).|.< < ~ p ~ < ! g { ! { & { { { { { { { ! ! ~ p < 3 m m m m q : D 1.[.>.                  ",
"                                  C D m u 7 m m ~ 3 3 < ! < ! ! ! ! { ! ! ! ! ! < p p p p m m 9 9 q N N 1.2.3.                  ",
"                              4.V V f q 9 9 9 9 9 p ) ) ! ! ! < ~ ~ ! ! ! p < p < < m m m m 9 9 9 <.<.5.[.2.                    ",
"                            o 6.[.V N N l m 9 9 9 m m 3 3 p < < < < p p < < < < m m m 2 3 9 q q <.<.5.7.8.9.                    ",
"                        0.a.b.8.7.:.5.<.N l q 9 9 9 m m m p m m m p m m m m m m m m m q 9 q D <.f 5.[.[.c.5                     ",
"                      9.d.e.f.g.6.6.7.5.h.<.<.<.l D 9 m m m 3 m 3 m 3 m m 9 9 3 m 9 9 l <.<.<.1.V 7.2.b.                        ",
"                  i.j.k.l.g.m.n.f.c.6.:.5.1.<.<.l !.q m 9 m 9 9 9 9 9 9 2 9 9 9 l q l q <.<.5.5.7.o.:.p.                        ",
"                    q.r.s.d.t.d.f.f.6.6.:.:.5.<.5.<.V q q l q 9 9 9 9 9 l l <.l <.<.<.1.1.5.7.6.6.8.u.                          ",
"                    v.w.x.y.m.t.e.g.f.f.c.6.7.:.:.5.5.<.<.<.l l <.<.<.l <.<.N <.1.1.5.5.:.7.6.b.g.u.z.                          ",
"                      A.B.y.x.B.m.C.e.f.f.6.6.6.6.:.:.5.5.5.h.5.5.<.<.5.h.5.5.5.5.:.:.6.6.f.f.g.D.z.                            ",
"                        E.w.w.F.m.m.m.C.G.f.f.6.c.6.6.6.:.:.:.:.:.:.:.5.5.5.7.7.:.:.c.c.c.u.g.D.n.                              ",
"                          H.I.J.r.F.m.m.e.g.G.G.G.f.c.c.6.6.6.6.6.6.6.6.c.c.c.c.u.b.f.G.c.D.a.K.                                ",
"                            v q.F.L.k.m.I.I.e.M.e.e.e.e.e.u.c.c.o.6.f.f.6.c.f.f.e.e.m.M.M.m.z.N.                                ",
"                              v.q.O.L.L.k.a.q.P.m.m.C.C.l.e.g.e.M.D.e.e.G.g.g.g.f.m.d.d.m.Q.                                    ",
"                                  A.q.q.R.R.O.B.I.B.d.d.d.l.C.C.l.D.G.D.t.t.S.S.m.d.I.a.                                        ",
"                                    T.w.q.I.r.r.P.P.I.I.I.B.B.S.B.B.I.F.d.d.d.k.a.j.Q.                                          ",
"                                          U.w.s.j.j.L.I.I.J.J.F.q.B.B.m.I.J.s.V.i.                                              ",
"                                              T.R.E.q.q.I.q.L.w.j.j.q.w.U.                                                      ",
"                                                                                                                                ",
"                                                                                                                                ",
"                                                                                                                                ",
"                                                                                                                                ",
"                                                                                                                                ",
"                                                                                                                                ",
"                                                                                                                                ",
"                                                                                                                                ",
"                                                                                                                                "};
